<?xml version="1.0" encoding="UTF-8"?>
<svg width="70px" height="63px" viewBox="0 0 70 63" version="1.1" xmlns="http://www.w3.org/2000/svg" xmlns:xlink="http://www.w3.org/1999/xlink">
    <!-- Generator: Sketch 49.3 (51167) - http://www.bohemiancoding.com/sketch -->
    <title>Mac</title>
    <desc>Created with Sketch.</desc>
    <defs></defs>
    <g id="Page-1" stroke="none" stroke-width="1" fill="none" fill-rule="evenodd">
        <g id="专题课程" transform="translate(-1445.000000, -201.000000)">
            <g id="Mac" transform="translate(1445.000000, 201.000000)">
                <polygon id="Fill-1" fill="#DAEBF8" points="4 37 66 37 66 4 4 4"></polygon>
                <g id="Group-8">
                    <path d="M42.77776,50.0676057 L48.33336,60.7986057 L21.66656,60.7986057 L27.22216,50.0676057 L42.77776,50.0676057 Z M63.33336,49.7926245 L6.66656,49.7926245 C4.22216,49.7926245 2.22216,47.8114925 2.22216,45.3897566 L2.22216,38.7862472 L67.77776,38.7862472 L67.77776,45.3897566 C67.77776,47.8114925 65.77776,49.7926245 63.33336,49.7926245 Z" id="Fill-2" fill="#FFFFFF"></path>
                    <path d="M32.22224,44.289317 C32.22184,45.5049396 33.21624,46.4907509 34.44384,46.4915434 C35.67104,46.4919396 36.66624,45.5065245 36.66664,44.2909019 L36.66664,44.289317 C36.66704,43.0736943 35.67264,42.087883 34.44544,42.0870906 C33.21784,42.0866943 32.22264,43.0721094 32.22224,44.2877321 L32.22224,44.289317 Z" id="Fill-4" fill="#909CB7"></path>
                    <path d="M4.4444,47.5911509 L65.5556,47.5911509 L65.5556,40.9872453 L4.4444,40.9872453 L4.4444,47.5911509 Z M25.2776,58.5975283 L28.6112,51.9936226 L41.4444,51.9936226 L44.7776,58.5975283 L25.2776,58.5975283 Z M4.4444,36.5851698 L65.5556,36.5851698 L65.5556,4.66675472 L4.4444,4.66675472 L4.4444,36.5851698 Z M65.5556,0.264283019 L4.4444,0.264283019 C2,0.264283019 0,2.24541509 0,4.66675472 L0,47.5911509 C0,50.0124906 2,51.9936226 4.4444,51.9936226 L23.6112,51.9936226 L20.2776,58.5975283 L15.5556,58.5975283 C14.3332,58.5975283 13.3332,59.5880943 13.3332,60.798566 C13.3332,62.009434 14.3332,63 15.5556,63 L54.3888,63 C55.6112,63 56.6112,62.009434 56.6112,60.798566 C56.6112,59.5880943 55.6112,58.5975283 54.3888,58.5975283 L49.6668,58.5975283 L46.3332,51.9936226 L65.5556,51.9936226 C68,51.9936226 70,50.0124906 70,47.5911509 L70,4.66675472 C70,2.24541509 68,0.264283019 65.5556,0.264283019 Z" id="Fill-6" fill="#909CB7"></path>
                </g>
            </g>
        </g>
    </g>
</svg>