<?xml version="1.0" encoding="UTF-8"?>
<svg width="28px" height="32px" viewBox="0 0 28 32" version="1.1" xmlns="http://www.w3.org/2000/svg" xmlns:xlink="http://www.w3.org/1999/xlink">
    <!-- Generator: Sketch 49.3 (51167) - http://www.bohemiancoding.com/sketch -->
    <title>icon21</title>
    <desc>Created with Sketch.</desc>
    <defs></defs>
    <g id="Page-1" stroke="none" stroke-width="1" fill="none" fill-rule="evenodd">
        <g id="学位课程" transform="translate(-571.000000, -10355.000000)" fill="#9B9B9B" fill-rule="nonzero">
            <path d="M596.691465,10355 L573.308535,10355 C572.035845,10355 571,10356.0286 571,10357.2935 L571,10384.7065 C571,10385.9714 572.035845,10387 573.308535,10387 L596.691465,10387 C597.964155,10387 599,10385.9714 599,10384.7065 L599,10357.2935 C599,10356.0286 597.964155,10355 596.691465,10355 Z M596.962124,10384.7065 C596.961982,10384.8549 596.840887,10384.9752 596.691465,10384.9754 L573.308535,10384.9754 C573.159113,10384.9752 573.038018,10384.8549 573.037876,10384.7065 L573.037876,10357.2935 C573.038018,10357.1451 573.159113,10357.0248 573.308535,10357.0246 L596.691465,10357.0246 C596.840887,10357.0248 596.961982,10357.1451 596.962124,10357.2935 L596.962124,10384.7065 Z M584.864695,10372.451 C584.864695,10371.9069 584.408285,10371.4658 583.844226,10371.4658 L578.020469,10371.4658 C577.456447,10371.4658 577,10371.9069 577,10372.451 C577,10372.9951 577.45641,10373.4363 578.020469,10373.4363 L583.844226,10373.4363 C584.408285,10373.4363 584.864695,10372.9951 584.864695,10372.451 Z M578.020469,10368.106 L591.825507,10368.106 C592.389529,10368.106 592.845975,10367.6648 592.845975,10367.1207 C592.845975,10366.5766 592.389566,10366.1355 591.825507,10366.1355 L578.020469,10366.1355 C577.456447,10366.1355 577,10366.5766 577,10367.1207 C577.000037,10367.6648 577.456447,10368.106 578.020469,10368.106 Z M578.020469,10362.9705 L591.825507,10362.9705 C592.389529,10362.9705 592.845975,10362.5293 592.845975,10361.9853 C592.845975,10361.4412 592.389566,10361 591.825507,10361 L578.020469,10361 C577.456447,10361 577,10361.4412 577,10361.9853 C577.000037,10362.5294 577.456447,10362.9705 578.020469,10362.9705 Z M595.468882,10372.895 L591.282424,10373.8822 L588.06658,10371.1127 L587.746698,10375.2615 L584.024626,10377.3585 L588.011777,10378.9345 L588.92659,10383 L591.711912,10379.8259 L596,10380.2415 L593.733868,10376.7032 L595.468882,10372.895 Z M590.84891,10377.7621 L590.042706,10378.68 L589.777627,10377.5038 L588.624619,10377.0477 L589.701885,10376.4411 L589.794578,10375.2413 L590.724348,10376.0423 L591.93515,10375.7565 L591.433908,10376.8582 L592.089626,10377.8823 L590.84891,10377.7621 Z" id="icon21"></path>
        </g>
    </g>
</svg>