<?xml version="1.0" encoding="UTF-8"?>
<svg width="20px" height="19px" viewBox="0 0 20 19" version="1.1" xmlns="http://www.w3.org/2000/svg" xmlns:xlink="http://www.w3.org/1999/xlink">
    <!-- Generator: Sketch 49.3 (51167) - http://www.bohemiancoding.com/sketch -->
    <title>Group 2</title>
    <desc>Created with Sketch.</desc>
    <defs></defs>
    <g id="Page-1" stroke="none" stroke-width="1" fill="none" fill-rule="evenodd">
        <g id="课程章节" transform="translate(-513.000000, -990.000000)">
            <g id="Group-2" transform="translate(513.000000, 990.000000)">
                <rect id="Rectangle-9" fill="#FFFFFF" x="0" y="0" width="20" height="19"></rect>
                <path d="M17.1429711,5.59980469 L11.8805583,0.395214844 C11.7953141,0.31171875 11.7024925,0.241210938 11.6020937,0.181835938 C11.5755733,0.166992188 11.5490528,0.152148437 11.5206381,0.139160156 C11.5035892,0.129882812 11.4846461,0.122460937 11.4675972,0.115039062 C11.2971087,0.0408203125 11.1095713,0 10.9182453,0 L4.38285145,0 C3.62891326,0 3,0.597460938 3,1.3359375 L3,17.6640625 C3,18.4025391 3.62891326,19 4.38285145,19 L16.1844467,19 C16.9383848,19 17.5294118,18.4025391 17.5294118,17.6640625 L17.5294118,6.54052734 C17.5294118,6.18798828 17.3968096,5.85029297 17.1429711,5.59980469 Z M11.6191426,2.0484375 L15.4229312,5.7890625 L11.6191426,5.7890625 L11.6191426,2.0484375 Z M16.1655035,17.6640625 L4.36390828,17.6640625 L4.36390828,1.3359375 L10.2552343,1.3359375 L10.2552343,5.7890625 C10.2552343,6.52753906 10.8841476,7.125 11.6380857,7.125 L16.1655035,7.125 L16.1655035,17.6640625 Z M6.877667,10.6875 L5.61415753,10.6875 L5.61415753,14.25 L6.48554337,14.25 L6.48554337,13.0625 L6.90418744,13.0625 C7.66949153,13.0625 8.33629113,12.6876953 8.33629113,11.843457 C8.33439681,10.9658203 7.67896311,10.6875 6.877667,10.6875 Z M6.86061815,12.3945313 L6.48554337,12.3945313 L6.48554337,11.3554688 L6.83599202,11.3554688 C7.25653041,11.3554688 7.48953141,11.4853516 7.48953141,11.8453125 C7.48953141,12.1922852 7.28494516,12.3945313 6.86061815,12.3945313 Z M9.9995015,10.6875 L8.94815553,10.6875 L8.94815553,14.25 L10.0487537,14.25 C11.1057827,14.25 11.836989,13.6859375 11.836989,12.4501953 C11.836989,11.2144531 11.1057827,10.6875 9.9995015,10.6875 Z M9.9445663,13.5634766 L9.83848455,13.5634766 L9.83848455,11.3740234 L9.9445663,11.3740234 C10.5299103,11.3740234 10.9428714,11.6115234 10.9428714,12.4557617 C10.9428714,13.3 10.5299103,13.5634766 9.9445663,13.5634766 Z M14.8205384,11.3925781 L14.8205384,10.6875 L12.5094716,10.6875 L12.5094716,14.25 L13.3808574,14.25 L13.3808574,12.8955078 L14.6121635,12.8955078 L14.6121635,12.1904297 L13.3808574,12.1904297 L13.3808574,11.3925781 L14.8205384,11.3925781 Z" id="Shape-Copy-2" fill="#9D9D9D" fill-rule="nonzero"></path>
            </g>
        </g>
    </g>
</svg>