<?xml version="1.0" encoding="UTF-8"?>
<svg width="62px" height="62px" viewBox="0 0 62 62" version="1.1" xmlns="http://www.w3.org/2000/svg" xmlns:xlink="http://www.w3.org/1999/xlink">
    <!-- Generator: Sketch 49.3 (51167) - http://www.bohemiancoding.com/sketch -->
    <title>icon7</title>
    <desc>Created with Sketch.</desc>
    <defs></defs>
    <g id="Page-1" stroke="none" stroke-width="1" fill="none" fill-rule="evenodd" fill-opacity="0.8">
        <g id="学位课程" transform="translate(-1087.000000, -607.000000)" fill="#FFFFFF">
            <g id="Group-5" transform="translate(1087.000000, 607.000000)">
                <path d="M31,62 C13.8791728,62 0,48.1208272 0,31 C0,13.8791728 13.8791728,0 31,0 C48.1208272,0 62,13.8791728 62,31 C62,48.1208272 48.1208272,62 31,62 Z M24.9866449,16.7296403 C24.669087,16.5400088 24.3051639,16.4421515 23.935326,16.4469452 C22.8308492,16.461261 21.9470992,17.3682216 21.9614151,18.4726983 L22.2860766,43.5205644 C22.2908541,43.8891547 22.3974056,44.2492543 22.5939644,44.5610976 C23.1829509,45.4955326 24.4179279,45.7755739 25.3523629,45.1865875 L45.600535,32.4239031 C45.8668674,32.2560303 46.0898077,32.0276547 46.2512177,31.7573567 C46.8175293,30.8090081 46.5078271,29.5811335 45.5594786,29.0148219 L24.9866449,16.7296403 Z" id="icon7"></path>
            </g>
        </g>
    </g>
</svg>