<?xml version="1.0" encoding="UTF-8"?>
<svg width="18px" height="18px" viewBox="0 0 18 18" version="1.1" xmlns="http://www.w3.org/2000/svg" xmlns:xlink="http://www.w3.org/1999/xlink">
    <!-- Generator: Sketch 49.3 (51167) - http://www.bohemiancoding.com/sketch -->
    <title>icon20</title>
    <desc>Created with Sketch.</desc>
    <defs></defs>
    <g id="Page-1" stroke="none" stroke-width="1" fill="none" fill-rule="evenodd">
        <g id="学位课程" transform="translate(-980.000000, -8091.000000)" fill="#666666" fill-rule="nonzero">
            <path d="M986.787142,8100 L980.458267,8093.67117 C979.847244,8093.06015 979.847244,8092.06934 980.458267,8091.4583 C981.069269,8090.84728 982.060074,8090.84719 982.671139,8091.4583 L989.000025,8097.78712 L995.328844,8091.45833 C995.939866,8090.84722 996.930607,8090.84722 997.541733,8091.45833 C998.152756,8092.06935 998.152756,8093.06013 997.541733,8093.67121 L991.212921,8100 L997.541733,8106.32875 C998.152756,8106.93985 998.152756,8107.93055 997.541733,8108.54163 C997.236253,8108.84719 996.835796,8109 996.435297,8109 L996.435339,8108.99992 C996.034903,8108.99992 995.634425,8108.8471 995.328861,8108.54165 L989.000037,8102.21287 L982.671156,8108.54173 C982.365614,8108.84727 981.965158,8109 981.56468,8109 L981.564743,8109 C981.164307,8109 980.763809,8108.84719 980.458267,8108.54173 C979.847244,8107.93063 979.847244,8106.93993 980.458267,8106.32885 L986.787142,8100 Z" id="icon20"></path>
        </g>
    </g>
</svg>