<?xml version="1.0" encoding="UTF-8"?>
<svg width="22px" height="19px" viewBox="0 0 22 19" version="1.1" xmlns="http://www.w3.org/2000/svg" xmlns:xlink="http://www.w3.org/1999/xlink">
    <!-- Generator: Sketch 49.3 (51167) - http://www.bohemiancoding.com/sketch -->
    <title>icon10</title>
    <desc>Created with Sketch.</desc>
    <defs></defs>
    <g id="Page-1" stroke="none" stroke-width="1" fill="none" fill-rule="evenodd">
        <g id="学位课程" transform="translate(-560.000000, -2188.000000)" fill="#4A90E2" fill-rule="nonzero">
            <path d="M581.214286,2188 L560.785714,2188 C560.351116,2188 560,2188.36519 560,2188.8172 L560,2201.48387 C560,2201.93589 560.351116,2202.30108 560.785714,2202.30108 L570.116071,2202.30108 L570.116071,2205.16129 L565.892857,2205.16129 C565.676786,2205.16129 565.5,2205.34516 565.5,2205.56989 L565.5,2206.7957 C565.5,2206.90806 565.588393,2207 565.696429,2207 L576.303571,2207 C576.411607,2207 576.5,2206.90806 576.5,2206.7957 L576.5,2205.56989 C576.5,2205.34516 576.323214,2205.16129 576.107143,2205.16129 L571.883929,2205.16129 L571.883929,2202.30108 L581.214286,2202.30108 C581.648884,2202.30108 582,2201.93589 582,2201.48387 L582,2188.8172 C582,2188.36519 581.648884,2188 581.214286,2188 Z M580.232143,2200.46237 L561.767857,2200.46237 L561.767857,2189.83871 L580.232143,2189.83871 L580.232143,2200.46237 Z" id="icon10"></path>
        </g>
    </g>
</svg>