<?xml version="1.0" encoding="UTF-8"?>
<svg width="28px" height="22px" viewBox="0 0 28 22" version="1.1" xmlns="http://www.w3.org/2000/svg" xmlns:xlink="http://www.w3.org/1999/xlink">
    <!-- Generator: Sketch 49.3 (51167) - http://www.bohemiancoding.com/sketch -->
    <title>icon15</title>
    <desc>Created with Sketch.</desc>
    <defs></defs>
    <g id="Page-1" stroke="none" stroke-width="1" fill="none" fill-rule="evenodd">
        <g id="学位课程" transform="translate(-1103.000000, -2509.000000)" fill="#FF5884" fill-rule="nonzero">
            <path d="M1130,2509 L1104,2509 C1103.44688,2509 1103,2509.44688 1103,2510 L1103,2530 C1103,2530.55312 1103.44688,2531 1104,2531 L1130,2531 C1130.55312,2531 1131,2530.55312 1131,2530 L1131,2510 C1131,2509.44688 1130.55312,2509 1130,2509 Z M1128.75,2528.75 L1105.25,2528.75 L1105.25,2511.25 L1128.75,2511.25 L1128.75,2528.75 Z M1108.10703,2526.60469 C1108.20379,2526.7032 1108.36299,2526.7032 1108.45975,2526.60469 L1113.84423,2521.12279 L1117.41515,2524.7615 C1117.51192,2524.86001 1117.67111,2524.86001 1117.76787,2524.7615 L1127.03854,2515.31675 C1127.1353,2515.21823 1127.1353,2515.05616 1127.03854,2514.95764 L1125.88985,2513.78817 C1125.79308,2513.68966 1125.63389,2513.68966 1125.53713,2513.78817 L1117.59307,2521.87913 L1114.02215,2518.24042 C1113.92539,2518.14191 1113.76619,2518.14191 1113.66943,2518.24042 L1106.96146,2525.07293 C1106.8647,2525.17145 1106.8647,2525.33352 1106.96146,2525.43204 L1108.10703,2526.60469 Z" id="icon15"></path>
        </g>
    </g>
</svg>