<?xml version="1.0" encoding="UTF-8"?>
<svg width="44px" height="39px" viewBox="0 0 44 39" version="1.1" xmlns="http://www.w3.org/2000/svg" xmlns:xlink="http://www.w3.org/1999/xlink">
    <!-- Generator: Sketch 49.3 (51167) - http://www.bohemiancoding.com/sketch -->
    <title>icon18</title>
    <desc>Created with Sketch.</desc>
    <defs></defs>
    <g id="Page-1" stroke="none" stroke-width="1" fill="none" fill-rule="evenodd">
        <g id="学位课程" transform="translate(-1105.000000, -2814.000000)" fill="#4A90E2" fill-rule="nonzero">
            <path d="M1147.9,2828.48571 C1148.5072,2828.48571 1149,2827.98651 1149,2827.37143 C1149,2826.75634 1148.5072,2826.25714 1147.9,2826.25714 C1145.41455,2826.25714 1143.39275,2824.43083 1143.39275,2822.18554 L1143.39275,2820.29961 C1143.39275,2818.05489 1145.41455,2816.22857 1147.9,2816.22857 C1148.5072,2816.22857 1149,2815.72937 1149,2815.11429 C1149,2814.4992 1148.5072,2814 1147.9,2814 L1110.17825,2814 C1107.3232,2814 1105,2816.1918 1105,2818.88559 L1105,2823.60013 C1105,2825.11723 1105.737,2826.47443 1106.89035,2827.37143 C1105.737,2828.26843 1105,2829.62619 1105,2831.14329 L1105,2835.85727 C1105,2837.37437 1105.737,2838.73157 1106.89035,2839.62857 C1105.737,2840.52557 1105,2841.88333 1105,2843.40043 L1105,2848.11441 C1105,2850.8082 1107.3232,2853 1110.17825,2853 L1147.9,2853 C1148.5072,2853 1149,2852.5008 1149,2851.88571 C1149,2851.27063 1148.5072,2850.77143 1147.9,2850.77143 C1145.41455,2850.77143 1143.39275,2848.94511 1143.39275,2846.69983 L1143.39275,2844.81446 C1143.39275,2842.56917 1145.41455,2840.74286 1147.9,2840.74286 C1148.5072,2840.74286 1149,2840.24366 1149,2839.62857 C1149,2839.01349 1148.5072,2838.51429 1147.9,2838.51429 C1145.41455,2838.51429 1143.39275,2836.68797 1143.39275,2834.44269 L1143.39275,2832.55731 C1143.39275,2830.31203 1145.41455,2828.48571 1147.9,2828.48571 Z M1142.62319,2838.19196 L1127.88622,2838.19196 C1127.27634,2838.19196 1126.78237,2838.69034 1126.78237,2839.30566 C1126.78237,2839.92098 1127.27634,2840.41935 1127.88622,2840.41935 L1142.62319,2840.41935 C1141.62641,2841.51802 1141.02481,2842.93854 1141.02481,2844.4888 L1141.02481,2846.37318 C1141.02481,2847.92288 1141.62641,2849.34396 1142.62319,2850.44262 L1109.90172,2850.44262 C1108.25367,2850.44262 1106.91304,2849.25152 1106.91304,2847.78701 L1106.91304,2843.07552 C1106.91304,2841.61101 1108.25367,2840.41935 1109.90172,2840.41935 L1112.4323,2840.41935 C1113.04218,2840.41935 1113.53615,2839.92098 1113.53615,2839.30566 C1113.53615,2838.69034 1113.04218,2838.19196 1112.4323,2838.19196 L1109.90172,2838.19196 C1108.25367,2838.19196 1106.91304,2837.00086 1106.91304,2835.53635 L1106.91304,2830.82486 C1106.91304,2829.36035 1108.25367,2828.16869 1109.90172,2828.16869 L1112.4323,2828.16869 C1113.04218,2828.16869 1113.53615,2827.67031 1113.53615,2827.055 C1113.53615,2826.43968 1113.04218,2825.9413 1112.4323,2825.9413 L1109.90172,2825.9413 C1108.25367,2825.9413 1106.91304,2824.7502 1106.91304,2823.28569 L1106.91304,2818.57364 C1106.91304,2817.10913 1108.25367,2815.91803 1109.90172,2815.91803 L1142.62319,2815.91803 C1141.62696,2817.01614 1141.02481,2818.43721 1141.02481,2819.98748 L1141.02481,2821.87241 C1141.02481,2823.42212 1141.62641,2824.8432 1142.62319,2825.94186 L1127.88622,2825.94186 C1127.27634,2825.94186 1126.78237,2826.44024 1126.78237,2827.05555 C1126.78237,2827.67087 1127.27634,2828.16925 1127.88622,2828.16925 L1142.62319,2828.16925 C1141.62641,2829.26791 1141.02481,2830.68843 1141.02481,2832.2387 L1141.02481,2834.12307 C1141.02481,2835.67278 1141.62696,2837.09386 1142.62319,2838.19196 Z M1115.43412,2845.88809 L1120.30435,2843.08805 L1125.17457,2845.88809 C1125.55737,2846.10802 1126.04348,2845.84344 1126.04348,2845.41517 L1126.04348,2823.23754 C1126.04348,2822.01997 1125.0156,2821.03279 1123.74783,2821.03279 L1116.86087,2821.03279 C1115.5931,2821.03279 1114.56522,2822.01997 1114.56522,2823.23754 L1114.56522,2845.41517 C1114.56522,2845.84344 1115.05132,2846.10802 1115.43412,2845.88809 Z M1118.28502,2822.95082 L1122.96135,2822.95082 C1123.60727,2822.95082 1124.13043,2823.44903 1124.13043,2824.06413 L1124.13043,2842.77049 L1120.62319,2840.77155 L1117.11594,2842.77049 L1117.11594,2824.06413 C1117.11594,2823.44958 1117.63969,2822.95082 1118.28502,2822.95082 Z" id="icon18"></path>
        </g>
    </g>
</svg>