<?xml version="1.0" encoding="UTF-8"?>
<svg width="18px" height="18px" viewBox="0 0 18 18" version="1.1" xmlns="http://www.w3.org/2000/svg" xmlns:xlink="http://www.w3.org/1999/xlink">
    <!-- Generator: Sketch 49.3 (51167) - http://www.bohemiancoding.com/sketch -->
    <title>icon10</title>
    <desc>Created with Sketch.</desc>
    <defs></defs>
    <g id="Page-1" stroke="none" stroke-width="1" fill="none" fill-rule="evenodd">
        <g id="学位课程" transform="translate(-608.000000, -1699.000000)" fill="#4A90E2" fill-rule="nonzero">
            <path d="M620.844125,1704.78531 L615.59375,1710.03569 L613.156438,1707.59781 C612.942125,1707.3835 612.593938,1707.3835 612.379625,1707.59781 C612.165313,1707.81212 612.165313,1708.16031 612.379625,1708.37462 L615.138687,1711.13369 C615.15725,1711.16013 615.1685,1711.1905 615.192125,1711.21412 C615.302937,1711.32494 615.448625,1711.37613 615.59375,1711.37219 C615.738875,1711.37556 615.885125,1711.32494 615.995937,1711.21412 C616.019563,1711.1905 616.030813,1711.16013 616.049375,1711.13369 L621.620937,1705.56212 C621.83525,1705.34781 621.83525,1704.99962 621.620937,1704.78531 C621.406062,1704.571 621.058437,1704.571 620.844125,1704.78531 Z M617,1699 C612.029188,1699 608,1703.02919 608,1708 C608,1712.97081 612.029188,1717 617,1717 C621.97025,1717 626,1712.97081 626,1708 C626,1703.02919 621.970812,1699 617,1699 Z M617,1715.875 C612.65075,1715.875 609.125,1712.34925 609.125,1708 C609.125,1703.65075 612.65075,1700.125 617,1700.125 C621.34925,1700.125 624.875,1703.65075 624.875,1708 C624.875,1712.34925 621.34925,1715.875 617,1715.875 Z" id="icon10"></path>
        </g>
    </g>
</svg>