<?xml version="1.0" encoding="UTF-8"?>
<svg width="27px" height="21px" viewBox="0 0 27 21" version="1.1" xmlns="http://www.w3.org/2000/svg" xmlns:xlink="http://www.w3.org/1999/xlink">
    <!-- Generator: Sketch 49.3 (51167) - http://www.bohemiancoding.com/sketch -->
    <title>icon12</title>
    <desc>Created with Sketch.</desc>
    <defs></defs>
    <g id="Page-1" stroke="none" stroke-width="1" fill="none" fill-rule="evenodd">
        <g id="学位课程" transform="translate(-560.000000, -2354.000000)" fill="#FA6240" fill-rule="nonzero">
            <path d="M586.931021,2364.36619 L576.250231,2354.06856 C576.156804,2353.97715 576.006116,2353.97715 575.912689,2354.06856 L568.718828,2361.00442 C568.625401,2361.09584 568.622387,2361.24623 568.715814,2361.33765 L568.718828,2361.3406 L569.924334,2362.50247 L566.3922,2365.90258 C566.298773,2365.994 566.295759,2366.14439 566.389186,2366.23581 L566.3922,2366.23876 L567.582638,2367.38589 L561.883604,2372.90037 L560.244115,2372.90037 C560.111509,2372.90037 560,2373.00653 560,2373.13628 L560,2374.76409 C560,2374.89384 560.108496,2375 560.241101,2375 L570.635583,2375 C570.698872,2375 570.759148,2374.97641 570.804354,2374.93217 L573.097831,2372.70279 L574.315393,2373.87646 C574.40882,2373.96788 574.559508,2373.96788 574.652935,2373.87646 L578.182056,2370.46751 L579.390576,2371.63233 C579.484003,2371.72375 579.634691,2371.72375 579.728118,2371.63233 L586.92198,2364.69647 C587.024448,2364.608 587.024448,2364.46056 586.931021,2364.36619 Z M569.818853,2372.88268 L564.990798,2372.88268 L569.041301,2368.96061 L571.455328,2371.28731 L569.818853,2372.88268 Z M574.484164,2371.0514 L569.318567,2366.07067 L571.386011,2364.0772 L576.551608,2369.05793 L574.484164,2371.0514 Z M579.562361,2368.80727 L571.642182,2361.17251 L576.08146,2356.89363 L584.00164,2364.53133 L579.562361,2368.80727 Z" id="icon12"></path>
        </g>
    </g>
</svg>