<?xml version="1.0" encoding="UTF-8"?>
<svg width="23px" height="27px" viewBox="0 0 23 27" version="1.1" xmlns="http://www.w3.org/2000/svg" xmlns:xlink="http://www.w3.org/1999/xlink">
    <!-- Generator: Sketch 49.3 (51167) - http://www.bohemiancoding.com/sketch -->
    <title>icon13</title>
    <desc>Created with Sketch.</desc>
    <defs></defs>
    <g id="Page-1" stroke="none" stroke-width="1" fill="none" fill-rule="evenodd">
        <g id="学位课程" transform="translate(-1105.000000, -2347.000000)" fill="#14CDBB" fill-rule="nonzero">
            <path d="M1127.83543,2361.16908 L1121.98423,2359.11576 C1121.95681,2359.10653 1121.93243,2359.10345 1121.905,2359.10345 C1121.87757,2359.10345 1121.85014,2359.10653 1121.82577,2359.11576 L1115.97456,2361.16908 C1115.87704,2361.20294 1115.81,2361.29529 1115.81,2361.39996 L1115.81,2369.12991 C1115.81,2369.20688 1115.84352,2369.27768 1115.90447,2369.32386 L1121.75567,2373.94767 C1121.79834,2373.98153 1121.85319,2374 1121.905,2374 C1121.95681,2374 1122.01166,2373.98153 1122.05433,2373.94767 L1127.90553,2369.32386 C1127.96343,2369.27768 1128,2369.20688 1128,2369.12991 L1128,2361.39996 C1128,2361.29529 1127.93295,2361.20294 1127.83543,2361.16908 Z M1126.11055,2368.32644 L1121.905,2371.64807 L1117.69945,2368.32644 L1117.69945,2362.579 L1121.905,2361.10135 L1126.11055,2362.579 L1126.11055,2368.32644 Z M1120.5516,2365.32656 C1120.50555,2365.26157 1120.43186,2365.22443 1120.35203,2365.22443 L1118.99498,2365.22443 C1118.79541,2365.22443 1118.67874,2365.45344 1118.79541,2365.61746 L1121.06126,2368.77718 C1121.15951,2368.91335 1121.35908,2368.91335 1121.45733,2368.77718 L1124.96356,2363.88751 C1125.08023,2363.72349 1124.96356,2363.49448 1124.76399,2363.49448 L1123.40387,2363.49448 C1123.32404,2363.49448 1123.25035,2363.53162 1123.2043,2363.5966 L1121.25469,2366.31378 L1120.5516,2365.32656 Z M1121.88102,2354.0865 C1121.88102,2354.22267 1121.77049,2354.33408 1121.6354,2354.33408 L1109.84562,2354.33408 C1109.71053,2354.33408 1109.6,2354.22267 1109.6,2354.0865 L1109.6,2352.60103 C1109.6,2352.46486 1109.71053,2352.35345 1109.84562,2352.35345 L1121.6354,2352.35345 C1121.77049,2352.35345 1121.88102,2352.46486 1121.88102,2352.60103 L1121.88102,2354.0865 Z M1109.84562,2356.80986 L1115.49489,2356.80986 C1115.62998,2356.80986 1115.74051,2356.92127 1115.74051,2357.05744 L1115.74051,2358.54291 C1115.74051,2358.67908 1115.62998,2358.79049 1115.49489,2358.79049 L1109.84562,2358.79049 C1109.71053,2358.79049 1109.6,2358.67908 1109.6,2358.54291 L1109.6,2357.05744 C1109.6,2356.92127 1109.71053,2356.80986 1109.84562,2356.80986 Z M1115.56432,2371.06856 C1115.69944,2371.06856 1115.81,2371.18022 1115.81,2371.31669 L1115.81,2373.05359 C1115.81,2373.19007 1115.69944,2373.30172 1115.56432,2373.30172 L1105.98273,2373.30172 C1105.43916,2373.30172 1105,2372.85819 1105,2372.30921 L1105,2347.99252 C1105,2347.44353 1105.43916,2347 1105.98273,2347 L1125.63727,2347 C1126.18084,2347 1126.62,2347.44353 1126.62,2347.99252 L1126.62,2358.41396 C1126.62,2358.55043 1126.50944,2358.66209 1126.37432,2358.66209 L1124.65455,2358.66209 C1124.51942,2358.66209 1124.40886,2358.55043 1124.40886,2358.41396 L1124.40886,2349.23317 L1107.21114,2349.23317 L1107.21114,2371.06856 L1115.56432,2371.06856 Z" id="icon13"></path>
        </g>
    </g>
</svg>