<?xml version="1.0" encoding="UTF-8"?>
<svg width="44px" height="43px" viewBox="0 0 44 43" version="1.1" xmlns="http://www.w3.org/2000/svg" xmlns:xlink="http://www.w3.org/1999/xlink">
    <!-- Generator: Sketch 49.3 (51167) - http://www.bohemiancoding.com/sketch -->
    <title>icon19</title>
    <desc>Created with Sketch.</desc>
    <defs></defs>
    <g id="Page-1" stroke="none" stroke-width="1" fill="none" fill-rule="evenodd">
        <g id="学位课程" transform="translate(-1374.000000, -2815.000000)" fill="#4A90E2" fill-rule="nonzero">
            <path d="M1405.00128,2831.93933 C1397.94705,2831.93933 1392.0068,2837.70986 1392.0068,2844.96969 C1392.0068,2852.22956 1397.76149,2858 1405.00128,2858 C1412.24117,2858 1417.99576,2852.22946 1417.99576,2844.96969 C1418.18147,2837.70986 1412.24112,2831.93933 1405.00128,2831.93933 Z M1405.00128,2855.76619 C1399.06088,2855.76619 1394.23447,2850.92639 1394.23447,2844.96969 C1394.23447,2839.01298 1399.06093,2834.17323 1405.00128,2834.17323 C1410.94168,2834.17323 1415.76809,2839.01303 1415.76809,2844.96969 C1415.76809,2850.92639 1410.94163,2855.76619 1405.00128,2855.76619 Z M1381.05423,2824.12125 L1399.6178,2824.12125 L1399.6178,2827.09958 L1381.05423,2827.09958 L1381.05423,2824.12125 Z M1381.05423,2831.75316 L1395.90508,2831.75316 L1395.90508,2834.73154 L1381.05423,2834.73154 L1381.05423,2831.75316 Z M1381.05423,2840.50207 L1388.47953,2840.50207 L1388.47953,2843.48035 L1381.05423,2843.48035 L1381.05423,2840.50207 Z M1390.15039,2854.2771 L1377.15585,2854.2771 L1377.15585,2817.97833 L1407.04325,2817.97833 L1407.04325,2828.4027 C1407.78572,2828.4027 1409.45638,2828.58867 1410.199,2828.58867 L1410.199,2816.48934 C1410.199,2815.74452 1409.45628,2815 1408.71381,2815 L1375.48525,2815 C1374.74248,2815 1374,2815.74452 1374,2816.48934 L1374,2855.95241 C1374,2856.69698 1374.74248,2857.44145 1375.48525,2857.44145 L1392.0068,2857.44145 C1391.26422,2856.51071 1390.70721,2855.02167 1390.15039,2854.2771 Z M1412.42658,2842.54971 C1412.24117,2841.99141 1411.86981,2841.80514 1411.31274,2841.61898 L1407.78572,2841.06067 L1406.11516,2837.89618 C1405.7438,2836.96544 1404.25885,2836.96544 1403.70174,2837.89618 L1402.03118,2841.06067 L1398.50391,2841.61898 C1397.94714,2841.61898 1397.57573,2841.99131 1397.39003,2842.54971 C1397.20467,2843.10826 1397.39003,2843.4805 1397.76139,2843.85278 L1400.36018,2846.27281 L1399.98906,2849.99575 C1399.98906,2850.55406 1400.17477,2850.92649 1400.54588,2851.29882 C1400.91719,2851.67091 1401.47406,2851.67091 1402.03108,2851.48475 L1405.18684,2849.80954 L1408.34254,2851.48475 C1408.52815,2851.67091 1408.71381,2851.67091 1408.89951,2851.67091 C1409.27082,2851.67091 1409.45628,2851.48475 1409.64204,2851.48475 C1410.01335,2851.11266 1410.199,2850.74018 1410.199,2850.18187 L1409.64204,2846.64495 L1412.24107,2844.22517 C1412.42658,2843.66662 1412.42658,2843.10826 1412.42658,2842.54971 Z M1407.0433,2845.1559 C1406.67194,2845.52804 1406.67194,2845.90047 1406.67194,2846.27281 L1406.85759,2847.94806 L1405.5581,2847.01733 C1405.37244,2846.83111 1405.18698,2846.83111 1405.00133,2846.83111 C1404.81562,2846.83111 1404.63002,2846.83111 1404.44436,2847.01733 L1402.95936,2847.76185 L1403.14506,2846.27281 C1403.14506,2845.90047 1403.14506,2845.34207 1402.7737,2845.1559 L1401.65987,2844.03895 L1403.33072,2843.85278 C1403.70179,2843.85278 1404.07324,2843.48045 1404.2589,2843.10826 L1405.00143,2841.61898 L1405.74395,2843.10826 C1405.92966,2843.48035 1406.30092,2843.66657 1406.67213,2843.85278 L1408.34279,2844.03895 L1407.0433,2845.1559 Z" id="icon19"></path>
        </g>
    </g>
</svg>