<?xml version="1.0" encoding="UTF-8"?>
<svg width="28px" height="22px" viewBox="0 0 28 22" version="1.1" xmlns="http://www.w3.org/2000/svg" xmlns:xlink="http://www.w3.org/1999/xlink">
    <!-- Generator: Sketch 49.3 (51167) - http://www.bohemiancoding.com/sketch -->
    <title>icon11</title>
    <desc>Created with Sketch.</desc>
    <defs></defs>
    <g id="Page-1" stroke="none" stroke-width="1" fill="none" fill-rule="evenodd">
        <g id="学位课程" transform="translate(-1103.000000, -2187.000000)" fill="#FFAA48" fill-rule="nonzero">
            <path d="M1130,2189 L1125,2189 L1125,2187.25 C1125,2187.1125 1124.8875,2187 1124.75,2187 L1123,2187 C1122.8625,2187 1122.75,2187.1125 1122.75,2187.25 L1122.75,2189 L1118.125,2189 L1118.125,2187.25 C1118.125,2187.1125 1118.0125,2187 1117.875,2187 L1116.125,2187 C1115.9875,2187 1115.875,2187.1125 1115.875,2187.25 L1115.875,2189 L1111.25,2189 L1111.25,2187.25 C1111.25,2187.1125 1111.1375,2187 1111,2187 L1109.25,2187 C1109.1125,2187 1109,2187.1125 1109,2187.25 L1109,2189 L1104,2189 C1103.44688,2189 1103,2189.44688 1103,2190 L1103,2208 C1103,2208.55312 1103.44688,2209 1104,2209 L1130,2209 C1130.55312,2209 1131,2208.55312 1131,2208 L1131,2190 C1131,2189.44688 1130.55312,2189 1130,2189 Z M1128.75,2206.75 L1105.25,2206.75 L1105.25,2191.25 L1109,2191.25 L1109,2193 C1109,2193.1375 1109.1125,2193.25 1109.25,2193.25 L1111,2193.25 C1111.1375,2193.25 1111.25,2193.1375 1111.25,2193 L1111.25,2191.25 L1115.875,2191.25 L1115.875,2193 C1115.875,2193.1375 1115.9875,2193.25 1116.125,2193.25 L1117.875,2193.25 C1118.0125,2193.25 1118.125,2193.1375 1118.125,2193 L1118.125,2191.25 L1122.75,2191.25 L1122.75,2193 C1122.75,2193.1375 1122.8625,2193.25 1123,2193.25 L1124.75,2193.25 C1124.8875,2193.25 1125,2193.1375 1125,2193 L1125,2191.25 L1128.75,2191.25 L1128.75,2206.75 Z M1113.8509,2197.56328 L1108.14795,2197.56328 C1108.01158,2197.56328 1107.9,2197.6748 1107.9,2197.8111 L1107.9,2199.29803 C1107.9,2199.43433 1108.01158,2199.54585 1108.14795,2199.54585 L1113.8509,2199.54585 C1113.98728,2199.54585 1114.09886,2199.43433 1114.09886,2199.29803 L1114.09886,2197.8111 C1114.09886,2197.6748 1113.98728,2197.56328 1113.8509,2197.56328 Z M1113.8509,2201.77624 L1108.14795,2201.77624 C1108.01158,2201.77624 1107.9,2201.88776 1107.9,2202.02406 L1107.9,2203.51099 C1107.9,2203.64729 1108.01158,2203.75881 1108.14795,2203.75881 L1113.8509,2203.75881 C1113.98728,2203.75881 1114.09886,2203.64729 1114.09886,2203.51099 L1114.09886,2202.02406 C1114.09886,2201.88776 1113.98728,2201.77624 1113.8509,2201.77624 Z M1123.40334,2196.28081 L1120.19233,2200.73229 L1118.55583,2198.46783 C1118.46285,2198.33772 1118.31408,2198.26338 1118.15601,2198.26338 L1116.45442,2198.26338 C1116.25296,2198.26338 1116.13518,2198.49261 1116.25296,2198.65679 L1119.78941,2203.55745 C1119.98777,2203.83006 1120.3907,2203.83006 1120.58906,2203.55745 L1125.70312,2196.47287 C1125.82089,2196.30869 1125.70312,2196.07945 1125.50165,2196.07945 L1123.80007,2196.07945 C1123.6451,2196.07636 1123.49632,2196.1538 1123.40334,2196.28081 Z" id="icon11"></path>
        </g>
    </g>
</svg>