<?xml version="1.0" encoding="UTF-8"?>
<svg width="50px" height="46px" viewBox="0 0 50 46" version="1.1" xmlns="http://www.w3.org/2000/svg" xmlns:xlink="http://www.w3.org/1999/xlink">
    <!-- Generator: Sketch 49.3 (51167) - http://www.bohemiancoding.com/sketch -->
    <title>icon16</title>
    <desc>Created with Sketch.</desc>
    <defs></defs>
    <g id="Page-1" stroke="none" stroke-width="1" fill="none" fill-rule="evenodd">
        <g id="学位课程" transform="translate(-597.000000, -2813.000000)" fill="#4A90E2" fill-rule="nonzero">
            <path d="M646.068332,2838.04723 C645.49189,2837.74872 644.793562,2837.77374 644.245029,2838.11562 L636.300392,2843.05697 L636.300392,2841.58936 C636.300392,2839.70653 634.699998,2838.17394 632.733856,2838.17394 L602.418388,2838.17394 C600.452246,2838.17394 598.851852,2839.70653 598.851852,2841.58936 L598.851852,2855.25106 C598.851852,2857.1339 600.452246,2858.66648 602.418388,2858.66648 L632.733856,2858.66648 C634.699998,2858.66648 636.300392,2857.1339 636.300392,2855.25106 L636.300392,2853.78345 L644.245029,2858.7248 C644.539358,2858.90821 644.877198,2859 645.216732,2859 C645.509277,2859 645.801822,2858.93161 646.068332,2858.7932 C646.64299,2858.49469 647,2857.91765 647,2857.29229 L647,2839.54814 C647,2838.92277 646.64299,2838.34574 646.068332,2838.04723 Z M602.418388,2855.25106 L602.418388,2841.58936 L632.733856,2841.58936 L632.737333,2855.25106 L602.418388,2855.25106 Z M643.433464,2854.14702 L636.300392,2849.71099 L636.300392,2847.12944 L643.433464,2842.6934 L643.433464,2854.14702 Z M609.5,2846.12 C610.266759,2846.12 610.888889,2846.73815 610.888889,2847.5 C610.888889,2848.26185 610.266759,2848.88 609.5,2848.88 L606.722222,2848.88 C605.955463,2848.88 605.333333,2848.26185 605.333333,2847.5 C605.333333,2846.73815 605.955463,2846.12 606.722222,2846.12 L609.5,2846.12 Z M618.759259,2846.12 C619.526019,2846.12 620.148148,2846.73815 620.148148,2847.5 C620.148148,2848.26185 619.526019,2848.88 618.759259,2848.88 L615.981481,2848.88 C615.214722,2848.88 614.592593,2848.26185 614.592593,2847.5 C614.592593,2846.73815 615.214722,2846.12 615.981481,2846.12 L618.759259,2846.12 Z M628.018519,2846.12 C628.785278,2846.12 629.407407,2846.73815 629.407407,2847.5 C629.407407,2848.26185 628.785278,2848.88 628.018519,2848.88 L625.240741,2848.88 C624.473981,2848.88 623.851852,2848.26185 623.851852,2847.5 C623.851852,2846.73815 624.473981,2846.12 625.240741,2846.12 L628.018519,2846.12 Z M606.718775,2835.08 C601.360505,2835.08 597,2830.74573 597,2825.41824 C597,2820.0926 601.360505,2815.76 606.718775,2815.76 C612.08226,2815.76 616.444444,2820.0926 616.444444,2825.41824 C616.444444,2830.74573 612.082172,2835.08 606.718775,2835.08 Z M606.718775,2819.27273 C603.309457,2819.27273 600.535354,2822.02908 600.535353,2825.41824 C600.535353,2828.80925 603.309457,2831.56727 606.718775,2831.56727 C610.13154,2831.56727 612.909091,2828.80917 612.909091,2825.41824 C612.909091,2822.02899 610.13154,2819.27273 606.718775,2819.27273 Z M629.866854,2835.08 C623.486843,2835.08 618.296296,2830.12559 618.296296,2824.0366 C618.296296,2817.9511 623.486843,2813 629.866854,2813 C636.250336,2813 641.444444,2817.9511 641.444444,2824.03669 C641.444444,2830.12559 636.250336,2835.08 629.866854,2835.08 Z M629.866854,2816.39692 C625.450081,2816.39692 621.857564,2819.82374 621.857564,2824.03669 C621.857564,2828.25295 625.450081,2831.68308 629.866854,2831.68308 C634.287188,2831.68308 637.883177,2828.25295 637.883177,2824.03669 C637.883177,2819.82374 634.287188,2816.39692 629.866854,2816.39692 Z" id="icon16"></path>
        </g>
    </g>
</svg>