<?xml version="1.0" encoding="UTF-8"?>
<svg width="20px" height="25px" viewBox="0 0 20 25" version="1.1" xmlns="http://www.w3.org/2000/svg" xmlns:xlink="http://www.w3.org/1999/xlink">
    <!-- Generator: Sketch 49.3 (51167) - http://www.bohemiancoding.com/sketch -->
    <title>icon13</title>
    <desc>Created with Sketch.</desc>
    <defs></defs>
    <g id="Page-1" stroke="none" stroke-width="1" fill="none" fill-rule="evenodd">
        <g id="学位课程" transform="translate(-560.000000, -2507.000000)" fill="#7E24D3" fill-rule="nonzero">
            <path d="M579.090909,2507 L560.909091,2507 C560.40625,2507 560,2507.399 560,2507.89286 L560,2531.10714 C560,2531.601 560.40625,2532 560.909091,2532 L579.090909,2532 C579.59375,2532 580,2531.601 580,2531.10714 L580,2507.89286 C580,2507.399 579.59375,2507 579.090909,2507 Z M577.954545,2529.99107 L562.045455,2529.99107 L562.045455,2510.60212 L569.440341,2516.29688 C569.769886,2516.55078 570.232955,2516.55078 570.5625,2516.29688 L577.954545,2510.60212 L577.954545,2529.99107 Z M577.954545,2509.02846 L577.053977,2509.02846 L570,2514.45815 L562.946023,2509.02846 L562.045455,2509.02846 L562.045455,2509.00893 L577.954545,2509.00893 L577.954545,2509.02846 Z M567.686083,2518.15716 L569.639329,2522.10066 L571.598023,2518.15994 C571.638886,2518.08218 571.717887,2518.03219 571.802337,2518.03219 L573.104501,2518.03219 C573.229814,2518.03219 573.333333,2518.13772 573.333333,2518.26547 C573.333333,2518.30435 573.325161,2518.34323 573.306091,2518.37655 L570.930596,2522.8477 L572.181,2522.8477 C572.306313,2522.8477 572.409832,2522.95323 572.409832,2523.08098 L572.409832,2523.77804 C572.409832,2523.90578 572.306313,2524.01131 572.181,2524.01131 L570.456587,2524.01131 L570.456587,2524.80557 L572.181,2524.80557 C572.306313,2524.80557 572.409832,2524.9111 572.409832,2525.03885 L572.409832,2525.73312 C572.415281,2525.86365 572.314486,2525.96918 572.186449,2525.96918 L570.462035,2525.96918 L570.462035,2527.35496 C570.462035,2527.4827 570.358516,2527.58824 570.233203,2527.58824 L569.042731,2527.58824 C568.917418,2527.58824 568.813899,2527.4827 568.813899,2527.35496 L568.813899,2525.96918 L567.097658,2525.96918 C566.972345,2525.96918 566.868826,2525.86365 566.868826,2525.7359 L566.868826,2525.03885 C566.868826,2524.9111 566.972345,2524.80557 567.097658,2524.80557 L568.813899,2524.80557 L568.813899,2524.01131 L567.097658,2524.01131 C566.972345,2524.01131 566.868826,2523.90578 566.868826,2523.77804 L566.868826,2523.08098 C566.868826,2522.95323 566.972345,2522.8477 567.097658,2522.8477 L568.334441,2522.8477 L565.953497,2518.37377 C565.893565,2518.25991 565.934428,2518.11828 566.04612,2518.05718 C566.081534,2518.04052 566.116949,2518.02941 566.152363,2518.02941 L567.481769,2518.02941 C567.568943,2518.02941 567.647945,2518.0794 567.686083,2518.15716 Z" id="icon13"></path>
        </g>
    </g>
</svg>