<?xml version="1.0" encoding="UTF-8"?>
<svg width="20px" height="19px" viewBox="0 0 20 19" version="1.1" xmlns="http://www.w3.org/2000/svg" xmlns:xlink="http://www.w3.org/1999/xlink">
    <!-- Generator: Sketch 49.3 (51167) - http://www.bohemiancoding.com/sketch -->
    <title>icon5</title>
    <desc>Created with Sketch.</desc>
    <defs></defs>
    <g id="Page-1" stroke="none" stroke-width="1" fill="none" fill-rule="evenodd">
        <g id="学位课程" transform="translate(-445.000000, -851.000000)" fill="#FFFFFF" fill-rule="nonzero">
            <path d="M455.04382,851 C449.532984,851 445,854.852576 445,859.66827 C445,862.557599 446.688743,865.184383 449.266387,866.760371 L449.266387,869.387156 C449.266387,869.737352 449.532984,870 449.799685,870 C449.888586,870 449.977486,870 450.066308,869.912528 L452.821753,868.073815 C453.532774,868.248862 454.243873,868.248862 454.954894,868.248862 C460.465704,868.248862 464.998714,864.396286 464.998714,859.66827 C465.087615,854.852576 460.554527,851 455.04382,851 Z M455.04382,866.334605 C454.468415,866.334605 453.898218,866.254238 453.319376,866.172871 L453.073012,866.091965 C452.90883,866.091965 452.74457,866.091965 452.580414,866.172871 L452.534193,866.203217 C452.42407,866.275478 452.243926,866.393757 452.133829,866.46607 L451.302477,867.012014 C451.19238,867.084327 451.102308,867.036845 451.102308,866.906509 L451.102308,866.409867 C451.102308,866.27953 451.102308,866.066237 451.102308,865.9359 L451.102308,865.768421 C451.102308,865.525704 450.938048,865.283065 450.773866,865.202185 L450.445346,865.12128 C448.39246,863.907904 447.078588,861.88555 447.078588,859.701591 C447.078588,856.129876 450.609606,853.068501 455.04382,853.068501 C459.395931,853.068501 463.009027,856.061463 463.009027,859.701591 C463.009001,863.341617 459.395905,866.334605 455.04382,866.334605 Z M450.466616,858.652778 C449.780949,858.652778 449.266667,859.161644 449.266667,859.84029 C449.266667,860.434071 449.780949,861.027778 450.466616,861.027778 C451.066654,861.027778 451.666667,860.518837 451.666667,859.84029 C451.666667,859.246484 451.152385,858.652778 450.466616,858.652778 Z M455.00005,858.652778 C454.314282,858.652778 453.8,859.161644 453.8,859.84029 C453.8,860.434071 454.314282,861.027778 455.00005,861.027778 C455.599987,861.027778 456.2,860.518837 456.2,859.84029 C456.2,859.246484 455.685718,858.652778 455.00005,858.652778 Z M459.533283,858.652778 C458.847615,858.652778 458.333333,859.161644 458.333333,859.84029 C458.333333,860.434071 458.847615,861.027778 459.533283,861.027778 C460.133321,861.027778 460.733333,860.518837 460.733333,859.84029 C460.733333,859.246484 460.219051,858.652778 459.533283,858.652778 Z" id="icon5"></path>
        </g>
    </g>
</svg>