<?xml version="1.0" encoding="UTF-8"?>
<svg width="50px" height="50px" viewBox="0 0 50 50" version="1.1" xmlns="http://www.w3.org/2000/svg" xmlns:xlink="http://www.w3.org/1999/xlink">
    <!-- Generator: Sketch 49.3 (51167) - http://www.bohemiancoding.com/sketch -->
    <title>Shape</title>
    <desc>Created with Sketch.</desc>
    <defs></defs>
    <g id="Page-1" stroke="none" stroke-width="1" fill="none" fill-rule="evenodd">
        <g id="学位课程" transform="translate(-848.000000, -2811.000000)" fill="#4A90E2" fill-rule="nonzero">
            <path d="M896.583471,2827.81643 L877.443323,2827.81643 C876.658035,2827.81643 876.026823,2828.44841 876.026823,2829.22356 L876.026823,2844.70692 C876.026823,2845.48701 876.663005,2846.11405 877.443323,2846.11405 L880.46519,2846.11405 L881.946302,2851.51052 L887.413496,2846.11899 L896.583471,2846.11899 C897.368759,2846.11899 897.999971,2845.48701 897.999971,2844.71186 L897.999971,2829.22356 C898.004941,2828.44841 897.368759,2827.81643 896.583471,2827.81643 Z M895.14709,2842.54439 C895.14709,2843.1813 894.625222,2843.34423 893.984069,2843.34423 L886.190833,2843.34423 L883.392624,2846.11405 L882.647097,2843.35904 L880.042725,2843.34917 C879.401572,2843.34917 878.879704,2843.18623 878.879704,2842.54932 L878.879704,2831.39103 C878.879704,2830.75412 879.401572,2830.59119 880.042725,2830.59119 L893.984069,2830.59119 C894.625222,2830.59119 895.14709,2830.75412 895.14709,2831.39103 L895.14709,2842.54439 Z M883.924432,2837.09855 C883.924432,2837.87864 883.28825,2838.50568 882.507932,2838.50568 C881.722645,2838.50568 881.091432,2837.8737 881.091432,2837.09855 C881.091432,2836.31846 881.727615,2835.69142 882.507932,2835.69142 C883.28825,2835.69142 883.924432,2836.32339 883.924432,2837.09855 Z M888.467173,2837.09855 C888.467173,2837.87864 887.830991,2838.50568 887.050673,2838.50568 C886.270356,2838.50568 885.634173,2837.8737 885.634173,2837.09855 C885.634173,2836.31846 886.270356,2835.69142 887.050673,2835.69142 C887.830991,2835.69142 888.467173,2836.32339 888.467173,2837.09855 Z M893.009914,2837.09855 C893.009914,2837.87864 892.373732,2838.50568 891.593414,2838.50568 C890.813097,2838.50568 890.176914,2837.8737 890.176914,2837.09855 C890.176914,2836.31846 890.813097,2835.69142 891.593414,2835.69142 C892.373732,2835.69142 893.009914,2836.32339 893.009914,2837.09855 Z M877.910519,2823.60492 L858.318085,2823.60492 C857.532798,2823.60492 856.901585,2822.8742 856.901585,2821.97561 C856.901585,2821.07702 857.537768,2820.3463 858.318085,2820.3463 L877.91549,2820.3463 C878.700777,2820.3463 879.33199,2821.07702 879.33199,2821.97561 C879.33199,2822.87913 878.695807,2823.60492 877.910519,2823.60492 Z M858.318085,2829.03594 L866.747504,2829.03594 L866.747504,2832.29456 L858.318085,2832.29456 C857.532798,2832.29456 856.901585,2831.56384 856.901585,2830.66525 C856.896615,2829.76666 857.532798,2829.03594 858.318085,2829.03594 Z M888.332979,2855.07031 C888.332979,2855.07524 888.332979,2855.08512 888.332979,2855.09006 L888.332979,2859.59287 C888.332979,2860.37296 887.597393,2861 886.817075,2861 L849.4165,2861 C848.631212,2861 848,2860.36803 848,2859.59287 L848,2812.40713 C848,2811.62704 848.636183,2811 849.4165,2811 L886.817075,2811 C887.602363,2811 888.332979,2811.63197 888.332979,2812.40713 L888.332979,2823.13094 L888.328008,2823.13094 C888.293217,2823.88141 887.473138,2824.48376 886.707731,2824.48376 C885.942324,2824.48376 885.420455,2823.88141 885.385664,2823.13094 L885.330992,2823.13094 L885.231589,2815.32013 C885.231589,2814.6536 884.833975,2814.1105 884.163001,2814.1105 L852.463218,2814.1105 C851.687871,2814.00188 851.320078,2814.52523 851.046718,2815.567 L851.09642,2856.63049 C851.09642,2857.29703 851.543736,2857.84013 852.214709,2857.84013 L884.013896,2857.84013 C884.684869,2857.84013 885.231589,2857.29703 885.231589,2856.63049 L885.231589,2854.74445 C885.231589,2854.73951 885.231589,2854.72963 885.231589,2854.7247 C885.231589,2853.9446 885.867771,2853.6533 886.658029,2853.6533 C887.443317,2853.6533 888.332979,2854.29021 888.332979,2855.07031 Z" id="Shape"></path>
        </g>
    </g>
</svg>