<?xml version="1.0" encoding="UTF-8"?>
<svg width="24px" height="19px" viewBox="0 0 24 19" version="1.1" xmlns="http://www.w3.org/2000/svg" xmlns:xlink="http://www.w3.org/1999/xlink">
    <!-- Generator: Sketch 49.3 (51167) - http://www.bohemiancoding.com/sketch -->
    <title>icon6</title>
    <desc>Created with Sketch.</desc>
    <defs></defs>
    <g id="Page-1" stroke="none" stroke-width="1" fill="none" fill-rule="evenodd">
        <g id="学位课程" transform="translate(-442.000000, -909.000000)" fill="#FFFFFF" fill-rule="nonzero">
            <path d="M465.899188,913.183547 L465.900838,913.184097 L462.525887,920.635304 C462.359331,921.002252 461.999329,921.263722 461.574772,921.291563 L461.574772,921.291826 L451.855278,921.93548 L452.416807,923.52951 L463.000024,923.52951 C464.242606,923.52951 465.250049,924.53033 465.250049,925.764755 C465.250049,926.999157 464.242606,928 463.000024,928 C461.757491,928 460.75,926.999157 460.75,925.764755 L450.25,925.764755 C450.25,926.999157 449.242558,928 448,928 C446.757418,928 445.75,926.999157 445.75,925.764755 C445.75,924.53033 446.757418,923.52951 448,923.52951 L450.033086,923.52951 L445.701754,911.235317 L443.125,911.235317 C442.503697,911.235317 442,910.734907 442,910.117658 C442,909.500434 442.503721,909 443.125,909 L446.499976,909 C446.990835,909 447.404058,909.314448 447.557557,909.749921 L447.56178,909.748414 L448.216865,911.607885 L464.875024,911.607885 C465.496303,911.607885 466,912.108271 466,912.725544 C466,912.889142 465.962796,913.043436 465.899188,913.183547 Z M448.927835,913.871795 L451.003552,919.717949 L460.651694,919.083818 L463.030928,913.871795 L448.927835,913.871795 Z" id="icon6"></path>
        </g>
    </g>
</svg>