<?xml version="1.0" encoding="UTF-8"?>
<svg width="20px" height="19px" viewBox="0 0 20 19" version="1.1" xmlns="http://www.w3.org/2000/svg" xmlns:xlink="http://www.w3.org/1999/xlink">
    <!-- Generator: Sketch 49.3 (51167) - http://www.bohemiancoding.com/sketch -->
    <title>播放 copy</title>
    <desc>Created with Sketch.</desc>
    <defs></defs>
    <g id="Page-1" stroke="none" stroke-width="1" fill="none" fill-rule="evenodd">
        <g id="课程章节" transform="translate(-513.000000, -1085.000000)" fill="#9D9D9D">
            <path d="M521.172132,1098.86699 C521.117181,1098.86699 521.062204,1098.85417 521.011375,1098.82954 C520.890561,1098.77191 520.815391,1098.65467 520.815391,1098.5276 L520.815391,1090.77191 C520.815391,1090.64583 520.889006,1090.53003 521.007228,1090.47142 C521.124414,1090.4128 521.267026,1090.42168 521.375917,1090.49359 L527.090189,1094.26995 C527.185083,1094.33252 527.242132,1094.43498 527.243688,1094.54433 C527.245268,1094.65418 527.190785,1094.75715 527.097965,1094.82215 L521.383718,1098.80048 C521.322076,1098.84366 521.248067,1098.86692 521.172157,1098.86699 L521.172132,1098.86699 Z M523,1102.64284 C518.273524,1102.64284 514.428568,1098.99014 514.428568,1094.5 C514.428568,1090.00986 518.273524,1086.35713 523,1086.35713 C527.726476,1086.35713 531.571407,1090.00986 531.571407,1094.5 C531.571407,1098.99014 527.726476,1102.64284 523,1102.64284 L523,1102.64284 Z M523,1085 C517.477047,1085 513,1089.25319 513,1094.5 C513,1099.74681 517.477047,1104 523,1104 C528.523447,1104 533,1099.74681 533,1094.5 C533,1089.25319 528.523447,1085 523,1085 L523,1085 Z" id="播放-copy"></path>
        </g>
    </g>
</svg>