<?xml version="1.0" encoding="UTF-8"?>
<svg width="200px" height="125px" viewBox="0 0 200 125" version="1.1" xmlns="http://www.w3.org/2000/svg" xmlns:xlink="http://www.w3.org/1999/xlink">
    <!-- Generator: Sketch 49.3 (51167) - http://www.bohemiancoding.com/sketch -->
    <title>空白-3</title>
    <desc>Created with Sketch.</desc>
    <defs></defs>
    <g id="Page-1" stroke="none" stroke-width="1" fill="none" fill-rule="evenodd">
        <g id="Artboard" transform="translate(-496.000000, -366.000000)" fill-rule="nonzero">
            <g id="空白-3" transform="translate(496.000000, 366.000000)">
                <path d="M19.3197651,100.31492 L15.4312869,100.31492 L15.4312869,96.4333735 C15.4312869,95.888595 14.9992338,95.4573121 14.4534827,95.4573123 C13.9077316,95.4573125 13.4756782,95.8885953 13.4756782,96.4333735 L13.4756782,100.31492 L9.5872,100.31492 C9.04144867,100.31492 8.60939556,100.746203 8.60939556,101.290982 C8.60939556,101.83576 9.04144867,102.267043 9.5872,102.267043 L13.4756782,102.267043 L13.4756782,106.14859 C13.4756782,106.693369 13.9077313,107.124652 14.4534827,107.124652 C14.999234,107.124652 15.4312871,106.693369 15.4312869,106.14859 L15.4312869,102.267043 L19.3197651,102.267043 C19.8655164,102.267043 20.2975696,101.83576 20.2975696,101.290982 C20.2975696,100.746203 19.8655164,100.31492 19.3197651,100.31492 Z M188.320753,25.3170818 L184.705151,25.3170818 L184.705151,21.7079243 C184.705151,21.1631458 184.273098,20.7318628 183.727346,20.7318628 C183.181595,20.7318628 182.749542,21.1631458 182.749542,21.7079243 L182.749542,25.3170818 L179.13394,25.3170818 C178.588188,25.3170818 178.156135,25.7483648 178.156135,26.2931433 C178.156135,26.8379218 178.588188,27.2692048 179.13394,27.2692048 L182.749542,27.2692048 L182.749542,30.8783621 C182.749542,31.4231406 183.181595,31.8544235 183.727346,31.8544235 C184.273098,31.8544235 184.705151,31.4231406 184.705151,30.8783621 L184.705151,27.2919038 L188.320753,27.2919038 C188.866505,27.2919038 189.298558,26.8606208 189.298558,26.3158423 C189.321297,25.7483648 188.866505,25.3170818 188.320753,25.3170818 Z M149.913505,86.8089536 C149.731588,86.5365644 149.458712,86.3322723 149.163097,86.241476 L144.54695,89.2377578 C144.524211,89.5555452 144.59243,89.8733326 144.774347,90.1457219 L148.799263,96.3425772 L153.938421,93.0285081 L149.913505,86.8089536 Z" id="Shape" fill="#01B4E4"></path>
                <path d="M115.527943,73.8120111 C121.196617,82.5291071 133.093233,84.864665 142.099778,79.0286255 C151.106324,73.1925861 153.812203,61.3949387 148.14353,52.6778426 C144.476541,47.0388701 137.979855,43.8423194 131.100712,44.2923004 C124.221568,44.7422814 118.005073,48.7704312 114.792918,54.8593847 C111.580764,60.9483383 111.860954,68.1730386 115.527943,73.8120111 Z" id="Shape" fill="#01B4E4"></path>
                <path d="M161.897294,97.6364261 C161.442502,96.955453 160.532916,96.7511612 159.850727,97.2051432 L152.323907,102.085451 C151.641718,102.539433 151.437061,103.447397 151.891854,104.12837 L163.102495,121.379689 C163.557288,122.060662 164.466873,122.264954 165.149062,121.810972 L172.675882,116.930664 C173.358072,116.476682 173.562728,115.568718 173.107936,114.887745 L161.897294,97.6364261 Z" id="Shape" fill="#01B4E4"></path>
                <path d="M25.3002898,16.7368206 C25.3002898,18.1534303 26.4507295,19.3018194 27.8698689,19.3018194 C29.2890082,19.3018194 30.439448,18.1534303 30.439448,16.7368206 C30.439448,15.3202109 29.2890082,14.1718218 27.8698689,14.1718218 C26.4507295,14.1718218 25.3002898,15.3202109 25.3002898,16.7368206 Z" id="Shape" fill="#1A3E63"></path>
                <path d="M188.889244,86.8770511 C187.024594,86.8770511 185.501038,85.3562111 185.501038,83.4948844 C185.501038,81.6335578 187.024594,80.112718 188.889244,80.112718 C190.753894,80.112718 192.27745,81.633558 192.27745,83.4948844 C192.27745,84.039663 192.709503,84.4709459 193.255255,84.4709459 C193.801006,84.4709459 194.233059,84.039663 194.233059,83.4948844 C194.233059,80.544001 191.822658,78.137896 188.866505,78.137896 C185.910352,78.137896 183.49995,80.544001 183.49995,83.4948844 C183.49995,86.4457679 185.910352,88.8518728 188.866505,88.8518731 C189.412256,88.8518731 189.844309,88.4205901 189.844309,87.8758116 C189.844309,87.3310331 189.434995,86.8770511 188.889244,86.8770511 Z M154.165817,103.85598 C154.00664,103.628989 153.711025,103.560892 153.483628,103.719786 C153.256232,103.85598 153.188013,104.173768 153.34719,104.400759 L155.575675,107.805625 C155.666633,107.941819 155.825811,108.032616 155.984988,108.032616 C156.075947,108.032616 156.166905,108.009917 156.257864,107.941819 C156.48526,107.805625 156.553479,107.487837 156.394302,107.260846 L154.165817,103.85598 Z M198.894685,122.378449 L190.913072,122.378449 C190.367321,122.378449 189.935268,122.809732 189.935268,123.354511 C189.935268,123.899289 190.367321,124.330572 190.913072,124.330572 L198.894685,124.330572 C199.440436,124.330572 199.872489,123.899289 199.872489,123.354511 C199.872489,122.809732 199.440436,122.378449 198.894685,122.378449 Z" id="Shape" fill="#1A3E63"></path>
                <path d="M182.88598,122.378449 L166.513441,122.378449 L172.948758,118.201814 C174.08574,117.452744 174.426834,115.931904 173.676426,114.796949 L161.260584,95.6843032 C160.89675,95.1395247 160.350999,94.75364 159.691549,94.6174454 C159.236757,94.5266491 158.781964,94.5493481 158.349911,94.7082417 C158.281692,94.5266489 158.213473,94.367755 158.099775,94.1861624 L157.12197,92.6880215 C156.758136,92.1432429 156.212385,91.7573582 155.552935,91.6211637 C155.120882,91.5303674 154.688829,91.5530664 154.279516,91.689261 L150.732132,86.241476 C151.4598,85.4243084 151.596238,84.2212558 150.982268,83.2451943 L150.004464,81.7470536 L149.731588,81.4065669 L151.573498,81.4065669 C159.304975,81.4065669 165.581115,75.4594017 165.581115,68.1502904 L165.581115,13.3773532 C165.581115,6.06824185 159.304975,0.121076681 151.573498,0.121076681 L67.0275251,0.121076681 C59.2960482,0.121076681 53.0199082,6.06824185 53.0199082,13.3773532 L53.0199082,68.2183877 C53.0199082,75.527499 59.2960482,81.4746642 67.0275251,81.4746644 L110.278316,81.4746644 C115.371995,86.5138654 122.284845,89.1923597 129.356872,89.1923595 C132.858777,89.1923595 136.38342,88.5340854 139.771626,87.1721392 C139.817106,87.5353249 139.930804,87.8758114 140.135461,88.193599 L141.113265,89.69174 C141.477099,90.2365185 142.022851,90.6224032 142.6823,90.7585977 C142.864217,90.803996 143.023395,90.803996 143.205312,90.803996 C143.455448,90.803996 143.705584,90.7585977 143.95572,90.6678012 L147.503103,96.1155861 C146.775435,96.9327538 146.638997,98.1358064 147.252967,99.1118679 L148.230772,100.610009 C148.34447,100.768903 148.458168,100.905097 148.594606,101.041292 C147.821458,101.858459 147.662281,103.10691 148.298991,104.082972 L160.191821,122.378449 L21.6164684,122.378449 C21.0707171,122.378449 20.638664,122.809732 20.638664,123.354511 C20.638664,123.899289 21.0707171,124.330572 21.6164684,124.330572 L182.88598,124.330572 C183.431731,124.330572 183.863784,123.899289 183.863784,123.354511 C183.863784,122.809732 183.431731,122.378449 182.88598,122.378449 Z M67.0275251,79.4998422 C60.3875509,79.4998422 54.9982567,74.437942 54.9982567,68.2183877 L54.9982567,13.3773532 C54.9982567,7.15779888 60.4102904,2.09589866 67.0275251,2.09589866 L151.596238,2.09589866 C158.236212,2.09589866 163.625507,7.15779888 163.625507,13.3773532 L163.625507,68.2183877 C163.625507,74.437942 158.213473,79.4998422 151.596238,79.4998422 L150.732132,79.4998422 C153.801983,76.0268793 155.984988,71.8502442 157.031012,67.2423262 C158.668266,60.0921084 157.394846,52.8056963 153.460888,46.7450356 C149.526931,40.6843749 143.387229,36.5758371 136.178764,35.1457937 C128.970299,33.7384492 121.579916,35.1911919 115.326516,39.2316324 C110.960505,42.0463213 107.54956,45.9051689 105.321075,50.3995914 L71.2798376,50.3995914 C70.7340862,50.3995914 70.3020331,50.8308744 70.3020331,51.3756529 C70.3020331,51.9204314 70.7340862,52.3517144 71.2798376,52.3517144 L104.434229,52.3517144 C103.888478,53.7136605 103.433685,55.0983059 103.11533,56.5510484 C101.478076,63.7012662 102.751496,70.9876783 106.685454,77.048339 C107.231205,77.9109049 107.845175,78.7053736 108.481885,79.4771432 L67.0275251,79.4771432 L67.0275251,79.4998422 Z M108.345447,76.0041802 C104.707105,70.3975017 103.524644,63.6558679 105.0482,57.0277297 C106.571755,50.3995914 110.596671,44.6567181 116.418018,40.888667 C120.784029,38.0739781 125.74127,36.5985364 130.76673,36.5985364 C132.449463,36.5985364 134.132196,36.7574302 135.79219,37.0979166 C142.477644,38.4144645 148.162553,42.2279141 151.800895,47.8345926 C155.439237,53.4412712 156.621698,60.182905 155.098142,66.8110432 C153.574587,73.4391815 149.549671,79.1820548 143.728324,82.9501061 C131.767274,90.7131997 115.872267,87.5807234 108.345447,76.0041802 Z M143.478188,88.7610765 C143.34175,88.8518728 143.182572,88.8518728 143.114353,88.8291738 C143.046134,88.8064748 142.886957,88.7610765 142.795998,88.6248819 L141.818194,87.1267412 C141.681756,86.8997501 141.749975,86.5819627 141.954632,86.4457681 L147.68502,82.7458141 C147.775979,82.7004158 147.866938,82.6777168 147.957896,82.6777168 C148.117074,82.6777168 148.276251,82.7458141 148.36721,82.9047079 L149.345014,84.4028486 C149.481452,84.6298397 149.413233,84.9476271 149.208576,85.0838217 L143.478188,88.7610765 Z M145.661193,89.69174 L149.140357,87.4445286 L152.574043,92.7334197 L149.094878,94.9806311 L145.661193,89.69174 Z M148.912961,98.0450101 C148.776523,97.818019 148.844742,97.5002316 149.049399,97.364037 L154.779788,93.6640829 C154.870746,93.5959856 154.961705,93.5959856 155.052663,93.5959856 L155.166361,93.5959856 C155.23458,93.6186847 155.393758,93.6640829 155.484716,93.8002775 L156.462521,95.2984185 C156.553479,95.434613 156.553479,95.5935069 156.53074,95.6616042 C156.508,95.7297014 156.462521,95.8885953 156.326083,95.9793916 L153.460888,97.840718 L150.595694,99.7020446 C150.368298,99.8382392 150.049943,99.7701419 149.913505,99.5658501 L148.912961,98.0450101 Z M162.397566,122.128759 L149.958984,103.016114 C149.822546,102.789123 149.890765,102.471335 150.095422,102.335141 L151.641718,101.33638 L154.506912,99.4750535 L158.895662,96.6149664 C158.98662,96.5468691 159.077579,96.5468691 159.168538,96.5468691 L159.282236,96.5468691 C159.350455,96.5695681 159.509632,96.6149664 159.600591,96.7511612 L172.016433,115.863806 C172.152871,116.090797 172.084652,116.408585 171.879995,116.544779 L165.240021,120.83491 L159.168538,111.505578 C159.00936,111.278587 158.713745,111.21049 158.486348,111.369384 C158.258952,111.505578 158.190733,111.823366 158.349911,112.050357 L164.421394,121.379689 L163.079755,122.242254 C162.852359,122.401148 162.534004,122.35575 162.397566,122.128759 Z M8.56391644,122.378449 L1.03709622,122.378449 C0.491344889,122.378449 0.0592917778,122.809732 0.0592917778,123.354511 C0.0592917778,123.899289 0.491344889,124.330572 1.03709622,124.330572 L8.56391644,124.330572 C9.10966778,124.330572 9.54172089,123.899289 9.54172089,123.354511 C9.54172089,122.809732 9.10966778,122.378449 8.56391644,122.378449 Z" id="Shape" fill="#1A3E63"></path>
                <path d="M27.301378,94.2542597 C27.301378,100.224124 32.3040982,105.104431 38.46654,105.104431 L45.9706207,105.104431 L46.129798,117.089558 L63.4119227,106.625271 C64.9354784,105.626511 66.7091702,105.104431 68.5510809,105.104431 L104.593407,105.104431 C110.755849,105.104431 115.758569,100.246823 115.758569,94.2542597 C115.758569,93.7094812 115.326516,93.2781982 114.780765,93.2781982 C114.235013,93.2781982 113.80296,93.7094812 113.80296,94.2542597 C113.80296,99.1572661 109.687086,103.129609 104.616146,103.129609 L68.5283413,103.129609 C66.2998569,103.129609 64.1623309,103.765184 62.3431598,104.945537 L48.0399276,113.593896 L47.9034898,103.129609 L38.4438004,103.129609 C33.3728611,103.129609 29.2569867,99.1572661 29.2569867,94.2542597 L29.2569867,53.168882 C29.2569867,48.2658756 33.3728611,44.2935324 38.4438004,44.2935324 L44.6062422,44.2935324 C45.1519936,44.2935324 45.5840467,43.8622494 45.5840467,43.3174709 C45.5840467,42.7726924 45.1519936,42.3414095 44.6062422,42.3414095 L38.4438004,42.3414095 C32.2813587,42.3414095 27.2786382,47.1990176 27.2786382,53.191581 L27.2786382,94.2542597 L27.301378,94.2542597 Z M71.2798376,31.69553 L148.480908,31.69553 C149.026659,31.69553 149.458712,31.264247 149.458712,30.7194685 C149.458712,30.17469 149.026659,29.743407 148.480908,29.743407 L71.2798376,29.743407 C70.7340862,29.743407 70.3020331,30.17469 70.3020331,30.7194685 C70.2792936,31.241548 70.7340862,31.69553 71.2798376,31.69553 Z M146.684476,75.482101 C147.09379,74.9827207 147.503103,74.4833405 147.866938,73.961261 C148.185292,73.507279 148.071594,72.8944032 147.639541,72.5766156 C147.184748,72.2588282 146.570778,72.3723237 146.252423,72.8036067 C145.911329,73.2802879 145.547495,73.7569691 145.18366,74.1882521 C143.887501,75.7090921 142.363945,77.0483392 140.658472,78.1605951 C131.3807,84.1758575 119.101296,81.7697526 113.257209,72.8036067 C110.437494,68.4680778 109.527908,63.247284 110.710369,58.1172867 C111.89283,52.9872892 115.008161,48.538265 119.510609,45.6327796 C124.013058,42.7272944 129.334133,41.6604364 134.51877,42.6818961 C139.680668,43.7033558 144.092158,46.6542393 146.911873,50.989768 C149.231316,54.5535272 150.2546,58.684764 149.890765,62.9521956 C149.845286,63.4969741 150.2546,63.9736553 150.800351,64.0190536 C151.346102,64.0644519 151.823635,63.6558679 151.869114,63.1110894 C152.278427,58.4123749 151.141445,53.8498551 148.571866,49.9002111 C145.456536,45.1107003 140.612993,41.8647284 134.905344,40.7297732 C129.220434,39.6175171 123.376348,40.7524722 118.441846,43.953046 C113.507345,47.1536196 110.07366,52.0112277 108.80024,57.6633045 C107.50408,63.3153813 108.504624,69.0582546 111.619955,73.8477654 C115.66761,80.0673198 122.489502,83.4267871 129.561529,83.4267871 C133.722883,83.4267871 137.975195,82.2464338 141.772715,79.7949306 C143.591886,78.6145773 145.274619,77.1618346 146.684476,75.482101 Z" id="Shape" fill="#1A3E63"></path>
            </g>
        </g>
    </g>
</svg>