<?xml version="1.0" encoding="UTF-8"?>
<svg width="20px" height="19px" viewBox="0 0 20 19" version="1.1" xmlns="http://www.w3.org/2000/svg" xmlns:xlink="http://www.w3.org/1999/xlink">
    <!-- Generator: Sketch 49.3 (51167) - http://www.bohemiancoding.com/sketch -->
    <title>文档</title>
    <desc>Created with Sketch.</desc>
    <defs></defs>
    <g id="Page-1" stroke="none" stroke-width="1" fill="none" fill-rule="evenodd">
        <g id="课程章节" transform="translate(-513.000000, -1036.000000)">
            <g id="文档" transform="translate(513.000000, 1036.000000)">
                <rect id="Rectangle-8" fill="#FFFFFF" x="0" y="0" width="20" height="19"></rect>
                <path d="M16.9019583,19 L3.86274763,19 C2.83395207,19 2,18.2266992 2,17.2727254 L2,1.72727465 C2,0.773300816 2.83395207,0 3.86274763,0 L16.9019583,0 C17.9307538,0 18.7647059,0.773300816 18.7647059,1.72727465 L18.7647059,17.2727254 C18.7647059,18.2266992 17.9307538,19 16.9019583,19 Z M16.9019583,1.72727465 L3.86274763,1.72727465 L3.86274763,17.2727254 L16.9019583,17.2727254 L16.9019583,1.72727465 Z M8.51960531,5.18182395 L5.72549526,5.18182395 L5.72549526,3.4545493 L8.51960531,3.4545493 L8.51960531,5.18182395 Z M8.51960531,8.6363521 L5.72549526,8.6363521 L5.72549526,6.90907745 L8.51960531,6.90907745 L8.51960531,8.6363521 Z M15.0392106,12.0909014 L5.72549526,12.0909014 L5.72549526,10.3636268 L15.0392106,10.3636268 L15.0392106,12.0909014 Z M15.0392106,15.5454507 L5.72549526,15.5454507 L5.72549526,13.8181761 L15.0392106,13.8181761 L15.0392106,15.5454507 Z M10.3823529,3.4545493 L15.0392106,3.4545493 L15.0392106,8.63637325 L10.3823529,8.63637325 L10.3823529,3.4545493 Z" id="Shape-Copy-3" fill="#A1A1A1" fill-rule="nonzero"></path>
            </g>
        </g>
    </g>
</svg>