<?xml version="1.0" encoding="UTF-8"?>
<svg width="40px" height="40px" viewBox="0 0 40 40" version="1.1" xmlns="http://www.w3.org/2000/svg" xmlns:xlink="http://www.w3.org/1999/xlink">
    <!-- Generator: Sketch 49.3 (51167) - http://www.bohemiancoding.com/sketch -->
    <title>Combined Shape</title>
    <desc>Created with Sketch.</desc>
    <defs></defs>
    <g id="Page-1" stroke="none" stroke-width="1" fill="none" fill-rule="evenodd">
        <g id="学位课程" transform="translate(-397.000000, -145.000000)" fill="#6399FB">
            <path d="M417,185 C405.954305,185 397,176.045695 397,165 C397,153.954305 405.954305,145 417,145 C428.045695,145 437,153.954305 437,165 C437,176.045695 428.045695,185 417,185 Z M424.049802,168.124831 L417.40457,168.124831 C416.835066,168.124831 416.455397,168.499662 416.455397,169.062922 C416.455397,169.625169 416.835066,170 417.40457,170 L424.049802,170 C424.620331,170 425,169.625169 425,169.062922 C425,168.500675 424.620331,168.124831 424.049802,168.124831 Z M411.518676,161.003039 L410,162.127533 L412.278013,164.844552 L410,167.46837 L411.424271,168.686065 L414.271788,165.498987 C414.555001,165.124156 414.555001,164.65511 414.271788,164.280279 L411.516623,161 L411.518676,161.003039 Z M405.856856,156.817914 L428.143144,156.817914 L428.143144,173.182086 L405.856856,173.182086 L405.856856,156.817914 Z M404,156.817914 L404,173.182086 C404,174.18243 404.836087,175 405.856856,175 L428.143144,175 C429.164917,175 430,174.18243 430,173.182086 L430,156.817914 C430,155.818553 429.164917,155 428.143144,155 L405.856856,155 C404.836087,155 404,155.818553 404,156.817914 Z" id="Combined-Shape"></path>
        </g>
    </g>
</svg>