<?xml version="1.0" encoding="UTF-8"?>
<svg width="40px" height="40px" viewBox="0 0 40 40" version="1.1" xmlns="http://www.w3.org/2000/svg" xmlns:xlink="http://www.w3.org/1999/xlink">
    <!-- Generator: Sketch 49.3 (51167) - http://www.bohemiancoding.com/sketch -->
    <title>Combined Shape</title>
    <desc>Created with Sketch.</desc>
    <defs></defs>
    <g id="Page-1" stroke="none" stroke-width="1" fill="none" fill-rule="evenodd">
        <g id="学位课程" transform="translate(-692.000000, -145.000000)" fill="#4CC8EA">
            <path d="M712,185 C700.954305,185 692,176.045695 692,165 C692,153.954305 700.954305,145 712,145 C723.045695,145 732,153.954305 732,165 C732,176.045695 723.045695,185 712,185 Z M703.25,169.933333 L703.25,168.666667 L720.75,168.666667 L720.75,169.933333 L703.25,169.933333 Z M709.5,173.733333 L710.354769,172.466667 L713.645333,172.466667 L714.5,173.733333 L709.5,173.733333 Z M703.25,167.4 L703.25,157.266667 L720.75,157.266667 L720.75,167.4 L703.25,167.4 Z M720.730171,156 L703.269829,156 C702.571429,156 702,156.600001 702,157.333323 L702,170.33331 C702,171.066632 702.571429,171.666633 703.269829,171.666633 L708.746057,171.666633 L707.7936,173.666677 L706.444457,173.666677 C706.0952,173.666677 705.809486,173.966678 705.809486,174.333279 C705.809486,174.699999 706.0952,175 706.444457,175 L717.539657,175 C717.888914,175 718.174629,174.699999 718.174629,174.333279 C718.174629,173.966678 717.888914,173.666677 717.539657,173.666677 L716.190514,173.666677 L715.238057,171.666633 L720.730171,171.666633 C721.428571,171.666633 722,171.066632 722,170.33331 L722,157.333323 C722,156.600001 721.428571,156 720.730171,156 Z" id="Combined-Shape"></path>
        </g>
    </g>
</svg>