<?xml version="1.0" encoding="UTF-8"?>
<svg width="40px" height="40px" viewBox="0 0 40 40" version="1.1" xmlns="http://www.w3.org/2000/svg" xmlns:xlink="http://www.w3.org/1999/xlink">
    <!-- Generator: Sketch 49.3 (51167) - http://www.bohemiancoding.com/sketch -->
    <title>Combined Shape</title>
    <desc>Created with Sketch.</desc>
    <defs></defs>
    <g id="Page-1" stroke="none" stroke-width="1" fill="none" fill-rule="evenodd">
        <g id="学位课程" transform="translate(-986.000000, -146.000000)" fill="#FED100">
            <path d="M1006,186 C994.954305,186 986,177.045695 986,166 C986,154.954305 994.954305,146 1006,146 C1017.04569,146 1026,154.954305 1026,166 C1026,177.045695 1017.04569,186 1006,186 Z M1001.2,165.4 L998,165.4 L998,175 L1007.6,175 L1007.6,171.8 L1001.2,171.8 L1001.2,165.4 Z M1014,159 L998,159 L998,163.8 L1001.2,163.8 L1001.2,162.2 L1010.8,162.2 L1010.8,171.8 L1009.2,171.8 L1009.2,175 L1014,175 L1014,159 Z" id="Combined-Shape"></path>
        </g>
    </g>
</svg>