<?xml version="1.0" encoding="UTF-8"?>
<svg width="20px" height="9px" viewBox="0 0 20 9" version="1.1" xmlns="http://www.w3.org/2000/svg" xmlns:xlink="http://www.w3.org/1999/xlink">
    <!-- Generator: Sketch 51.2 (57519) - http://www.bohemiancoding.com/sketch -->
    <title>隐藏</title>
    <desc>Created with Sketch.</desc>
    <defs></defs>
    <g id="M-" stroke="none" stroke-width="1" fill="none" fill-rule="evenodd">
        <g id="密码登录" transform="translate(-318.000000, -245.000000)" fill="#A2A2A2" fill-rule="nonzero">
            <g id="yincang" transform="translate(318.000000, 245.000000)">
                <path d="M10.0002963,5.72628559 C5.926079,5.72628559 2.12817719,3.78807266 0.0878778396,0.668058567 C-0.0438756793,0.467162505 0.0182291982,0.200608385 0.226605345,0.073809 C0.434411715,-0.0541360981 0.71013461,0.00647642584 0.841295568,0.207923318 C2.71964361,3.07989093 6.22908247,4.86435822 10.0002735,4.86435822 C13.7714645,4.86435822 17.2809034,3.07989093 19.1586816,0.207923318 C19.2898654,0.00702725598 19.5649957,-0.0541360981 19.7733719,0.073809 C19.981748,0.200630411 20.0438529,0.467184553 19.9120994,0.668058567 C17.8729851,3.78805063 14.0744908,5.72628559 10.0002963,5.72628559 Z M6.39509053,8.99330325 C6.36142855,8.99330325 6.32660423,8.99050506 6.29234969,8.98488667 C5.96903962,8.92989254 5.75252717,8.63249234 5.80882042,8.31991147 L6.35386203,5.30316562 C6.41015526,4.99060677 6.72013272,4.78129414 7.04171067,4.83571544 C7.36502073,4.89070957 7.58153318,5.18810977 7.52523993,5.50069064 L6.98019833,8.51743649 C6.92969396,8.79690189 6.67835719,8.99330325 6.39509053,8.99330325 Z M13.5265547,8.99330325 C13.2502621,8.99330325 13.0029821,8.80644215 12.9449339,8.53484249 L12.3012082,5.51809664 C12.2350466,5.20721231 12.4416678,4.90307004 12.7632458,4.8391085 C13.0836614,4.77624861 13.3994278,4.97489732 13.4655894,5.28578167 L14.1093151,8.30252752 C14.1754767,8.61341185 13.9688555,8.91755412 13.6472775,8.98151566 C13.6066416,8.98938138 13.5665982,8.99330325 13.5265547,8.99330325 Z M1.63942882,6.76665749 C1.57151229,6.76665749 1.50302597,6.75544274 1.43567922,6.73186754 C1.12745666,6.62300294 0.968422561,6.29303809 1.08103183,5.99506504 L2.22045706,2.97831919 C2.33306633,2.67922244 2.67495087,2.52715132 2.98260367,2.63546509 C3.29082624,2.74432969 3.44986033,3.07429454 3.33725107,3.3722676 L2.19782584,6.38901344 C2.10957991,6.62243008 1.88205951,6.76665749 1.63942882,6.76665749 Z M18.2822165,7.26944848 C18.0459672,7.26944848 17.8225036,7.13196312 17.7296311,6.90694103 L16.4915218,3.89019518 C16.370799,3.59502031 16.5199647,3.26113361 16.8247002,3.14385244 C17.1294358,3.0271221 17.4748073,3.17134951 17.5967153,3.46595152 L18.8348246,6.48269737 C18.9555474,6.77787225 18.8063817,7.11175894 18.5016461,7.22904011 C18.42965,7.25653718 18.3553521,7.26944848 18.2822165,7.26944848 Z" id="隐藏"></path>
            </g>
        </g>
    </g>
</svg>