<?xml version="1.0" encoding="UTF-8"?>
<svg width="16px" height="16px" viewBox="0 0 16 16" version="1.1" xmlns="http://www.w3.org/2000/svg" xmlns:xlink="http://www.w3.org/1999/xlink">
    <!-- Generator: Sketch 51.2 (57519) - http://www.bohemiancoding.com/sketch -->
    <title>全删</title>
    <desc>Created with Sketch.</desc>
    <defs></defs>
    <g id="M-" stroke="none" stroke-width="1" fill="none" fill-rule="evenodd">
        <g id="密码登录-获取焦点" transform="translate(-320.000000, -184.000000)" fill="#D0D0D0" fill-rule="nonzero">
            <g id="guanbi" transform="translate(320.000000, 184.000000)">
                <path d="M8.00001606,0.0108915663 C3.58897992,0.0108915663 0.0131726908,3.58671486 0.0131726908,7.997751 C0.0131726908,12.4087871 3.58897992,15.9845783 8,15.9845783 C12.4110201,15.9845783 15.9868273,12.4087871 15.9868273,7.997751 C15.9868273,3.58671486 12.4110683,0.0108915663 8.00003213,0.0108915663 L8.00001606,0.0108915663 Z M11.4250924,10.3873896 C11.711004,10.6733815 11.711004,11.1368996 11.4250924,11.4228273 C11.1391807,11.7087229 10.6755663,11.7087229 10.3896546,11.4228273 L8.00001606,9.03317269 L5.61029719,11.4228112 C5.32436948,11.7087068 4.86086747,11.7087068 4.57495582,11.4228112 C4.28894779,11.1368835 4.28894779,10.6733655 4.57495582,10.3873735 L6.96457831,7.997751 L4.57493976,5.60809639 C4.28894779,5.32218474 4.28894779,4.85858635 4.57493976,4.5726747 C4.86086747,4.28676305 5.32436948,4.28676305 5.61028112,4.5726747 L8.00001606,6.96231325 L10.3896546,4.5726747 C10.6755663,4.28676305 11.1391807,4.28676305 11.4250924,4.5726747 C11.711004,4.85858635 11.711004,5.32218474 11.4250924,5.60809639 L9.03543775,7.997751 L11.4250924,10.3873896 Z" id="全删"></path>
            </g>
        </g>
    </g>
</svg>