<?xml version="1.0" encoding="UTF-8"?>
<svg width="20px" height="13px" viewBox="0 0 20 13" version="1.1" xmlns="http://www.w3.org/2000/svg" xmlns:xlink="http://www.w3.org/1999/xlink">
    <!-- Generator: Sketch 51.2 (57519) - http://www.bohemiancoding.com/sketch -->
    <title>眼睛</title>
    <desc>Created with Sketch.</desc>
    <defs></defs>
    <g id="M-" stroke="none" stroke-width="1" fill="none" fill-rule="evenodd">
        <g id="密码登录-获取焦点" transform="translate(-318.000000, -241.000000)" fill="#A2A2A2" fill-rule="nonzero">
            <g id="眼睛" transform="translate(318.000000, 241.000000)">
                <path d="M10.0040568,0 C3.77281947,0 0.00811359026,6.59676375 0.00811359026,6.59676375 C0.00811359026,6.59676375 4.35699797,12.9915858 10.0040568,12.9915858 C15.6511156,12.9915858 20,6.59676375 20,6.59676375 C20,6.59676375 16.2352941,0 10.0040568,0 Z M16.4300203,9.02006472 C14.3529412,10.8375405 12.1460446,11.981877 9.93914807,11.981877 C7.73225152,11.981877 5.52535497,10.9048544 3.44827586,9.02006472 C2.73427992,8.34692557 2.02028398,7.67378641 1.43610548,6.93333333 C1.30628803,6.7987055 1.24137931,6.66407767 1.11156187,6.52944984 C1.17647059,6.39482201 1.30628803,6.26019417 1.37119675,6.12556634 C1.89046653,5.38511327 2.53955375,4.64466019 3.2535497,3.97152104 C5.26572008,2.08673139 7.47261663,0.942394822 9.93914807,0.942394822 C12.4056795,0.942394822 14.6125761,2.08673139 16.6247465,3.97152104 C17.3387424,4.64466019 17.9229209,5.38511327 18.5070994,6.12556634 C18.5720081,6.26019417 18.7018256,6.39482201 18.7667343,6.52944984 C18.7018256,6.66407767 18.5720081,6.7987055 18.4421907,6.93333333 C17.8580122,7.60647249 17.2089249,8.34692557 16.4300203,9.02006472 Z" id="Shape"></path>
                <path d="M9.93914807,2.5579288 C7.99188641,2.5579288 6.4989858,4.17346278 6.4989858,6.12556634 C6.4989858,8.14498382 8.05679513,9.69320388 9.93914807,9.69320388 C11.8864097,9.69320388 13.3793103,8.0776699 13.3793103,6.12556634 C13.3793103,4.17346278 11.821501,2.5579288 9.93914807,2.5579288 Z M9.93914807,8.75080906 C8.57606491,8.75080906 7.47261663,7.60647249 7.47261663,6.19288026 C7.47261663,4.77928803 8.57606491,3.63495146 9.93914807,3.63495146 C11.3022312,3.63495146 12.4056795,4.77928803 12.4056795,6.19288026 C12.4056795,7.53915858 11.3022312,8.75080906 9.93914807,8.75080906 Z" id="Shape"></path>
            </g>
        </g>
    </g>
</svg>