<?xml version="1.0" encoding="UTF-8"?>
<svg width="33px" height="36px" viewBox="0 0 33 36" version="1.1" xmlns="http://www.w3.org/2000/svg"
     xmlns:xlink="http://www.w3.org/1999/xlink">
    <!-- Generator: Sketch 49.3 (51167) - http://www.bohemiancoding.com/sketch -->
    <title>信息,文本</title>
    <desc>Created with Sketch.</desc>
    <defs>
        <polygon id="path-1"
                 points="0 0.0223269231 32.2232625 0.0223269231 32.2232625 35.9115404 0 35.9115404"></polygon>
    </defs>
    <g id="Page-1" stroke="none" stroke-width="1" fill="none" fill-rule="evenodd">
        <g id="课程价格-内容与服务-超级VIP" transform="translate(-743.000000, -307.000000)">
            <g id="Group-11" transform="translate(733.000000, 307.000000)">
                <g id="信息,文本" transform="translate(10.000000, 0.000000)">
                    <g id="Page-1">
                        <g id="Group-3">
                            <mask id="mask-2" fill="white">
                                <use xlink:href="#path-1"></use>
                            </mask>
                            <g id="Clip-2"></g>
                            <path d="M3.72209063,35.9115404 C1.66973125,35.9115404 -3.4375e-05,34.2300981 -3.4375e-05,32.1633865 L-3.4375e-05,3.77029038 C-3.4375e-05,1.70357885 1.66973125,0.0223096154 3.72209063,0.0223096154 L28.5011375,0.0223096154 C30.5534969,0.0223096154 32.2232625,1.70357885 32.2232625,3.77029038 L32.2232625,15.7352712 C32.2232625,16.7922519 31.3363875,17.6853288 30.286575,17.6853288 C29.2365906,17.6853288 28.3497156,16.7922519 28.3497156,15.7352712 L28.3497156,3.92277115 L3.8735125,3.92277115 L3.8735125,32.0109058 L12.5564656,32.0109058 C13.6062781,32.0109058 14.4931531,32.9039827 14.4931531,33.9611365 C14.4931531,35.0184635 13.6062781,35.9115404 12.5564656,35.9115404 L3.72209063,35.9115404 Z"
                                  id="Fill-1" fill="#fccf38" mask="url(#mask-2)"></path>
                        </g>
                        <path d="M19.7421134,32.6038416 L21.2280874,32.2873613 L29.9718731,23.0790565 C30.1036839,22.9404198 30.1761295,22.7203671 30.1761295,22.4595181 C30.1761295,22.2343438 30.0941251,22.0241811 29.9455445,21.8673538 C29.7972992,21.7029324 29.6074648,21.6176311 29.3933142,21.6176311 C29.1774866,21.6176311 28.9742363,21.7062879 28.8212955,21.8673538 L20.0723112,31.1086841 L19.7421134,32.6038416 Z M17.897936,36 C17.5378879,36 17.1749889,35.835402 16.9021439,35.5478853 C16.5635612,35.1911386 16.424707,34.6683809 16.539748,34.1835939 L17.4325734,30.0624625 C17.4719825,29.7917235 17.5893712,29.5570124 17.8001679,29.3351936 L26.8565431,19.7978694 C27.5333731,19.0849057 28.4355896,18.6923077 29.3966682,18.6923077 C30.3577467,18.6923077 31.2597955,19.0849057 31.9367932,19.7978694 C32.6225113,20.5200167 33,21.465219 33,22.4595181 C33,23.4716545 32.6225113,24.4265702 31.9367932,25.1485409 L22.9074175,34.6853352 C22.6845465,34.9202229 22.4383655,35.0608024 22.1754147,35.1035413 L18.2189104,35.9535523 C18.0916274,36 17.9710524,36 17.897936,36 Z"
                              id="Fill-4" fill="#fccf38"></path>
                        <path d="M8.44778416,10.3846154 C7.59530087,10.3846154 6.875,9.59210477 6.875,8.65375279 C6.875,7.71558754 7.59530087,6.92307692 8.44778416,6.92307692 L23.1470124,6.92307692 C24.0308869,6.92307692 24.75,7.69952818 24.75,8.65375279 C24.75,9.59210477 24.0298688,10.3846154 23.1773855,10.3846154 L8.44778416,10.3846154 Z"
                              id="Fill-6" fill-opacity="0.4" fill="#fccf38"></path>
                        <path d="M8.45046118,16.6153846 C7.59652689,16.6153846 6.875,15.8228312 6.875,14.8846154 C6.875,13.9463995 7.59652689,13.1538462 8.45046118,13.1538462 L23.1747088,13.1538462 C24.0286431,13.1538462 24.75,13.9463995 24.75,14.8846154 C24.75,15.8390782 24.0570282,16.6153846 23.2051336,16.6153846 L8.45046118,16.6153846 Z"
                              id="Fill-8" fill-opacity="0.4" fill="#fccf38"></path>
                        <path d="M8.59383764,22.8461538 C8.29234868,22.8461538 7.99506654,22.7658377 7.73424354,22.6142078 C7.20435916,22.3061821 6.875,21.7319656 6.875,21.1153846 C6.875,20.1609461 7.64607554,19.3846154 8.59383764,19.3846154 C9.54142446,19.3846154 10.3125,20.1609461 10.3125,21.1153846 C10.3125,21.7319656 9.98314084,22.3061821 9.45308118,22.6143843 C9.19225817,22.7660142 8.89515132,22.8461538 8.59383764,22.8461538"
                              id="Fill-10" fill-opacity="0.4" fill="#fccf38"></path>
                        <path d="M13.4062501,22.8461538 C13.1049519,22.8461538 12.8078602,22.7660346 12.5468752,22.6144434 C12.0164921,22.3056138 11.6871497,21.7313673 11.6875003,21.1151199 C11.6871497,20.499049 12.0164921,19.9248024 12.5470505,19.6165023 C12.8078602,19.4649111 13.1051271,19.3846154 13.4062501,19.3846154 C13.7073732,19.3846154 14.0046401,19.4649111 14.2658003,19.6166788 C14.7956577,19.9248024 15.125,20.499049 15.125,21.1154729 C15.125,21.7317202 14.7956577,22.3057903 14.2656251,22.6142669 C14.0048154,22.7658582 13.7075484,22.8461538 13.4062501,22.8461538"
                              id="Fill-12" fill-opacity="0.4" fill="#fccf38"></path>
                        <path d="M18.90625,22.8461538 C18.605127,22.8461538 18.30786,22.7660346 18.0468751,22.6144434 C17.5164919,22.3056138 17.1873248,21.7313673 17.1875001,21.1152964 C17.1873248,20.499049 17.5164919,19.9248024 18.0466998,19.6165023 C18.30786,19.4647346 18.605127,19.3846154 18.90625,19.3846154 C19.2073731,19.3846154 19.50464,19.4649111 19.7658003,19.6166788 C20.2956576,19.9248024 20.625,20.499049 20.625,21.1154729 C20.625,21.7315438 20.2958329,22.3056138 19.7658003,22.6142669 C19.5048153,22.7658582 19.2075483,22.8461538 18.90625,22.8461538"
                              id="Fill-14" fill-opacity="0.4" fill="#fccf38"></path>
                    </g>
                </g>
            </g>
        </g>
    </g>
</svg>