<?xml version="1.0" encoding="UTF-8"?>
<svg width="13px" height="13px" viewBox="0 0 13 13" version="1.1" xmlns="http://www.w3.org/2000/svg" xmlns:xlink="http://www.w3.org/1999/xlink">
    <!-- Generator: Sketch 51.2 (57519) - http://www.bohemiancoding.com/sketch -->
    <title>关闭</title>
    <desc>Created with Sketch.</desc>
    <defs></defs>
    <g id="M-" stroke="none" stroke-width="1" fill="none" fill-rule="evenodd">
        <g id="密码登录" transform="translate(-20.000000, -56.000000)" fill="#1E1E1E">
            <path d="M27.3435876,62.5000317 L32.8251944,57.0184249 C33.0582685,56.7852492 33.0582685,56.4079116 32.8251944,56.1748627 C32.5920441,55.9417124 32.2147064,55.9417124 31.9816322,56.1748627 L26.5000254,61.6563681 L21.0184186,56.1754462 C20.7852683,55.9422959 20.4079306,55.9422959 20.1748817,56.1754462 C19.9417061,56.4086218 19.9417061,56.7858581 20.1748817,57.0190084 L25.6563617,62.5000317 L20.1748817,67.9816385 C19.9417061,68.2146873 19.9417061,68.592025 20.1748817,68.8251753 C20.4079306,69.0582495 20.7852683,69.0582495 21.0184186,68.8251753 L26.5000254,63.3435939 L31.9816322,68.8251753 C32.2147064,69.0582495 32.5920441,69.0582495 32.8251944,68.8251753 C33.0582685,68.592025 33.0582685,68.2146873 32.8251944,67.9816385 L27.3435876,62.5000317 Z" id="关闭"></path>
        </g>
    </g>
</svg>