<?xml version="1.0" encoding="UTF-8"?>
<svg width="22px" height="26px" viewBox="0 0 22 26" version="1.1" xmlns="http://www.w3.org/2000/svg" xmlns:xlink="http://www.w3.org/1999/xlink">
    <!-- Generator: Sketch 49.3 (51167) - http://www.bohemiancoding.com/sketch -->
    <title>课程2</title>
    <desc>Created with Sketch.</desc>
    <defs>
        <path d="M13.1840047,3.28031186 L22.7346454,20.360784 C23.3939344,21.5398637 22.9725607,23.0301561 21.793481,23.689445 C21.4203669,23.8980738 20.9990911,24.0052751 20.5716382,24.0003651 L1.37100517,23.7798141 C0.0202090001,23.764298 -1.06224935,22.656683 -1.04673322,21.3058868 C-1.04194669,20.8891831 -0.930774449,20.4806119 -0.723763182,20.1189335 L8.92622918,3.25901239 C9.59728154,2.08658765 11.091715,1.68014503 12.2641397,2.35119738 C12.6493869,2.57169855 12.9673689,2.89287792 13.1840047,3.28031186 Z" id="path-1"></path>
    </defs>
    <g id="适配M页2" stroke="none" stroke-width="1" fill="none" fill-rule="evenodd">
        <g id="课程2" transform="translate(11.000000, 13.000000) rotate(90.000000) translate(-11.000000, -13.000000) ">
            <use fill="#000000" fill-rule="evenodd" xlink:href="#path-1"></use>
            <path stroke="#000000" stroke-width="2.03832848" d="M12.2944577,3.77770699 C12.1680868,3.55170386 11.9825974,3.36434922 11.7578698,3.23572354 C11.0739554,2.84427633 10.2022026,3.08136786 9.81075534,3.7652823 L0.160762978,20.6252034 C0.0400064057,20.8361825 -0.0248440688,21.0745157 -0.0276362119,21.3175929 C-0.0366872859,22.1055573 0.594746751,22.751666 1.38271118,22.7607171 L20.5833442,22.9812681 C20.8326917,22.9841323 21.078436,22.9215982 21.2960858,22.7998981 C21.9838824,22.4153128 22.2296837,21.5459756 21.8450984,20.8581791 L12.2944577,3.77770699 Z"></path>
        </g>
    </g>
</svg>