<?xml version="1.0" encoding="UTF-8"?>
<svg width="24px" height="25px" viewBox="0 0 24 25" version="1.1" xmlns="http://www.w3.org/2000/svg" xmlns:xlink="http://www.w3.org/1999/xlink">
    <!-- Generator: Sketch 49.3 (51167) - http://www.bohemiancoding.com/sketch -->
    <title>首页1</title>
    <desc>Created with Sketch.</desc>
    <defs></defs>
    <g id="适配M页2" stroke="none" stroke-width="1" fill="none" fill-rule="evenodd">
        <g id="首页1" fill="#000000" fill-rule="nonzero">
            <path d="M22.0259022,10.9195402 L11.7309159,1.74310338 C8.40931168,4.79466751 4.96297078,7.95261207 1.6949707,10.9195402 L1.69411765,10.9195402 L1.69411765,23.2758621 L7.62352941,23.2758621 L7.62352941,17.6938421 L7.64240366,17.6938421 C7.84510598,15.5054248 9.65547949,13.7931034 11.8588235,13.7931034 C14.0621676,13.7931034 15.8725411,15.5054248 16.0752434,17.6938421 L16.0941176,17.6938421 L16.0941176,23.2758621 L22.0235294,23.2758621 L22.0235294,10.9195402 L22.0259022,10.9195402 Z M23.7176471,10.9251 L23.7176471,23.5632184 C23.7176471,24.356731 23.0855785,25 22.3058824,25 L15.8117647,25 C15.0320686,25 14.4,24.356731 14.4,23.5632184 L14.4,20.8333333 L14.4,18.1034483 C14.4,16.6519499 13.2555512,15.4872211 11.8588235,15.4872211 C10.4620959,15.4872211 9.31764706,16.6519499 9.31764706,18.1034483 L9.31764706,23.5632184 C9.31764706,24.356731 8.68557847,25 7.90588235,25 L1.41176471,25 C0.632068588,25 5.85035492e-16,24.356731 5.85035492e-16,23.5632184 L5.85035492e-16,10.9195402 L0.00143899357,10.9195402 C0.00143899357,10.8107731 0.0786049088,10.3747868 0.254760793,10.2117492 C2.04898284,8.39583647 6.8893025,3.8007757 10.7012542,0.50867774 C11.1813427,0.0505101379 11.9952214,0.044557557 12.5176302,0.529313779 C19.823867,6.92925644 23.5172144,10.178022 23.5976724,10.2756105 C23.7183594,10.4219933 23.7183594,10.6913387 23.7183594,10.9251023 L23.7176471,10.9251 Z" id="Combined-Shape"></path>
        </g>
    </g>
</svg>