<?xml version="1.0" encoding="UTF-8"?>
<svg width="1224px" height="525px" viewBox="0 0 1224 525" version="1.1" xmlns="http://www.w3.org/2000/svg" xmlns:xlink="http://www.w3.org/1999/xlink">
    <!-- Generator: Sketch 49.3 (51167) - http://www.bohemiancoding.com/sketch -->
    <title>Group 4</title>
    <desc>Created with Sketch.</desc>
    <defs>
        <rect id="path-1" x="0" y="0" width="1224" height="525"></rect>
        <path d="M611.5,1100 C877.425107,1100 1093,884.425107 1093,618.5 C1093,352.574893 877.425107,137 611.5,137 C345.574893,137 130,352.574893 130,618.5 C130,884.425107 345.574893,1100 611.5,1100 Z" id="path-3"></path>
        <mask id="mask-4" maskContentUnits="userSpaceOnUse" maskUnits="objectBoundingBox" x="0" y="0" width="963" height="963" fill="white">
            <use xlink:href="#path-3"></use>
        </mask>
    </defs>
    <g id="Page-1" stroke="none" stroke-width="1" fill="none" fill-rule="evenodd">
        <g id="首页2" transform="translate(-351.000000, -10040.000000)">
            <g id="Group-4" transform="translate(351.000000, 10040.000000)">
                <g id="底部bg">
                    <mask id="mask-2" fill="white">
                        <use xlink:href="#path-1"></use>
                    </mask>
                    <use id="Mask" fill-opacity="0.15" fill="#FFFFFF" xlink:href="#path-1"></use>
                    <g id="Oval-7" stroke-dasharray="8" mask="url(#mask-2)" stroke="#979797" stroke-width="2">
                        <use mask="url(#mask-4)" xlink:href="#path-3"></use>
                    </g>
                    <circle id="Oval-8" fill="#FAFAFA" mask="url(#mask-2)" cx="611.5" cy="618.5" r="449.5"></circle>
                    <circle id="Oval-2" fill-opacity="0.15" fill="#FECA32" mask="url(#mask-2)" cx="612" cy="612" r="336"></circle>
                    <circle id="Oval-4" fill-opacity="0.2" fill="#FECA32" mask="url(#mask-2)" cx="611.5" cy="596.5" r="247.5"></circle>
                    <circle id="Oval-9" fill-opacity="0.3" fill="#FECA32" mask="url(#mask-2)" cx="611.5" cy="608.5" r="213.5"></circle>
                    <path d="M609.7584,333.827586 C644.118193,333.827586 671.965517,360.995274 671.965517,394.51768 C671.965517,428.035478 644.118193,455.206897 609.7584,455.206897 C575.399049,455.206897 547.551724,428.035478 547.551724,394.51768 C547.551724,360.995274 575.399049,333.827586 609.7584,333.827586 Z M537.134985,416.991137 L537.134985,416.990917 C521.334762,416.990917 508.53402,404.453732 508.53402,388.992146 C508.53402,378.489755 514.441127,369.338555 523.181322,364.54719 C535.4774,329.890966 569.041912,305 608.633012,305 C648.225646,305 681.790816,329.892501 694.086017,364.550042 C702.823581,369.342065 708.732223,378.491729 708.732223,388.992365 C708.732223,404.453732 695.922274,416.991137 680.131258,416.991137 L680.131258,360.992936 C680.908248,360.993219 681.684923,361.02425 682.459463,361.085955 C669.773158,333.523979 641.515944,314.329779 608.633012,314.329779 C575.750299,314.329779 547.493523,333.523979 534.806561,361.085516 C535.574518,361.024747 536.350805,360.992716 537.134985,360.992716 L537.134985,416.991137 Z M670.404755,449.093721 C699.646963,463.666579 719,489.662367 719,525 L499,525 C499,489.728182 517.997668,463.763328 546.933833,449.175771 C563.101921,463.919091 584.784698,472.943486 608.624023,472.943486 C632.507852,472.943486 654.226802,463.885744 670.404755,449.093721 Z" id="Combined-Shape" fill="#FCCF37" fill-rule="nonzero" mask="url(#mask-2)"></path>
                </g>
                <g id="底部bg3" transform="translate(485.000000, 30.000000)">
                    <circle id="path-23" stroke="#FEEA0C" stroke-width="0.5" fill-opacity="0.2" fill="#FFC210" cx="104.5" cy="104.5" r="104.5"></circle>
                    <circle id="Oval-9" fill="#FFFFFF" fill-rule="nonzero" cx="104" cy="104" r="85"></circle>
                    <path d="M92.4710675,179.899431 C84.7948912,182.715445 76.2586556,179.942627 71.7292223,173.203591 C66.7507439,165.796451 59.3005814,160.408126 50.7148385,158.004952 C42.7711586,155.781494 37.5069219,148.53766 37.8288012,140.456297 C38.1830802,131.561479 35.3348886,122.835243 29.8032799,115.867857 C24.741174,109.491835 24.741174,100.508165 29.776478,94.1659021 C35.3348886,87.164756 38.1830802,78.4385204 37.8288012,69.5437031 C37.5069219,61.4623396 42.7711586,54.2185056 50.5477713,52.0418095 C59.3005814,49.5918731 66.7507439,44.2035484 71.7292223,36.7964087 C76.2586556,30.0573727 84.7948912,27.2845545 92.4107571,30.0784432 C100.883779,33.1867805 110.116221,33.1867805 118.528933,30.1005682 C126.205109,27.2845545 134.741345,30.0573727 139.270778,36.7964087 C144.249256,44.2035484 151.699419,49.5918731 160.285162,51.9950469 C168.228842,54.2185056 173.493078,61.4623396 173.1712,69.5437031 C172.81692,78.4385204 175.665112,87.164756 181.19672,94.1321434 C186.258826,100.508165 186.258826,109.491835 181.223523,115.834098 C175.665112,122.835243 172.81692,131.561479 173.1712,140.456297 C173.493078,148.53766 168.228842,155.781494 160.452229,157.95819 C151.699419,160.408126 144.249256,165.796451 139.270778,173.203591 C134.741345,179.942627 126.205109,182.715445 118.589242,179.921557 C110.116221,176.813219 100.883779,176.813219 92.4710675,179.899431 Z" id="path-25" fill="#FEEA0C"></path>
                </g>
                <g id="底部bg4" transform="translate(835.000000, 137.000000)">
                    <circle id="path-29" stroke="#FFE7DB" stroke-width="0.5" fill-opacity="0.2" fill="#FFB187" cx="121.724887" cy="121.868361" r="120.968832"></circle>
                    <circle id="Oval-9" fill="#FFFFFF" fill-rule="nonzero" cx="122.287176" cy="122.287176" r="98.287176"></circle>
                    <path d="M57.1919347,54.0000018 L187.808065,54 C191.780062,54 195,59.5810026 195,66.4655183 C195,66.4655189 195,66.4655195 195,66.4655201 L194.999992,162.929315 C194.99999,168.128466 193.138259,172.781611 190.328932,174.603987 L121.889214,219 L54.633605,174.630766 C51.8438605,172.790342 50,168.154364 50,162.980595 L50,66.4655201 C50,59.5810044 53.2199389,54.0000018 57.1919347,54.0000018 Z" id="path-31" fill="#FFE7DB"></path>
                </g>
                <g id="底部bg2" transform="translate(140.000000, 140.000000)">
                    <circle id="path-10" stroke="#99E9FF" stroke-width="0.5" fill-opacity="0.1" fill="#40BEFE" cx="118" cy="118.400785" r="117.882747"></circle>
                    <circle id="Oval-9" fill="#FFFFFF" fill-rule="nonzero" cx="118" cy="118.400785" r="95.7797317"></circle>
                    <path d="M115,195 C72.4740743,195 38,160.525926 38,118 C38,75.4740743 72.4740743,41 115,41 C157.525926,41 192,75.4740743 192,118 C192,160.525926 157.525926,195 115,195 Z" id="path-13" fill="#99E9FF"></path>
                </g>
            </g>
        </g>
    </g>
</svg>