<?xml version="1.0" encoding="UTF-8"?>
<svg width="24px" height="24px" viewBox="0 0 24 24" version="1.1" xmlns="http://www.w3.org/2000/svg" xmlns:xlink="http://www.w3.org/1999/xlink">
    <!-- Generator: Sketch 49.3 (51167) - http://www.bohemiancoding.com/sketch -->
    <title>确认</title>
    <desc>Created with Sketch.</desc>
    <defs></defs>
    <g id="Page-1" stroke="none" stroke-width="1" fill="none" fill-rule="evenodd">
        <g id="首页2" transform="translate(-942.000000, -1591.000000)" fill="#FAD05C" fill-rule="nonzero">
            <path d="M954.000036,1591 C947.372989,1591 942,1596.37164 942,1603 C942,1609.62836 947.372989,1615 954.000012,1615 C960.627011,1615 966,1609.62699 966,1603 C966.000024,1596.37301 960.627011,1591 954.000036,1591 Z M959.903348,1600.06003 C958.022549,1602.5971 956.141558,1605.13726 954.260735,1607.67432 C953.868303,1608.20469 952.954041,1608.58684 952.306709,1608.13863 C950.953153,1607.20401 949.601137,1606.26964 948.249122,1605.3364 C947.630825,1604.90873 947.305824,1604.22613 947.736408,1603.55962 C948.09379,1603.00445 949.069444,1602.66453 949.691998,1603.09377 C951.044014,1604.0268 952.68307,1605.16072 952.68307,1605.16072 C954.266557,1603.02348 955.848695,1600.88619 957.433697,1598.7505 C958.456045,1597.37053 960.934596,1598.66849 959.903348,1600.06003 Z" id="确认"></path>
        </g>
    </g>
</svg>