<?xml version="1.0" encoding="UTF-8"?>
<svg width="714px" height="750px" viewBox="0 0 714 750" version="1.1" xmlns="http://www.w3.org/2000/svg" xmlns:xlink="http://www.w3.org/1999/xlink">
    <!-- Generator: Sketch 49.3 (51167) - http://www.bohemiancoding.com/sketch -->
    <title>星盘bg</title>
    <desc>Created with Sketch.</desc>
    <defs>
        <ellipse id="path-1" cx="357.992457" cy="357" rx="357.007543" ry="357"></ellipse>
        <ellipse id="path-2" cx="363.58944" cy="364.995521" rx="233.873922" ry="233.868981"></ellipse>
        <ellipse id="path-3" cx="363.58944" cy="364.995521" rx="197.09375" ry="197.089586"></ellipse>
        <ellipse id="path-4" cx="359.591595" cy="364.995521" rx="154.716595" ry="154.713326"></ellipse>
        <filter x="-5.3%" y="-4.4%" width="110.7%" height="110.7%" filterUnits="objectBoundingBox" id="filter-5">
            <feOffset dx="0" dy="3" in="SourceAlpha" result="shadowOffsetOuter1"></feOffset>
            <feGaussianBlur stdDeviation="5" in="shadowOffsetOuter1" result="shadowBlurOuter1"></feGaussianBlur>
            <feColorMatrix values="0 0 0 0 0.909803927   0 0 0 0 0.941176474   0 0 0 0 0.984313726  0 0 0 1 0" type="matrix" in="shadowBlurOuter1"></feColorMatrix>
        </filter>
        <ellipse id="path-6" cx="362.789871" cy="364.195969" rx="89.9515086" ry="89.9496081"></ellipse>
        <filter x="-13.6%" y="-8.1%" width="127.2%" height="127.2%" filterUnits="objectBoundingBox" id="filter-7">
            <feOffset dx="0" dy="10" in="SourceAlpha" result="shadowOffsetOuter1"></feOffset>
            <feGaussianBlur stdDeviation="6.5" in="shadowOffsetOuter1" result="shadowBlurOuter1"></feGaussianBlur>
            <feComposite in="shadowBlurOuter1" in2="SourceAlpha" operator="out" result="shadowBlurOuter1"></feComposite>
            <feColorMatrix values="0 0 0 0 0.796078431   0 0 0 0 0.890196078   0 0 0 0 0.925490196  0 0 0 1 0" type="matrix" in="shadowBlurOuter1"></feColorMatrix>
        </filter>
        <linearGradient x1="50%" y1="0%" x2="50%" y2="100%" id="linearGradient-8">
            <stop stop-color="#FAD961" offset="0%"></stop>
            <stop stop-color="#F76B1C" offset="100%"></stop>
        </linearGradient>
        <linearGradient x1="100%" y1="50%" x2="-20.451585%" y2="50%" id="linearGradient-9">
            <stop stop-color="#006AFF" offset="0%"></stop>
            <stop stop-color="#00E4FF" offset="100%"></stop>
        </linearGradient>
        <linearGradient x1="50%" y1="0%" x2="50%" y2="100%" id="linearGradient-10">
            <stop stop-color="#ACF0D6" offset="0%"></stop>
            <stop stop-color="#6BE5B0" offset="100%"></stop>
        </linearGradient>
        <linearGradient x1="3.00081286%" y1="50%" x2="100%" y2="50%" id="linearGradient-11">
            <stop stop-color="#BBD7FF" offset="0%"></stop>
            <stop stop-color="#0B6AFA" offset="100%"></stop>
        </linearGradient>
        <linearGradient x1="0%" y1="0%" x2="101.999998%" y2="100.999999%" id="linearGradient-12">
            <stop stop-color="#3023AE" offset="0%"></stop>
            <stop stop-color="#C86DD7" offset="100%"></stop>
        </linearGradient>
    </defs>
    <g id="Page-1" stroke="none" stroke-width="1" fill="none" fill-rule="evenodd">
        <g id="首页2" transform="translate(-554.000000, -1610.000000)">
            <g id="星盘bg" transform="translate(553.000000, 1610.000000)">
                <g id="Oval-16">
                    <use fill="#F9FBFF" fill-rule="evenodd" xlink:href="#path-1"></use>
                    <ellipse stroke="#9DBEEB" stroke-width="0.8" cx="357.992457" cy="357" rx="356.607543" ry="356.6"></ellipse>
                </g>
                <ellipse id="Oval-15" fill="#EBF3FD" cx="363.189655" cy="362.996641" rx="300.637931" ry="300.631579"></ellipse>
                <g id="Oval-14">
                    <use fill="#F4F9FE" fill-rule="evenodd" xlink:href="#path-2"></use>
                    <ellipse stroke="#E9F2FD" stroke-width="0.8" cx="363.58944" cy="364.995521" rx="233.473922" ry="233.468981"></ellipse>
                </g>
                <g id="Oval-13">
                    <use fill="#EFF6FD" fill-rule="evenodd" xlink:href="#path-3"></use>
                    <ellipse stroke="#9AC7FF" stroke-width="0.8" cx="363.58944" cy="364.995521" rx="196.69375" ry="196.689586"></ellipse>
                </g>
                <g id="Oval-12">
                    <use fill="black" fill-opacity="1" filter="url(#filter-5)" xlink:href="#path-4"></use>
                    <use fill="#FFFFFF" fill-rule="evenodd" xlink:href="#path-4"></use>
                </g>
                <g id="Oval-11">
                    <use fill="black" fill-opacity="1" filter="url(#filter-7)" xlink:href="#path-6"></use>
                    <use fill="#FFFFFF" fill-rule="evenodd" xlink:href="#path-6"></use>
                    <ellipse stroke="#E8F0FB" stroke-width="0.8" cx="362.789871" cy="364.195969" rx="89.5515086" ry="89.5496081"></ellipse>
                </g>
                <ellipse id="Oval-10" fill="#60A5FE" opacity="0.741225091" cx="362.390086" cy="364.595745" rx="79.1573276" ry="79.1556551"></ellipse>
                <g id="Group-13" transform="translate(75.000000, 103.538634)" opacity="0.528249547">
                    <ellipse id="Oval-17" fill="url(#linearGradient-8)" cx="318.989224" cy="19.9888018" rx="19.9892241" ry="19.9888018"></ellipse>
                    <ellipse id="Oval-17-Copy-2" fill="url(#linearGradient-9)" cx="19.9892241" cy="140.988802" rx="19.9892241" ry="19.9888018"></ellipse>
                    <ellipse id="Oval-17-Copy-3" fill="url(#linearGradient-10)" cx="39.9892241" cy="506.988802" rx="19.9892241" ry="19.9888018"></ellipse>
                    <ellipse id="Oval-17-Copy-4" fill="url(#linearGradient-11)" cx="397.989224" cy="625.988802" rx="19.9892241" ry="19.9888018"></ellipse>
                    <ellipse id="Oval-17-Copy" fill="url(#linearGradient-12)" cx="584.989224" cy="270.988802" rx="19.9892241" ry="19.9888018"></ellipse>
                </g>
                <g id="logo-copy-4" transform="translate(332.000000, 310.000000)" fill="#FFFFFF">
                    <path d="M59.7466666,110.948155 C59.6786677,111.109244 59.5798768,111.226163 59.4182191,111.272931 C59.0551305,111.379457 58.693325,111.509368 58.3225385,111.567827 C57.7695662,111.654867 57.2088959,111.705532 56.6507916,111.741907 C55.0611567,111.844537 53.4715218,111.899099 51.8780378,111.888706 C48.629486,111.866621 45.3796512,111.862724 42.1310994,111.857528 C41.8385758,111.857528 41.5460522,111.913389 41.2535286,111.928978 C40.8378371,111.952362 40.4208627,111.988737 40.0077372,111.966652 C39.7575525,111.953661 39.4996698,111.873117 39.2687301,111.769189 C38.8042847,111.556136 38.5669301,111.171601 38.5502511,110.649361 C38.5451191,110.489571 38.5181761,110.33108 38.4937991,110.17259 C38.3565183,109.272311 38.7978698,108.704602 39.6972516,108.627955 C39.7819295,108.621459 39.8678904,108.626656 39.9538513,108.62016 C40.0308312,108.614964 40.1065281,108.601973 40.1937719,108.590281 C40.168112,108.537018 40.16298,108.511036 40.147584,108.494147 C39.4265389,107.683506 39.2635982,106.72087 39.411143,105.678989 C39.5458578,104.733241 39.9038143,103.868038 40.3528637,103.034013 C40.4619186,102.831353 40.5376155,102.600112 40.5735395,102.374068 C40.6620663,101.812855 40.5491625,101.256839 40.4311266,100.713813 C40.143735,99.3913251 39.6651766,98.1259978 39.2174102,96.8541749 C39.1429963,96.6450191 39.0211115,96.4553499 38.9171886,96.2578861 C38.8402087,96.1097883 38.7311538,96.0253465 38.5579491,95.9772797 C38.3911593,95.931811 38.2436145,95.8006015 38.0999187,95.6914768 C38.0101088,95.6213251 37.9408269,95.5225932 37.858715,95.4316559 C37.6354733,95.8252845 37.3827226,95.9603913 36.9631821,95.856463 C36.6347346,95.7746194 36.3473429,95.8096952 36.0407063,95.9486994 C35.519809,96.1864354 35.1054005,96.069516 34.747444,95.6330171 C34.7089541,95.5849502 34.6717471,95.5355843 34.6281252,95.4914147 C34.6191442,95.482321 34.5870692,95.495312 34.5626922,95.4992094 C34.5562772,95.6005395 34.5498623,95.7018696 34.5421643,95.8291818 C34.3202056,95.7629275 34.1290388,95.7187579 33.949419,95.644709 C33.8737221,95.6122314 33.7800633,95.5212941 33.7697993,95.4472452 C33.7274603,95.1276656 33.5478406,94.9405946 33.2668639,94.8262735 C33.221959,94.808086 33.17962,94.7808048 33.173205,94.7769075 C33.216827,94.5261804 33.3092029,94.320922 33.2668639,94.1481411 C33.224525,93.9701639 33.0500372,93.8246642 32.9345673,93.6648744 C32.9191714,93.6453879 32.9063414,93.6246022 32.8883794,93.6064147 C32.7690606,93.4881963 32.7600796,93.359585 32.8229465,93.2023934 C32.9345673,92.9178896 33.0282262,92.6242921 33.1321491,92.3293955 C32.9486803,92.173503 32.7831735,92.0331997 32.6112518,91.8877001 C32.6561567,91.8175485 32.6818167,91.7577897 32.7241556,91.7162183 C33.0885271,91.349871 33.221959,90.938055 32.9769063,90.4482928 C32.5984218,88.4723555 32.0120915,86.5522797 31.4668172,84.620512 C31.2512735,83.8579379 30.9625989,83.1174486 30.5584544,82.4315216 C30.4275886,82.2106739 30.2992888,81.9794334 30.0272931,81.8651123 C29.7771084,81.9976209 29.6334126,82.2275623 29.4986978,82.4627001 C29.1163643,83.1317387 28.8379537,83.8475451 28.6224099,84.5867353 C28.0104197,86.6795919 27.4317875,88.7815423 26.9750401,90.9159702 C26.9391161,91.0848538 26.9673421,91.1965767 27.0648499,91.3212907 C27.2059798,91.5031653 27.3342796,91.6928345 27.4741264,91.8877001 C27.2726957,92.0539854 27.1046229,92.1929895 26.9403991,92.3280964 C27.035341,92.5944127 27.1033399,92.8347469 27.2059798,93.0581928 C27.3240156,93.3154154 27.3073366,93.5284685 27.0994909,93.7272314 C26.8159483,93.9974451 26.6979124,94.3066318 26.9070412,94.6820729 C26.9160221,94.6976622 26.8993432,94.7275415 26.8916452,94.7730102 C26.7992693,94.8275726 26.6837994,94.8769385 26.5927066,94.9548848 C26.5054627,95.0302328 26.3887098,95.1302638 26.3797288,95.2289957 C26.3502199,95.5498744 26.1667511,95.6771866 25.8870575,95.7291508 C25.8023796,95.7434409 25.7228337,95.7798158 25.6394388,95.7980033 C25.6086468,95.8057979 25.5714399,95.7876105 25.5406479,95.782414 C25.5278179,95.6745884 25.516271,95.5758565 25.499592,95.4355533 C25.4213291,95.5225932 25.3700091,95.5615664 25.3430662,95.6135305 C25.1608804,95.9759805 24.8362818,96.0630205 24.4796083,96.0474313 C24.3025545,96.0396366 24.1152368,95.9915698 23.954862,95.9162218 C23.7085263,95.7993024 23.4686056,95.7603293 23.2094399,95.8395746 C22.7770695,95.9733823 22.4422069,95.8330791 22.2189652,95.4927138 C22.0008555,95.6564009 21.8084058,95.8798468 21.5710511,95.956494 C21.3298474,96.0357393 21.1861516,96.1604533 21.0989077,96.3709082 C20.8910619,96.8723623 20.6793672,97.3738165 20.5010305,97.8869626 C20.103301,99.0327724 19.6876095,100.175984 19.5323667,101.390646 C19.4489718,102.038899 19.4181799,102.679357 19.8325883,103.248365 C19.8903232,103.326311 19.9249642,103.422445 19.9685861,103.512083 C20.4009566,104.413661 20.7152912,105.347717 20.7114422,106.364916 C20.7101592,107.122293 20.5023134,107.80822 20.0122081,108.394116 C19.9685861,108.44738 19.9313792,108.507138 19.8620973,108.604571 C20.087905,108.616263 20.2675248,108.614964 20.4445785,108.63575 C21.3106024,108.73708 21.7185959,109.290498 21.5787491,110.159599 C21.5582211,110.293406 21.5389761,110.429812 21.5338441,110.564919 C21.5069011,111.263837 21.1758876,111.705532 20.5125774,111.892603 C19.9698691,112.045898 19.4207458,112.009523 18.8703396,111.94067 C18.5906459,111.905595 18.3096693,111.860126 18.0299757,111.858827 C15.5037519,111.848434 12.9775282,111.830246 10.4513045,111.851032 C8.47933602,111.866621 6.50608457,111.925081 4.53539913,111.813358 C3.79639208,111.773086 3.05995104,111.669158 2.32094399,111.621091 C1.87830957,111.59381 1.45235412,111.498975 1.02126668,111.40414 C0.577349252,111.306708 0.310485598,111.067672 0.207845731,110.616883 C0.168072782,110.442803 0.0705649086,110.281714 0,110.115429 L0,109.369743 C0.0513199335,109.289199 0.114186852,109.212552 0.151393804,109.124213 C0.275844643,108.825419 0.47855838,108.604571 0.763384011,108.457772 C0.8493449,108.413603 0.931456794,108.362938 0.944286777,108.355143 C1.06360562,107.869278 1.12775554,107.436677 1.27658335,107.035253 C1.51008904,106.403889 1.97453444,106.001167 2.63142959,105.83618 C2.8559543,105.780319 3.07663002,105.702373 3.29730573,105.629623 C3.75533614,105.480226 4.21464954,105.355512 4.73939586,105.45944 C4.77660281,105.407476 4.81380977,105.341222 4.8664127,105.289258 C5.39500801,104.750129 6.00571522,104.529282 6.73702428,104.809888 C6.89226707,104.869647 7.02184991,104.830674 7.15784773,104.76312 C7.85964782,104.408465 8.56273091,104.057707 9.264531,103.703051 C9.37101986,103.648489 9.46724474,103.573141 9.5737336,103.504289 C9.5737336,103.365284 9.56218662,103.24057 9.5762996,103.118455 C9.61094055,102.810567 9.70844843,102.516969 9.99840605,102.375367 C10.3525136,102.203885 10.7322811,102.076573 11.1261616,102.258448 C11.2429144,102.31301 11.3224603,102.305216 11.4289492,102.24026 C11.8715836,101.975243 12.2410871,101.647869 12.4412349,101.150312 C12.5477238,100.886594 12.6837216,100.634568 12.7889274,100.37085 C13.4240116,98.765157 13.897438,97.1126966 14.1976596,95.4095712 C14.2566775,95.0731032 14.3079975,94.7340371 14.3682984,94.3689888 C14.0488318,94.2364802 13.7742702,94.1000743 13.4843125,94.0078379 C13.0173011,93.85974 12.5605537,93.8285615 12.2410871,94.3469041 C11.6881149,93.9662666 11.1556706,93.5908255 10.6116793,93.234871 C10.4243615,93.1114561 10.3460986,92.9737511 10.3691926,92.747707 C10.4025505,92.4177345 10.4115315,92.0851639 10.4333425,91.7019282 L9.4993197,91.7019282 C9.78671133,91.1602018 10.040745,90.6834306 10.2883637,90.2157532 C10.1510829,90.0027001 10.031764,89.8182273 9.89833218,89.6103707 C10.2075348,89.2453224 10.5077564,88.8919661 10.807978,88.5373107 C10.6848102,88.3346505 10.5770383,88.1579723 10.4590025,87.9618076 C11.2429144,87.5642818 12.0409394,87.2667869 12.8197194,86.8627656 C12.2051632,86.480829 12.0139964,86.0884996 12.1872012,85.4246574 C12.3116521,84.9504844 12.5117998,84.4919007 12.7055325,84.0398125 C12.8274174,83.7566078 13.0185841,83.5045816 13.150733,83.2265733 C14.0937367,81.2350468 15.0162126,79.2344265 15.8001245,77.1727484 C15.9938573,76.6647987 16.1272891,76.1347643 16.2902299,75.6151226 C16.3672098,75.3721902 16.3364178,75.1864183 16.0811012,75.0617043 C15.9412544,74.9941509 15.8052565,74.8902226 15.7026167,74.7720041 C15.5948448,74.645991 15.4857899,74.4939958 15.453715,74.3368042 C15.3805841,73.996439 15.3818671,73.6456809 15.4999029,73.310512 C15.6269198,72.948062 15.7654836,72.5908084 15.8963494,72.2309566 C16.0015553,71.9399573 16.1311381,71.6554535 16.201703,71.3566595 C16.7700713,68.9572143 17.3628165,66.5629656 17.8721669,64.1505293 C18.1890674,62.6474659 18.3699702,61.1171213 18.6201549,59.5997678 C18.6470979,59.4334825 18.7099648,59.2671972 18.7805297,59.1126038 C19.0935813,58.4279759 19.4168969,57.7472454 19.7325144,57.0626176 C19.7645894,56.9937651 19.7671554,56.9106224 19.7864004,56.818386 C19.7145525,56.830078 19.6773455,56.830078 19.6439876,56.8417699 C19.5285177,56.8833412 19.4130479,56.9236134 19.300144,56.9716803 C16.6469034,58.0772178 14.8596868,60.0869318 13.6164614,62.6344749 C13.154582,63.5815217 12.9056803,64.6143095 12.6503636,65.6367044 C12.5425918,66.0680069 12.4463669,66.5006086 12.34501,66.9332102 C12.4142919,66.9747815 12.4527819,67.0046609 12.4964038,67.0241475 C13.3008438,67.3736065 13.7306482,68.0114666 13.866646,68.8675762 C13.9782669,69.5755879 13.932079,70.2810014 13.7819682,70.976022 C13.6895923,71.4086237 13.5510285,71.8308325 13.4471056,72.2062736 C13.159714,72.2946127 12.9287743,72.3400813 12.7183625,72.4349159 C12.4617629,72.5492371 12.3963299,72.7518973 12.4874228,73.0208118 C12.5156488,73.1013563 12.5554217,73.1806016 12.5977607,73.2546506 C12.7068155,73.4456189 12.7029665,73.6391854 12.5990437,73.822359 C12.5143658,73.9704569 12.4142919,74.1172557 12.2975391,74.2406705 C12.0255434,74.5251743 11.7458498,74.8057808 11.4546092,75.0694989 C10.832355,75.6346092 10.1113099,75.8658497 9.27864398,75.6995644 C8.76672765,75.5969352 8.27790528,75.4150606 7.8724778,75.0889855 C7.4862953,74.7797987 7.07060384,74.6914597 6.59589446,74.6381964 C5.04731546,74.4654155 3.92340892,73.6638683 3.3191167,72.1815906 C3.20236385,71.8957877 3.10870497,71.599592 3.01889509,71.3033963 C2.6994285,70.2420283 2.84697331,69.2170352 3.27934375,68.2206223 C3.83359904,66.9475004 4.68935893,65.8991234 5.69907862,64.9767595 C5.93130132,64.7650055 6.05575216,64.5363632 6.1032231,64.2284756 C6.22767393,63.4334239 6.4881226,62.6799435 6.98335996,62.0459807 C7.28229857,61.6601468 7.51323827,61.2457326 7.72878199,60.8157292 C7.82372387,60.6273591 7.92251474,60.4415872 8.02258861,60.2571145 C9.43260378,57.6654019 11.1877455,55.3568939 13.4535206,53.4692958 C15.3113022,51.9207637 17.3730805,50.7528692 19.6991565,50.0955225 C20.1328099,49.9734067 20.5780104,49.888965 21.0257768,49.7837375 C21.0565687,49.4069974 21.0873607,49.0393509 21.1194356,48.6483206 C21.2785274,48.6249367 21.4209403,48.5989546 21.5646361,48.5820663 C22.3203221,48.4963254 23.0734421,48.3820043 23.7919212,48.1221834 C24.1691227,47.9857775 24.5270792,47.7909119 24.8837528,47.6025418 C25.0030716,47.5401848 25.1377864,47.454444 25.1480504,47.3141407 C24.0267099,46.7568251 22.9297463,46.206005 21.8263677,45.669475 C21.7044829,45.6110153 21.5415421,45.6136135 21.4004123,45.6214081 C20.3278257,45.6798678 19.270635,45.5772386 18.2275574,45.3226142 C16.0336302,44.7873833 14.1437737,43.6688547 12.4386689,42.2060636 C10.4269275,40.4795543 8.81933058,38.4087824 7.40674941,36.1665288 C6.62412042,34.9232862 6.07243114,33.5930037 5.79786949,32.1574937 C5.35010307,29.8307983 5.23591622,27.4820182 5.49893088,25.1176488 C5.73371957,23.0143993 6.27771087,21.0033862 7.21943165,19.1118907 C8.40107312,16.7410258 10.026632,14.7520975 12.2179932,13.2659225 C12.365538,13.1658914 12.4348199,13.0567667 12.4476499,12.8774903 C12.4617629,12.6683346 12.5066678,12.4604779 12.5502897,12.2552195 C12.9454532,10.3987998 13.7999301,8.7684242 14.9341007,7.27315543 C16.1337041,5.69084669 17.5860582,4.383948 19.2180321,3.28230776 C19.8492673,2.85620163 20.4933325,2.4313946 21.1810196,2.11960963 C23.2145719,1.19464754 25.3533302,0.607452506 27.5511063,0.245002474 C28.8469346,0.0319494085 30.145329,-0.0940636852 31.4642513,0.0865117789 C33.8198362,0.407390481 36.1099882,0.968603435 38.3154624,1.86498524 C38.7580968,2.0442616 39.2032972,2.23393079 39.6112907,2.48076056 C40.2630539,2.87438909 40.899421,3.29789701 41.5152602,3.74738702 C43.1793091,4.96334841 44.6226822,6.40535392 45.7619847,8.14355515 C46.7075545,9.58556066 47.3939586,11.13799 47.6261813,12.8709948 C47.6479923,13.035981 47.7005952,13.1619941 47.854555,13.2646233 C49.8996544,14.6416737 51.4495164,16.4734104 52.6170449,18.6455124 C54.084795,21.3788273 54.6903702,24.3290926 54.7173131,27.417063 C54.7301431,28.8967425 54.6069753,30.3699265 54.3452436,31.824923 C54.1155869,33.0993441 53.7345364,34.3282966 53.0853393,35.457218 C52.3245212,36.7784068 51.4713273,38.0359395 50.5142106,39.2194233 C49.1131764,40.9485308 47.5415034,42.48667 45.6567789,43.6740512 C43.4872287,45.0407086 41.1483227,45.7721042 38.570779,45.6175108 C38.4245172,45.6084171 38.2615764,45.669475 38.1242956,45.7357293 C37.1376699,46.2047059 36.1561762,46.6840753 35.1733994,47.1608464 C35.0874386,47.2024178 35.0053267,47.2465873 34.8885738,47.305047 C34.9745347,47.3985825 35.0258546,47.4856225 35.1028345,47.5336893 C35.3299252,47.679189 35.555733,47.8324832 35.8007856,47.9403089 C36.4897557,48.2455983 37.2210648,48.4027899 37.9639208,48.5080174 C38.2975004,48.5560842 38.63108,48.6028519 38.9659425,48.6509188 C38.9941685,49.065333 39.0211115,49.4316803 39.0442054,49.7629519 C39.7100816,49.93963 40.3349018,50.0734377 40.937911,50.2696025 C43.7399794,51.1828726 46.1109603,52.7950607 48.1688896,54.9022075 C49.9958793,56.7742165 51.4225734,58.9320283 52.5836869,61.2769111 C52.6542518,61.4211117 52.7222507,61.5731069 52.8248906,61.6913253 C53.5061627,62.4707878 53.8577043,63.397049 54.0052491,64.4116492 C54.032192,64.5974211 54.1130209,64.7221351 54.2426038,64.8507464 C54.6621442,65.2664597 55.0893827,65.6795748 55.4729992,66.1277657 C56.1696673,66.9410048 56.7264885,67.8425831 57.0369741,68.8844645 C57.2845928,69.7132929 57.3128188,70.5434204 57.0369741,71.3722488 C56.9587112,71.6073866 56.8855803,71.8438236 56.7983364,72.0763632 C56.365966,73.2364631 55.587186,74.0510014 54.4119595,74.4290406 C53.9962681,74.5628484 53.5523506,74.6291027 53.1174142,74.6693749 C52.8582485,74.6927588 52.6542518,74.7655086 52.4528211,74.9239993 C52.0127526,75.2682619 51.5213643,75.5189889 50.979939,75.6605913 C50.2653089,75.8476623 49.5686408,75.7892026 48.9810276,75.3345162 C48.4883562,74.9525796 48.0508538,74.4939958 47.6172003,74.0419076 C47.3798456,73.7950779 47.3233937,73.5001812 47.5235415,73.159816 C47.7467832,72.7765803 47.6133513,72.4933756 47.1938109,72.3582688 C47.0206061,72.3037064 46.8384203,72.2751261 46.6485366,72.2322557 C46.2815991,71.150102 46.0301314,70.0601537 46.2033362,68.9091475 C46.330353,68.066029 46.7332145,67.4268698 47.5094285,67.055326 C47.5748614,67.0241475 47.6377283,66.9890717 47.7326702,66.9384066 C47.6159173,66.4421489 47.5158435,65.9458911 47.3824116,65.4587271 C46.9551732,63.8920076 46.4881618,62.3564666 45.534894,60.9950056 C44.2749897,59.1957464 42.7482216,57.7706293 40.7133863,56.9431 C40.5812374,56.8898367 40.4439566,56.8521627 40.2694688,56.7924039 C40.2912798,56.8924349 40.2938458,56.9405018 40.3118078,56.9820731 C40.6184444,57.6576072 40.914817,58.3383378 41.2406986,59.003479 C41.3459045,59.2165321 41.4459783,59.4204914 41.4754873,59.6595266 C41.5024303,59.8803743 41.5332222,60.101222 41.5704292,60.3220697 C41.8244628,61.861508 42.0092146,63.4139373 42.3787181,64.9351882 C42.7982586,66.6565011 43.1651961,68.390805 43.5616426,70.1173143 C43.7553753,70.963031 43.9491081,71.8074486 44.3288756,72.5973039 C44.4661564,72.8831068 44.5521173,73.2013873 44.6226822,73.5144714 C44.793321,74.2627553 44.6534742,74.6018215 44.036352,75.0370213 C44.006843,75.0591061 43.978617,75.0850882 43.9452591,75.0993783 C43.7694883,75.1812219 43.7297154,75.3254224 43.7694883,75.5008015 C43.8272232,75.7541268 43.8721282,76.0126485 43.9580891,76.25688 C44.8574709,78.8200124 45.9659815,81.2909083 47.1963769,83.7085409 C47.3811286,84.0722901 47.5645974,84.4373383 47.7224062,84.8127794 C47.866102,85.1570419 47.9533459,85.519492 47.9328179,85.9001295 C47.9135729,86.2586822 47.7750091,86.5470833 47.4606745,86.7341543 C47.4042226,86.767931 47.3477707,86.8043059 47.2399988,86.8718593 C48.0585518,87.2434031 48.8257848,87.591563 49.6148287,87.9501157 C49.4929439,88.1657669 49.385172,88.354137 49.2761172,88.5464044 C49.5853198,88.9114527 49.8778434,89.2570144 50.178065,89.6116698 C50.0856891,89.7532721 50.0151242,89.8844816 49.9240313,89.9988028 C49.8085615,90.1417042 49.7970145,90.2690164 49.8945224,90.4340026 C50.0767081,90.7431894 50.2396489,91.0640681 50.4064387,91.3810495 C50.4564757,91.474585 50.4949656,91.5720178 50.5629645,91.7214148 L49.6430547,91.7214148 C49.6687147,92.1046505 49.6866767,92.448913 49.7161856,92.7931756 C49.7302986,92.9529654 49.7007896,93.0737821 49.5545278,93.1712149 C49.0015555,93.5401604 48.4562812,93.9207979 47.907158,94.2936408 C47.880215,94.3118282 47.837876,94.3053327 47.7929711,94.3118282 C47.6005214,93.9454809 47.2797718,93.8831239 46.9128342,93.933789 C46.4804638,93.9935478 46.0955643,94.171525 45.7016838,94.4170557 C45.8235687,95.057514 45.9326235,95.6914768 46.0634893,96.3202431 C46.4060499,97.9649089 46.9192492,99.5511149 47.5992384,101.085357 C47.854555,101.66086 48.2625485,102.053189 48.8219358,102.326001 C49.0682715,102.149323 49.3389841,102.159716 49.6263757,102.219475 C50.2319509,102.345488 50.4859846,102.607907 50.4936826,103.22628 C50.4962486,103.464016 50.5809265,103.58873 50.7759422,103.686163 C51.4687613,104.030426 52.1577315,104.381184 52.8467016,104.733241 C53.0417173,104.833272 53.2200541,104.855357 53.4407298,104.776111 C53.9924191,104.577349 54.5030524,104.711156 54.9623658,105.061914 C55.0496097,105.129468 55.1381366,105.200918 55.2087015,105.28536 C55.3126244,105.408775 55.4255282,105.446449 55.591035,105.432159 C55.7950317,105.415271 56.0105755,105.434757 56.2094402,105.482824 C56.5776607,105.572462 56.9330513,105.719261 57.3025548,105.798506 C58.2275966,105.997269 58.7407959,106.594857 58.9537737,107.491239 C59.0192066,107.766649 59.0474325,108.051153 59.0949035,108.343451 C59.1577704,108.375929 59.2219203,108.411005 59.2860702,108.443482 C59.7453836,108.674723 59.9801723,109.051463 59.9981343,109.569805 C60.0135303,110.049175 59.9339844,110.506459 59.7466666,110.948155 Z" id="Fill-1"></path>
                </g>
            </g>
        </g>
    </g>
</svg>