<?xml version="1.0" encoding="UTF-8"?>
<svg width="410px" height="248px" viewBox="0 0 410 248" version="1.1" xmlns="http://www.w3.org/2000/svg" xmlns:xlink="http://www.w3.org/1999/xlink">
    <!-- Generator: Sketch 49.3 (51167) - http://www.bohemiancoding.com/sketch -->
    <title>学位</title>
    <desc>Created with Sketch.</desc>
    <defs>
        <filter x="-3.6%" y="-50.8%" width="107.2%" height="201.7%" filterUnits="objectBoundingBox" id="filter-1">
            <feGaussianBlur stdDeviation="4.104" in="SourceGraphic"></feGaussianBlur>
        </filter>
        <filter x="-6.3%" y="-120.0%" width="112.6%" height="340.0%" filterUnits="objectBoundingBox" id="filter-2">
            <feGaussianBlur stdDeviation="6.84" in="SourceGraphic"></feGaussianBlur>
        </filter>
        <rect id="path-3" x="32.8" y="0" width="345.083333" height="225.689655" rx="10.6704"></rect>
        <filter x="-0.1%" y="-0.2%" width="100.3%" height="100.9%" filterUnits="objectBoundingBox" id="filter-4">
            <feOffset dx="0" dy="1" in="SourceAlpha" result="shadowOffsetOuter1"></feOffset>
            <feColorMatrix values="0 0 0 0 0   0 0 0 0 0   0 0 0 0 0  0 0 0 0.2 0" type="matrix" in="shadowOffsetOuter1"></feColorMatrix>
        </filter>
        <filter x="-0.3%" y="-0.4%" width="100.6%" height="101.3%" filterUnits="objectBoundingBox" id="filter-5">
            <feGaussianBlur stdDeviation="0.5" in="SourceAlpha" result="shadowBlurInner1"></feGaussianBlur>
            <feOffset dx="0" dy="1" in="shadowBlurInner1" result="shadowOffsetInner1"></feOffset>
            <feComposite in="shadowOffsetInner1" in2="SourceAlpha" operator="arithmetic" k2="-1" k3="1" result="shadowInnerInner1"></feComposite>
            <feColorMatrix values="0 0 0 0 1   0 0 0 0 1   0 0 0 0 1  0 0 0 1 0" type="matrix" in="shadowInnerInner1"></feColorMatrix>
        </filter>
        <linearGradient x1="0%" y1="50%" x2="100%" y2="50%" id="linearGradient-6">
            <stop stop-color="#BCBDBF" offset="0%"></stop>
            <stop stop-color="#D8D8DF" offset="9.75964605%"></stop>
            <stop stop-color="#D8D8DF" offset="88.8213489%"></stop>
            <stop stop-color="#ADAABD" offset="100%"></stop>
        </linearGradient>
        <linearGradient x1="50%" y1="0%" x2="50%" y2="100%" id="linearGradient-7">
            <stop stop-color="#FFFFFF" offset="0%"></stop>
            <stop stop-color="#CDCBD5" offset="100%"></stop>
        </linearGradient>
        <rect id="path-8" x="49.5416667" y="15.4100719" width="311.6" height="194.913793"></rect>
        <linearGradient x1="50%" y1="2.54922327%" x2="50%" y2="100%" id="linearGradient-10">
            <stop stop-color="#4762E2" offset="0%"></stop>
            <stop stop-color="#2611C9" offset="100%"></stop>
        </linearGradient>
    </defs>
    <g id="Page-1" stroke="none" stroke-width="1" fill="none" fill-rule="evenodd">
        <g id="首页2" transform="translate(-343.000000, -3171.000000)">
            <g id="学位" transform="translate(343.000000, 3171.000000)">
                <g id="Group">
                    <g id="shadows" transform="translate(34.850000, 212.624631)" fill="#000000">
                        <rect id="Rectangle-8" opacity="0.05" filter="url(#filter-1)" x="0.546666667" y="0.550085964" width="341.94" height="24.2179367" rx="12.1089683"></rect>
                        <rect id="Rectangle-2" opacity="0.5" filter="url(#filter-2)" x="9.56666667" y="0.683908046" width="326.633333" height="17.0977011" rx="8.54885057"></rect>
                    </g>
                    <g id="case">
                        <g id="screen">
                            <use fill="black" fill-opacity="1" filter="url(#filter-4)" xlink:href="#path-3"></use>
                            <use fill="#F5F5F5" fill-rule="evenodd" xlink:href="#path-3"></use>
                            <use fill="black" fill-opacity="1" filter="url(#filter-5)" xlink:href="#path-3"></use>
                        </g>
                        <rect id="front" fill="#F5F5F5" x="0" y="223.637931" width="410" height="2.73563218"></rect>
                        <path d="M168.783333,223.637931 L241.9,223.637931 L241.9,224.663793 C241.9,225.230361 241.433091,225.689655 240.8664,225.689655 L169.816934,225.689655 C169.246092,225.689655 168.783333,225.234311 168.783333,224.663793 L168.783333,223.637931 Z" id="notch" fill-opacity="0.5" fill="url(#linearGradient-6)"></path>
                        <path d="M205.683333,225.689655 L410,226.373563 C410,226.373563 400.169762,231.16092 344.4,231.16092 C288.619184,231.16092 205.683333,231.16092 205.683333,231.16092 C205.683333,231.16092 121.704932,231.16092 65.6,231.16092 C9.85648693,231.16092 0,226.373563 0,226.373563 L205.683333,225.689655 Z" id="bottom" fill="url(#linearGradient-7)"></path>
                    </g>
                    <mask id="mask-9" fill="white">
                        <use xlink:href="#path-8"></use>
                    </mask>
                    <use id="Mask" fill="#D1D5FF" xlink:href="#path-8"></use>
                    <path d="M248.135289,74.4820144 C245.98641,74.4820144 244.24426,72.7229547 244.24426,70.5532165 L233.1875,70.5532165 C233.1875,63.2072353 238.386222,57.0896935 245.270625,55.7400281 L245.270625,47.9137662 L247.560423,47.9137662 L247.560423,-2.56834532 L248.71041,-2.56834532 L248.71041,47.9137662 L250.999954,47.9137662 L250.999954,55.7400281 C257.884611,57.0896935 263.083333,63.2072353 263.083333,70.5532165 L252.026573,70.5532165 C252.026573,72.7229547 250.284424,74.4820144 248.135289,74.4820144" id="Fill-193" fill="#8B9FFF" mask="url(#mask-9)"></path>
                    <path d="M128.551956,74.4820144 C126.403076,74.4820144 124.660927,72.7229547 124.660927,70.5532165 L113.604167,70.5532165 C113.604167,63.2072353 118.802889,57.0896935 125.687292,55.7400281 L125.687292,47.9137662 L127.97709,47.9137662 L127.97709,-2.56834532 L129.127077,-2.56834532 L129.127077,47.9137662 L131.416621,47.9137662 L131.416621,55.7400281 C138.301278,57.0896935 143.5,63.2072353 143.5,70.5532165 L132.44324,70.5532165 C132.44324,72.7229547 130.70109,74.4820144 128.551956,74.4820144" id="Fill-193" fill="#8B9FFF" opacity="0.463881341" mask="url(#mask-9)"></path>
                    <path d="M288.281159,48.7985612 C286.746245,48.7985612 285.501853,47.5672194 285.501853,46.0484027 L277.604167,46.0484027 C277.604167,40.9062158 281.31754,36.6239365 286.23497,35.6791707 L286.23497,30.2007874 L287.870541,30.2007874 L287.870541,-5.13669065 L288.691959,-5.13669065 L288.691959,30.2007874 L290.327348,30.2007874 L290.327348,35.6791707 C295.24496,36.6239365 298.958333,40.9062158 298.958333,46.0484027 L291.060647,46.0484027 C291.060647,47.5672194 289.816255,48.7985612 288.281159,48.7985612" id="Fill-193" fill="#8B9FFF" opacity="0.552366395" mask="url(#mask-9)"></path>
                    <g id="Group-25" mask="url(#mask-9)">
                        <g transform="translate(150.333333, 95.884892)">
                            <path d="M72.4823665,126.677544 C69.3057938,122.646725 60.4149059,120.38057 51.5394528,120.097623 L51.5394528,92.6388497 L72.2907174,92.6388497 C74.3744188,92.6388497 76.0636746,90.9471766 76.0636746,88.8604936 C76.0636746,86.7738107 74.3744188,85.0821376 72.2907174,85.0821376 L51.747823,85.0821376 L51.747823,62.0479053 L66.5125192,62.0479053 C68.6969757,62.0479053 70.4741243,60.2682137 70.4741243,58.0806314 L70.4741243,42.9672073 C70.4741243,40.779625 68.6969757,38.9999334 66.5125192,38.9999334 L32.7934292,38.9999334 C30.6089728,38.9999334 28.8318242,40.779625 28.8318242,42.9672073 L28.8318242,58.0806314 C28.8318242,60.2682137 30.6089728,62.0479053 32.7934292,62.0479053 L47.2202743,62.0479053 L47.2202743,85.0821376 L27.015231,85.0821376 C24.9315297,85.0821376 23.2422738,86.7738107 23.2422738,88.8604936 C23.2422738,90.9471766 24.9315297,92.6388497 27.015231,92.6388497 L47.7664956,92.6388497 L47.7664956,120.097623 C38.8910426,120.38057 30.0001547,122.646725 26.823582,126.677115 C24.9855516,126.930436 23.5685489,128.505753 23.5685489,130.41597 C23.5685489,132.502653 25.2578047,134.194326 27.3415061,134.194326 C29.4252074,134.194326 31.1144633,132.502653 31.1144633,130.41597 C31.1144633,129.502295 30.7907607,128.664616 30.2518281,128.011132 C32.7908568,125.897829 39.0569669,123.770786 47.7664956,123.497714 L47.7664956,126.719192 C46.6397534,127.372676 45.880017,128.590337 45.880017,129.987899 C45.880017,132.074582 47.5692729,133.766255 49.6529742,133.766255 C51.7366756,133.766255 53.4259314,132.074582 53.4259314,129.987899 C53.4259314,128.590337 52.666195,127.372676 51.5394528,126.719192 L51.5394528,123.497714 C60.2489815,123.770786 66.5150917,125.897829 69.0541204,128.011132 C68.5151877,128.664616 68.1914852,129.502295 68.1914852,130.41597 C68.1914852,132.502653 69.880741,134.194326 71.9644424,134.194326 C74.0481437,134.194326 75.7373996,132.502653 75.7373996,130.41597 C75.7373996,128.505753 74.3203969,126.930866 72.4823665,126.677544" id="Fill-86" fill="#8B9FFF"></path>
                            <path d="M61.6569805,36.1661664 C61.6419745,36.2533262 61.6231097,36.3288933 61.6042449,36.4083247 C61.4117383,37.2318345 61.1965083,37.9986691 60.9628422,38.6976649 C60.5589643,39.9028746 60.1289329,40.9007041 59.5818541,41.6486469 C59.3288945,41.9998622 59.0459227,42.2948316 58.72908,42.5326963 C58.1215482,42.9899633 57.3785328,43.2316922 56.4352935,43.2316922 L42.3544458,43.2316922 C41.3696182,43.2316922 40.6038794,42.9672073 39.9813414,42.4721567 C39.6945109,42.2454554 39.4419801,41.9698071 39.2078852,41.6486469 C38.6608064,40.9007041 38.2303463,39.9028746 37.8268971,38.6976649 C37.5928023,37.9986691 37.378001,37.2318345 37.1854944,36.4083247 C37.1666296,36.3288933 37.1477648,36.2533262 37.1327588,36.1738948 C34.9255788,26.444628 35.5819876,9.20029695 40.5850146,4.0050574 C42.6374176,1.87415047 45.1764463,0 49.3948696,0 C52.7377955,0 55.0277232,1.17858947 56.8537488,2.73157967 C57.3330858,3.13217128 57.7781233,3.562818 58.2047247,4.0050574 C58.3745078,4.18238252 58.5404321,4.37516455 58.6990679,4.5791099 C63.2489112,10.3677231 63.7887014,26.7769516 61.6569805,36.1661664" id="Fill-87" fill="#44372D"></path>
                            <polyline id="Fill-88" fill="#F1C9B1" points="53.2141313 35.4203704 53.2141313 30.601249 45.6682169 30.601249 45.6682169 35.4203704 43.7821671 35.5667817 45.6682169 47.7494038 53.2141313 47.7494038 55.1006099 35.5667817 53.2141313 35.4203704"></polyline>
                            <path d="M53.2141313,35.4199411 L45.6682169,32.3839461 L45.6682169,31.4689829 C46.9021454,32.3560378 48.2231092,32.908193 49.4416029,32.908193 C50.6596678,32.908193 51.9806316,32.3560378 53.2141313,31.4689829 L53.2141313,35.4203704" id="Fill-89" fill="#E49D7E"></path>
                            <path d="M60.5388132,66.1830583 C63.1232889,74.1064427 69.2470557,90.2434578 58.663482,91.4302051 C55.2553869,91.8123343 49.8043213,92.542244 40.4100866,91.4302051 C30.3851678,90.2434578 35.946421,74.1103069 38.5274667,66.1869225 L60.5388132,66.1830583" id="Fill-90" fill="#1B3091"></path>
                            <path d="M57.6988054,89.4877866 C57.6988054,87.192006 55.840624,85.331595 53.5485525,85.331595 C51.2770608,85.331595 49.4347429,87.1593747 49.4013008,89.425959 L49.3982996,89.4255296 L49.3995858,89.4624545 L49.3982996,89.4877866 C49.3982996,89.5328693 49.4038733,89.5770932 49.4051595,89.6217465 L50.7188346,135.85809 L55.4350311,135.85809 L56.8773298,91.9621805 C57.3909664,91.2704837 57.6988054,90.41606 57.6988054,89.4877866" id="Fill-91" fill="#F2C9B2"></path>
                            <path d="M50.6279407,132.064278 C50.6279407,132.064278 51.1801644,135.290049 53.063213,135.290049 C54.9458329,135.290049 55.4980567,132.064278 55.4980567,132.064278 C55.4980567,132.064278 56.0061196,133.939716 56.0061196,135.18228 C56.0061196,137.484072 55.0946075,138.778588 53.063213,138.778588 C51.0313898,138.778588 50.1203064,137.484072 50.1203064,135.18228 C50.1203064,133.939716 50.6279407,132.064278 50.6279407,132.064278" id="Fill-92" fill="#E05844"></path>
                            <path d="M41.1839715,89.4877866 C41.1839715,87.192006 43.042153,85.331595 45.3342245,85.331595 C47.6057162,85.331595 49.448034,87.1593747 49.4814762,89.425959 L49.4844774,89.4255296 L49.4831911,89.4624545 L49.4844774,89.4877866 C49.4844774,89.5328693 49.4789037,89.5770932 49.4776175,89.6217465 L48.1639424,135.85809 L43.4477459,135.85809 L42.0054472,91.9621805 C41.4918106,91.2704837 41.1839715,90.41606 41.1839715,89.4877866" id="Fill-93" fill="#F2C9B2"></path>
                            <path d="M48.2548363,132.064278 C48.2548363,132.064278 47.7026126,135.290049 45.819564,135.290049 C43.9369441,135.290049 43.3847203,132.064278 43.3847203,132.064278 C43.3847203,132.064278 42.8766573,133.939716 42.8766573,135.18228 C42.8766573,137.484072 43.7881695,138.778588 45.819564,138.778588 C47.8513872,138.778588 48.7624706,137.484072 48.7624706,135.18228 C48.7624706,133.939716 48.2548363,132.064278 48.2548363,132.064278" id="Fill-94" fill="#E05844"></path>
                            <path d="M58.7050703,56.1506643 C62.2855209,52.4882351 63.3419489,39.5576703 53.840528,35.5667817 L49.4416029,47.6197375 L45.042249,35.5667817 C35.5408281,39.5576703 36.5972561,52.4882351 40.177278,56.1506643 C40.177278,56.1506643 39.6726449,61.6962605 36.1204915,72.2421675 L48.1832359,72.2421675 L49.4416029,67.7081402 L50.6395168,72.2421675 L62.7622855,72.2421675 C59.2101321,61.6962605 58.7050703,56.1506643 58.7050703,56.1506643" id="Fill-95" fill="#1B3091"></path>
                            <path d="M33.1381403,71.3023014 L38.4918808,45.1410501 C38.8365919,43.9324055 39.33608,42.8624437 40.1155387,42.1136423 C41.2615744,41.0123374 43.5832293,40.9874346 45.6322023,40.9651079 L45.7346724,40.9642492 L45.0353891,35.4693173 C42.1906651,35.6861434 39.0522507,35.5942607 36.3533001,38.1880162 C34.0509387,40.4009307 33.1694387,43.3798209 32.702964,46.2191696 L32.7025353,46.219599 L32.7021065,46.2251806 C32.5336097,47.2534946 28.7503626,70.5848431 28.7503626,70.5848431 C28.7336415,71.4504301 33.1381403,71.3023014 33.1381403,71.3023014" id="Fill-96" fill="#1B3091"></path>
                            <path d="M66.3890406,47.6652495 C65.9757303,44.4261679 65.22757,40.7809131 62.5290482,38.1880162 C59.8305263,35.5942607 56.6921119,35.6861434 53.8473879,35.4693173 L53.1476758,40.9642492 L53.2505747,40.9651079 C55.2991189,40.9874346 57.6212026,41.0123374 58.7672383,42.1136423 C59.4931038,42.8113501 59.9758709,43.788141 60.3175807,44.8954569 L60.6635781,57.4524797 L62.9908067,64.6841673 C63.227474,64.747283 63.4684287,64.7781968 63.7076685,64.7781968 C64.3079117,64.7781968 64.8991513,64.583268 65.387492,64.2123022 C66.0713405,63.6936369 66.7864874,62.8877308 66.797206,62.0290135 L66.3890406,47.6652495" id="Fill-97" fill="#1B1A19"></path>
                            <polyline id="Fill-98" fill="#FFFFFE" points="40.7226418 38.5435252 44.8587461 40.1093961 43.2350883 42.3764098 49.4416029 47.6201668 45.0353891 35.4693173 40.7226418 38.5435252"></polyline>
                            <polyline id="Fill-99" fill="#FFFFFE" points="58.160564 38.5435252 53.8409567 35.520411 49.4416029 47.6197375 55.6476887 42.3764098 54.0244596 40.1093961 58.160564 38.5435252"></polyline>
                            <path d="M58.0846761,17.5680675 L58.0846761,13.6385772 C58.0846761,9.46521124 53.2604358,4.19268713 49.4416029,4.19268713 C45.6223412,4.19268713 40.7981009,9.46521124 40.7981009,13.6385772 L40.7981009,17.5680675 C39.7369567,17.5680675 38.8773227,18.413904 38.8773227,19.4572455 L38.8773227,21.4219907 C38.8773227,22.4653322 39.7369567,23.3111687 40.7981009,23.3111687 C40.7981009,27.4845347 45.6223412,32.908193 49.4416029,32.908193 C53.2604358,32.908193 58.0846761,27.4845347 58.0846761,23.3111687 C59.1458203,23.3111687 60.0054543,22.4653322 60.0054543,21.4219907 L60.0054543,19.4572455 C60.0054543,18.413904 59.1458203,17.5680675 58.0846761,17.5680675" id="Fill-100" fill="#F1C9B1"></path>
                            <path d="M49.4416029,32.908193 L49.4416029,25.9182343 L47.5208247,25.5403987 C47.5208247,25.5403987 48.040035,22.4262605 49.4416029,19.4950291 L49.4416029,4.19268713 C53.2604358,4.19268713 58.0846761,9.46521124 58.0846761,13.6385772 L58.0846761,17.5680675 C59.1458203,17.5680675 60.0054543,18.413904 60.0054543,19.4572455 L60.0054543,21.4219907 C60.0054543,22.4653322 59.1458203,23.3111687 58.0846761,23.3111687 C58.0846761,27.4845347 53.2604358,32.908193 49.4416029,32.908193 M54.1582281,18.6311595 C54.1406496,18.6311595 54.123071,18.6315889 54.1054925,18.6324476 C53.2831593,18.6612146 52.6396128,19.3520527 52.6683388,20.1755625 C52.6966359,20.9814687 53.3577609,21.6156314 54.1565131,21.6156314 C54.1740917,21.6156314 54.1916702,21.6156314 54.2096775,21.6147727 C55.0320107,21.5860057 55.6755571,20.8951676 55.6468312,20.0716577 C55.618534,19.2657516 54.957409,18.6311595 54.1582281,18.6311595" id="Fill-101" fill="#E7A689"></path>
                            <path d="M44.7241201,21.6156314 C43.9253679,21.6156314 43.2642429,20.9814687 43.2359458,20.1755625 C43.2072198,19.3520527 43.8507663,18.6612146 44.6730995,18.6324476 C44.690678,18.6315889 44.7082566,18.6311595 44.7258351,18.6311595 C45.5250161,18.6311595 46.1861411,19.2657516 46.2144382,20.0716577 C46.2431642,20.8951676 45.5996177,21.5860057 44.7772845,21.6147727 C44.7592772,21.6156314 44.7416987,21.6156314 44.7241201,21.6156314" id="Fill-102" fill="#E49D7E"></path>
                            <path d="M46.2144382,19.6938221 C46.2431642,20.517332 45.5996177,21.2081701 44.7772845,21.2369371 C43.9549514,21.2657041 43.2646717,20.6216662 43.2359458,19.7977269 C43.2072198,18.9742171 43.8507663,18.283379 44.6730995,18.254612 C45.4954326,18.2258449 46.1857123,18.8703123 46.2144382,19.6938221" id="Fill-103" fill="#2D211A"></path>
                            <path d="M45.6034764,19.2670396 C45.6103363,19.4731318 45.4495569,19.645734 45.244188,19.6530331 C45.0383903,19.6603322 44.8660348,19.4988933 44.8587461,19.2932305 C44.8514574,19.0871384 45.0122369,18.9145362 45.2180345,18.9072371 C45.4238322,18.9003674 45.5961877,19.0613769 45.6034764,19.2670396" id="Fill-104" fill="#FFFFFE"></path>
                            <path d="M46.5377121,18.5538749 C46.2624577,17.9145599 45.5584582,17.429814 44.7850019,17.3473772 C44.3108098,17.2954248 43.4211637,17.3658396 42.6562823,18.3353314 C42.619839,18.3383369 42.5859681,18.3391956 42.5435224,18.334902 C42.4586308,18.3271736 42.3402972,18.2996946 42.2249647,18.2503184 C41.9900124,18.1558595 41.7949334,17.9574958 41.7949334,17.9574958 L41.7413402,17.9484793 L41.719903,18.0107363 C41.719903,18.0107363 41.7490576,18.0755694 41.805652,18.1687402 C41.8609601,18.2627698 41.9484241,18.3838489 42.0590404,18.4899005 C42.1692279,18.5963814 42.3004239,18.6874055 42.4106114,18.7423634 C42.4654908,18.7702717 42.5152252,18.7900222 42.5520973,18.802903 L42.6185528,18.8217947 C42.7214516,18.8320993 42.814918,18.7771414 42.8599363,18.690411 C43.3607106,17.990127 44.0304105,17.6457814 44.7451286,17.7226366 C45.377099,17.7904753 45.9717685,18.1932137 46.1908572,18.7032917 C46.2328743,18.7994681 46.3439193,18.843692 46.4391007,18.8020442 C46.5342821,18.7608258 46.5788716,18.6496219 46.5377121,18.5538749" id="Fill-105" fill="#2D211A"></path>
                            <path d="M54.1565131,21.6156314 C53.3577609,21.6156314 52.6966359,20.9814687 52.6683388,20.1755625 C52.6396128,19.3520527 53.2831593,18.6612146 54.1054925,18.6324476 C54.123071,18.6315889 54.1406496,18.6311595 54.1582281,18.6311595 C54.957409,18.6311595 55.618534,19.2657516 55.6468312,20.0716577 C55.6755571,20.8951676 55.0320107,21.5860057 54.2096775,21.6147727 C54.1916702,21.6156314 54.1740917,21.6156314 54.1565131,21.6156314" id="Fill-106" fill="#DA8162"></path>
                            <path d="M55.6468312,19.6938221 C55.6755571,20.517332 55.0320107,21.2081701 54.2096775,21.2369371 C53.3873444,21.2657041 52.6970647,20.6216662 52.6683388,19.7977269 C52.6396128,18.9742171 53.2831593,18.283379 54.1054925,18.254612 C54.9278256,18.2258449 55.6181053,18.8703123 55.6468312,19.6938221" id="Fill-107" fill="#2D211A"></path>
                            <path d="M55.0358694,19.2670396 C55.0427293,19.4731318 54.8819499,19.645734 54.676581,19.6530331 C54.4707833,19.6603322 54.2984278,19.4988933 54.2911391,19.2932305 C54.2838504,19.0871384 54.4446299,18.9145362 54.6504275,18.9072371 C54.8562252,18.9003674 55.0285807,19.0613769 55.0358694,19.2670396" id="Fill-108" fill="#FFFFFE"></path>
                            <path d="M52.3450649,18.5538749 C52.6203193,17.9145599 53.3243188,17.429814 54.097775,17.3473772 C54.5719672,17.2954248 55.4616133,17.3658396 56.2264946,18.3353314 C56.262938,18.3383369 56.2968089,18.3391956 56.3392546,18.334902 C56.4241462,18.3271736 56.5424798,18.2996946 56.6578123,18.2503184 C56.8927646,18.1558595 57.0878436,17.9574958 57.0878436,17.9574958 L57.1414368,17.9484793 L57.162874,18.0107363 C57.162874,18.0107363 57.1337194,18.0755694 57.077125,18.1687402 C57.0218169,18.2627698 56.9343529,18.3838489 56.8233079,18.4899005 C56.7135491,18.5963814 56.5823531,18.6874055 56.4721656,18.7423634 C56.4172862,18.7702717 56.3675518,18.7900222 56.3306797,18.802903 L56.2642242,18.8217947 C56.1613254,18.8320993 56.0678589,18.7771414 56.0228407,18.690411 C55.5220664,17.990127 54.8523665,17.6457814 54.1376483,17.7226366 C53.505678,17.7904753 52.9110085,18.1932137 52.6919197,18.7032917 C52.6499027,18.7994681 52.5388577,18.843692 52.4436763,18.8020442 C52.3484949,18.7608258 52.3039054,18.6496219 52.3450649,18.5538749" id="Fill-109" fill="#2D211A"></path>
                            <path d="M54.4583497,14.1237525 C54.7147393,15.0455855 55.2167999,16.2623879 56.08801,16.988004 C53.5223991,16.3302265 51.3379426,14.811585 49.7571593,13.0130017 C49.9119363,13.9425631 50.5006034,14.9549908 51.409543,15.8506329 C50.7192634,15.5445002 50.0478485,15.1477728 49.4064458,14.6943701 C47.976152,13.6892415 46.7049227,12.3857087 45.7616834,11.0632841 C44.2675066,14.0975616 41.8489553,18.3366195 39.9740528,18.3932948 C37.4101569,13.2225287 37.1516235,1.9402717 49.3948696,1.9402717 C61.637687,1.9402717 59.8009429,14.7549097 58.8388388,18.3932948 C56.6882532,16.7385466 55.0504467,15.0043671 54.4583497,14.1237525" id="Fill-110" fill="#44372D"></path>
                            <path d="M52.4462488,27.3140793 C52.4462488,28.7979428 51.0948441,30.0010057 49.427883,30.0010057 C47.7609219,30.0010057 46.4095173,28.7979428 46.4095173,27.3140793 L52.4462488,27.3140793" id="Fill-111" fill="#E05844"></path>
                            <path d="M51.5668925,28.321784 L47.222418,28.321784 C47.0329127,28.321784 46.8794219,28.1680736 46.8794219,27.9782971 L46.8794219,27.3140793 L51.9098886,27.3140793 L51.9098886,27.9782971 C51.9098886,28.1680736 51.7563979,28.321784 51.5668925,28.321784" id="Fill-112" fill="#FFFFFE"></path>
                            <path d="M52.0672381,30.0538168 C51.9154623,30.0538168 51.7769776,29.9507707 51.7392481,29.7962016 C51.6946586,29.6145829 51.8052748,29.4308174 51.986634,29.3861641 C56.7354151,28.2144444 58.5494358,23.847867 58.5670143,23.803643 C58.6368998,23.6306115 58.8345513,23.5464572 59.0073356,23.6164427 C59.1805486,23.6864281 59.2645827,23.8835038 59.1946972,24.0569646 C59.1175231,24.2497467 57.2421919,28.7876381 52.1486997,30.0439415 L52.0672381,30.0538168" id="Fill-113" fill="#626066"></path>
                            <path d="M52.0672381,30.3930101 C51.7632578,30.3930101 51.4867172,30.1860592 51.4108293,29.8773504 C51.3212215,29.5136836 51.5428828,29.146582 51.9060299,29.0572754 C52.5431452,28.8997008 53.1609669,28.6742875 53.7419166,28.3866172 C54.0767665,28.2208847 54.4827882,28.3582795 54.6482838,28.6936086 C54.8137794,29.0289377 54.6770097,29.4355403 54.341731,29.6017021 C53.6728886,29.9327376 52.9620292,30.1924996 52.2297325,30.3732596 C52.1752819,30.3865697 52.1208312,30.3930101 52.0672381,30.3930101" id="Fill-114" fill="#3B3940"></path>
                            <path d="M49.4291693,0.853135619 C43.8516238,0.853135619 38.959213,5.40476657 38.959213,10.5939951 L38.959213,18.2387257 C38.959213,18.4817427 39.1568645,18.679677 39.3995343,18.679677 C39.642204,18.679677 39.8394268,18.4817427 39.8394268,18.2387257 L39.8394268,10.5939951 C39.8394268,5.87448492 44.320671,1.73460891 49.4291693,1.73460891 C54.5376676,1.73460891 59.0189117,5.87448492 59.0189117,10.5939951 L59.0189117,18.2430193 C59.0189117,18.4860363 59.2165632,18.6839706 59.4588042,18.6839706 C59.701474,18.6839706 59.8991255,18.4860363 59.8991255,18.2430193 L59.8991255,10.5939951 C59.8991255,5.40476657 55.0067147,0.853135619 49.4291693,0.853135619" id="Fill-115" fill="#626066"></path>
                            <path d="M38.6873886,23.9049717 C38.2037641,23.9049717 37.79174,23.5344352 37.7488655,23.0428195 L37.4826148,19.99652 C37.4371678,19.4765667 37.8213234,19.018441 38.3401051,18.972929 C38.8584579,18.927417 39.3167865,19.3121223 39.3622335,19.8316463 L39.6280554,22.8783752 C39.6735024,23.3978991 39.2897755,23.8560248 38.7705652,23.9015368 L38.6873886,23.9049717" id="Fill-116" fill="#8B9FFF"></path>
                            <path d="M40.1588419,25.2870771 C39.6752174,25.2870771 39.2636221,24.9165406 39.2203188,24.424925 L38.6921048,18.3795553 C38.6466578,17.859602 39.0308135,17.4019057 39.5495951,17.3559643 C40.0653755,17.3125991 40.5258478,17.6951577 40.5717235,18.215111 L41.0999375,24.2604806 C41.1449557,24.7800046 40.7612288,25.2381303 40.2420185,25.2836423 L40.1588419,25.2870771" id="Fill-117" fill="#626066"></path>
                            <path d="M60.1679487,23.9049717 L60.0847721,23.9015368 C59.5655618,23.8560248 59.1818349,23.3978991 59.2272819,22.8783752 L59.4935326,19.8316463 C59.5389796,19.3121223 59.9998806,18.9269876 60.5152322,18.972929 C61.0340139,19.018441 61.4181695,19.4765667 61.3727225,19.99652 L61.1064718,23.0428195 C61.0635973,23.5344352 60.6515732,23.9049717 60.1679487,23.9049717" id="Fill-118" fill="#8B9FFF"></path>
                            <path d="M58.6964954,25.2870771 L58.6133188,25.2836423 C58.0941085,25.2381303 57.7103816,24.7800046 57.7553998,24.2604806 L58.2836138,18.215111 C58.3290608,17.6951577 58.7861031,17.3121698 59.3057422,17.3559643 C59.8245238,17.4019057 60.2086795,17.859602 60.1632325,18.3795553 L59.6350185,24.424925 C59.5917152,24.9165406 59.1801199,25.2870771 58.6964954,25.2870771" id="Fill-119" fill="#626066"></path>
                            <path d="M106.721524,72.6792546 L3.39566148,72.6792546 C1.52033025,72.6792546 0,74.2017603 0,76.079775 C0,77.9577897 1.52033025,79.4802954 3.39566148,79.4802954 L5.30572106,79.4802954 L5.30572106,141.045172 L10.9651569,141.045172 L10.9651569,79.4802954 L99.1516002,79.4802954 L99.1516002,141.045172 L104.811036,141.045172 L104.811036,79.4802954 L106.721524,79.4802954 C108.596856,79.4802954 110.117186,77.9577897 110.117186,76.079775 C110.117186,74.2017603 108.596856,72.6792546 106.721524,72.6792546" id="Fill-120" fill="url(#linearGradient-10)"></path>
                            <path d="M95.3319098,72.6792546 L52.0848166,72.6792546 C51.5244467,72.6792546 51.0704056,72.2245638 51.0704056,71.663392 C51.0704056,71.1026496 51.5244467,70.6479588 52.0848166,70.6479588 L95.3319098,70.6479588 C95.8918509,70.6479588 96.345892,71.1026496 96.345892,71.663392 C96.345892,72.2245638 95.8918509,72.6792546 95.3319098,72.6792546" id="Fill-121" fill="#9B9B9B"></path>
                            <path d="M94.6309115,70.7209498 L52.7853862,70.7209498 C51.8382882,70.7209498 51.0704056,69.9523978 51.0704056,69.0035152 L51.0704056,39.5233216 C51.0704056,38.574439 51.8382882,37.805887 52.7853862,37.805887 L94.6309115,37.805887 C95.5784382,37.805887 96.345892,38.574439 96.345892,39.5233216 L96.345892,69.0035152 C96.345892,69.9523978 95.5784382,70.7209498 94.6309115,70.7209498" id="Fill-122" fill="#E5E6E3"></path>
                            <path d="M77.4103631,53.2185742 C77.4103631,55.2657562 75.7528344,56.9256567 73.7081488,56.9256567 C71.663892,56.9256567 70.0063633,55.2657562 70.0063633,53.2185742 C70.0063633,51.1709628 71.663892,49.5110623 73.7081488,49.5110623 C75.7528344,49.5110623 77.4103631,51.1709628 77.4103631,53.2185742" id="Fill-123" fill="#D7D7D7"></path>
                            <path d="M59.4802415,70.7209498 L52.9568842,70.7209498 C51.9150336,70.7209498 51.0704056,69.8755426 51.0704056,68.8322011 L51.0704056,39.6950651 C51.0704056,38.6517236 51.9150336,37.805887 52.9568842,37.805887 L86.0504351,37.805887 C71.6107276,42.0934624 60.8144964,55.0334731 59.4802415,70.7209498" id="Fill-124" fill="#EBECE9"></path>
                            <path d="M34.198427,72.6792546 L27.4752746,72.6792546 C27.2454672,72.6792546 27.062393,72.4748798 27.0992651,72.2477491 C27.351796,70.6818782 28.9291493,69.1228769 30.8370652,69.1228769 C32.744981,69.1228769 34.3219056,70.6818782 34.5744365,72.2477491 C34.6113086,72.4748798 34.4282344,72.6792546 34.198427,72.6792546" id="Fill-125" fill="#84C9BC"></path>
                            <path d="M35.3920535,70.4319914 C34.4209458,68.9584326 33.1239917,67.7729734 30.8370652,67.7729734 C29.4140601,67.7729734 28.1591231,68.0816822 27.4135353,68.7639331 C27.2776231,68.8309131 27.1601469,68.9386821 27.0864027,69.0850934 L26.1984715,70.8441757 C26.0179698,71.2018315 26.1611707,71.6384892 26.5183154,71.8192492 C26.623358,71.8724897 26.7348317,71.8973925 26.8445905,71.8973925 C27.109555,71.8973925 27.3646583,71.7518399 27.4919956,71.4989477 L27.741954,71.0043265 L27.7651063,71.0030384 L27.6514888,71.2284517 C27.4452624,71.6372011 27.6086143,72.1361159 28.0172084,72.3426374 C28.1368283,72.4031769 28.2641656,72.431944 28.3902167,72.431944 C28.692482,72.431944 28.9840287,72.2653528 29.129802,71.9768238 L29.2284134,71.781895 C29.2151223,72.0966149 29.3814754,72.4053237 29.6807395,72.5568873 C29.8003594,72.6174269 29.9276967,72.6461939 30.0533191,72.6461939 C30.3560131,72.6461939 30.6475598,72.4796028 30.7933332,72.1906444 L30.9622588,71.856174 C31.0372892,71.9622256 31.1354718,72.0541084 31.2598079,72.1167947 C31.3798565,72.1773343 31.5071938,72.2061013 31.6328161,72.2061013 C31.9350815,72.2061013 32.2266282,72.0395102 32.3728303,71.7509812 L33.145429,70.2198883 C34.8496909,72.0794405 35.990153,71.3396556 35.3920535,70.4319914" id="Fill-126" fill="#F1C9B1"></path>
                        </g>
                    </g>
                </g>
                <g id="Group-23" transform="translate(307.500000, 159.237410)">
                    <ellipse id="Oval-2-Copy" fill="#2E25CF" cx="15.375" cy="15.4100719" rx="15.375" ry="15.4100719"></ellipse>
                    <path d="M13.6672519,12.180532 C13.6510204,11.7156733 13.9744578,11.512884 14.38454,11.7308055 L16.1972972,12.6919108 C16.6066582,12.9086742 17.2790361,13.2670226 17.6877697,13.4836426 L19.5006734,14.4441193 C19.9099819,14.6625259 19.9241138,15.0428189 19.5287155,15.2907264 L14.6017121,18.3798674 C14.2051532,18.6285026 13.8695183,18.4497861 13.8548344,17.9839572 L13.7883377,15.9285152 C13.7734548,15.464958 13.7471779,14.7015161 13.7336021,14.2366026 L13.6672519,12.180532 Z" id="Fill-5-Copy-3" fill="#FFFFFF"></path>
                </g>
            </g>
        </g>
    </g>
</svg>