<?xml version="1.0" standalone="no"?><!DOCTYPE svg PUBLIC "-//W3C//DTD SVG 1.1//EN" "http://www.w3.org/Graphics/SVG/1.1/DTD/svg11.dtd"><svg class="icon" width="200px" height="200.00px" viewBox="0 0 1024 1024" version="1.1" xmlns="http://www.w3.org/2000/svg"><path d="M512 961.9982421875001c247.5 0 449.99912109375003-202.5 449.99912109375003-449.99912109375003S759.4991210937501 62 512 62 62 264.5 62 511.99912109375003s202.5 449.99912109375003 450 449.99912109375003M467 346.0625V272.9375h81.5625v73.125h165.9375v33.75H548.5625v45h137.8125s-2.8125 25.3125-19.6875 73.125c-16.875 47.8125-33.75 70.3125-33.75 70.3125l267.1875 87.1875s-8.4375 25.3125-19.6875 47.8125c-11.25 22.5-28.125 45-28.125 45L596.375 627.3125s-47.8125 53.4375-98.4375 75.9375c-47.8125 22.5-106.875 39.375-165.9375 22.5-61.875-14.0625-104.0625-53.4375-98.4375-126.5625 8.4375-73.125 84.375-98.4375 149.0625-98.4375s182.8125 42.1875 182.8125 42.1875 11.25-22.5 19.6875-47.8125C596.375 469.8125 596.375 447.3125 596.375 447.3125H343.25v-25.3125h123.75v-47.8125h-154.6875v-33.75h154.6875v5.625m70.3125 253.12412109375003s-75.9375 90-165.9375 90-109.6875-42.1875-109.6875-73.125 19.6875-64.6875 95.625-70.3125c75.9375-5.625 180 53.4375 180 53.4375m0 0" fill="#00A9F2" /></svg>