<?xml version="1.0" encoding="UTF-8"?>
<svg width="25px" height="17px" viewBox="0 0 25 17" version="1.1" xmlns="http://www.w3.org/2000/svg" xmlns:xlink="http://www.w3.org/1999/xlink">
    <!-- Generator: Sketch 48.2 (47327) - http://www.bohemiancoding.com/sketch -->
    <title>回放</title>
    <desc>Created with Sketch.</desc>
    <defs></defs>
    <g id="公开课" stroke="none" stroke-width="1" fill="none" fill-rule="evenodd" transform="translate(-1455.000000, -1662.000000)">
        <path d="M1478.4375,1676.70268 L1477.65625,1676.70268 L1474.53125,1673.61177 L1474.53125,1673.06941 L1474.53125,1667.58824 L1477.65625,1664.31818 L1478.4375,1664.31818 L1478.4375,1676.70268 Z M1478.4375,1662.77273 L1477.74453,1662.77273 C1477.33437,1662.77273 1476.94062,1662.93268 1476.64766,1663.21782 L1474.53125,1665.28255 L1474.53125,1664.31818 C1474.53125,1663.03789 1473.48192,1662 1472.1875,1662 L1457.34375,1662 C1456.05156,1662 1455,1663.03932 1455,1664.31818 L1455,1676.68182 C1455,1677.96211 1456.04933,1679 1457.34375,1679 L1472.1875,1679 C1473.48125,1679 1474.53125,1677.96145 1474.53125,1676.68182 L1474.53125,1675.73832 L1476.64766,1677.80305 C1476.94062,1678.08818 1477.33437,1678.24814 1477.74453,1678.24814 L1478.4375,1678.24814 C1479.30044,1678.24814 1480,1677.55621 1480,1676.70268 L1480,1664.31818 C1480,1663.46465 1479.30044,1662.77273 1478.4375,1662.77273 Z M1457.34375,1677.45455 C1456.9125,1677.45455 1456.5625,1677.10759 1456.5625,1676.68182 L1456.5625,1664.31818 C1456.5625,1663.89142 1456.91228,1663.54545 1457.34375,1663.54545 L1472.1875,1663.54545 C1472.61797,1663.54545 1472.96875,1663.89164 1472.96875,1664.31818 L1472.96875,1676.68182 C1472.96875,1677.10759 1472.61797,1677.45455 1472.1875,1677.45455 L1457.34375,1677.45455 Z" id="回放" fill="#FFFFFF" fill-rule="nonzero"></path>
    </g>
</svg>