<?xml version="1.0" encoding="UTF-8"?>
<svg width="20px" height="19px" viewBox="0 0 20 19" version="1.1" xmlns="http://www.w3.org/2000/svg" xmlns:xlink="http://www.w3.org/1999/xlink">
    <!-- Generator: Sketch 48.2 (47327) - http://www.bohemiancoding.com/sketch -->
    <title>直播2</title>
    <desc>Created with Sketch.</desc>
    <defs></defs>
    <g id="公开课" stroke="none" stroke-width="1" fill="none" fill-rule="evenodd" transform="translate(-1437.000000, -1113.000000)">
        <path d="M1445.51044,1127.83871 C1445.38235,1127.83871 1445.25427,1127.79562 1445.16888,1127.75254 C1444.91271,1127.62328 1444.74194,1127.2786 1444.74194,1126.89083 L1444.74194,1121.03119 C1444.74194,1120.64342 1444.91271,1120.34182 1445.16888,1120.16948 C1445.42505,1120.04022 1445.7666,1120.08331 1446.10816,1120.29874 L1450.07875,1123.0993 C1450.37761,1123.31473 1450.54839,1123.61633 1450.54839,1123.96101 C1450.54839,1124.30569 1450.37761,1124.60729 1450.07875,1124.82272 L1446.10816,1127.62328 C1445.93738,1127.79562 1445.72391,1127.83871 1445.51044,1127.83871 Z M1445.06022,1115.58065 L1448.95765,1115.58065 L1450.7229,1113.24457 C1450.92697,1112.97452 1451.29428,1112.93594 1451.57997,1113.09026 C1451.86566,1113.28315 1451.90648,1113.63036 1451.74323,1113.90041 L1450.47355,1115.58065 L1453.66667,1115.58065 C1455.5,1115.58065 1457,1117.06948 1457,1118.88916 L1457,1128.40116 C1457,1130.22084 1455.5,1131.70968 1453.66667,1131.70968 L1440.33333,1131.70968 C1438.5,1131.70968 1437,1130.22084 1437,1128.40116 L1437,1118.88916 C1437,1117.06948 1438.5,1115.58065 1440.33333,1115.58065 L1443.51517,1115.58065 L1442.27465,1113.93899 C1442.07058,1113.66894 1442.15221,1113.32173 1442.4379,1113.12884 C1442.72359,1112.93594 1443.0909,1112.97452 1443.29497,1113.24457 L1445.06022,1115.58065 Z M1440.33333,1117.2349 C1439.41667,1117.2349 1438.66667,1117.97932 1438.66667,1118.88916 L1438.66667,1128.40116 C1438.66667,1129.311 1439.41667,1130.05542 1440.33333,1130.05542 L1453.66667,1130.05542 C1454.58333,1130.05542 1455.33333,1129.311 1455.33333,1128.40116 L1455.33333,1118.88916 C1455.33333,1117.97932 1454.58333,1117.2349 1453.66667,1117.2349 L1440.33333,1117.2349 Z" id="直播2" fill="#FFFFFF" fill-rule="nonzero"></path>
    </g>
</svg>