<?xml version="1.0" encoding="UTF-8"?>
<svg width="200px" height="131px" viewBox="0 0 200 131" version="1.1" xmlns="http://www.w3.org/2000/svg" xmlns:xlink="http://www.w3.org/1999/xlink">
    <!-- Generator: Sketch 48.2 (47327) - http://www.bohemiancoding.com/sketch -->
    <title>Fill 1</title>
    <desc>Created with Sketch.</desc>
    <defs></defs>
    <g id="优惠券-空" stroke="none" stroke-width="1" fill="none" fill-rule="evenodd" transform="translate(-88.000000, -193.000000)">
        <path d="M261.296001,223.659 C263.504001,223.659 265.295001,221.868 265.295001,219.66 C265.295001,217.451 263.504001,215.661 261.296001,215.661 C259.087001,215.661 257.297001,217.451 257.297001,219.66 C257.297001,221.868 259.087001,223.659 261.296001,223.659 Z M261.296001,227.658 C256.878001,227.659 253.297001,224.077 253.297001,219.66 C253.297001,215.243 256.878001,211.662 261.295001,211.662 L261.296001,211.662 C265.713001,211.662 269.293001,215.243 269.293001,219.66 C269.293001,224.077 265.713001,227.658 261.296001,227.658 Z M96.0020008,239.655 C98.2110008,239.655 100.001001,237.865 100.001001,235.656 C100.001001,233.448 98.2110008,231.657 96.0020008,231.657 C93.7930008,231.657 92.0030008,233.448 92.0030008,235.656 C92.0030008,237.865 93.7930008,239.655 96.0020008,239.655 Z M96.0020008,243.654 C91.5850008,243.657 88.0020008,240.077 88.0000008,235.66 C87.9980008,231.243 91.5770008,227.66 95.9940008,227.658 L96.0020008,227.658 C100.419001,227.658 104.000001,231.239 104.000001,235.656 C104.000001,240.074 100.419001,243.654 96.0020008,243.654 Z M146.656001,259.65 C146.656001,258.179 147.846001,256.984 149.317001,256.984 L167.990001,256.984 C169.459001,256.984 170.651001,258.168 170.651001,259.65 C170.651001,261.122 169.462001,262.317 167.990001,262.317 L149.317001,262.317 C147.851001,262.32 146.659001,261.133 146.656001,259.666 L146.656001,259.65 Z M146.656001,246.32 C146.656001,244.848 147.843001,243.654 149.304001,243.654 L191.997001,243.654 C193.458001,243.654 194.645001,244.838 194.645001,246.32 C194.645001,247.792 193.458001,248.986 191.997001,248.986 L149.304001,248.986 C147.840001,248.985 146.655001,247.797 146.656001,246.334 L146.656001,246.32 Z M146.656001,232.99 C146.656001,231.519 147.849001,230.326 149.319001,230.324 L178.649001,230.324 C180.121001,230.324 181.315001,231.518 181.315001,232.99 C181.315001,234.463 180.121001,235.656 178.649001,235.656 L149.322001,235.656 C147.855001,235.66 146.661001,234.474 146.656001,233.006 L146.656001,232.99 Z M174.746001,295.738 C179.952001,290.532 179.952001,282.09 174.746001,276.884 C169.539001,271.677 161.098001,271.677 155.892001,276.884 C150.686001,282.09 150.686001,290.532 155.892001,295.738 C161.098001,300.945 169.539001,300.945 174.746001,295.738 Z M90.6700008,312.971 C90.6700008,311.499 91.8780008,310.305 93.3280008,310.305 L109.340001,310.305 C110.807001,310.305 111.998001,311.489 111.998001,312.971 C111.998001,314.443 110.790001,315.637 109.340001,315.637 L93.3280008,315.637 C91.8610008,315.638 90.6710008,314.451 90.6700008,312.985 L90.6700008,312.971 Z M121.996001,198.998 L125.968001,198.998 C127.088001,198.998 127.994001,199.886 127.994001,200.998 C127.994001,202.102 127.088001,202.997 125.968001,202.997 L121.996001,202.997 L121.996001,206.97 C121.996001,208.09 121.108001,208.996 119.996001,208.996 C118.885001,208.989 117.989001,208.081 117.997001,206.97 L117.997001,202.997 L114.025001,202.997 C112.916001,203.008 112.009001,202.117 111.998001,201.009 L111.998001,200.998 C111.998001,199.894 112.904001,198.998 114.025001,198.998 L117.997001,198.998 L117.997001,195.026 C117.997001,193.906 118.885001,193 119.996001,193 C121.100001,193 121.996001,193.906 121.996001,195.026 L121.996001,198.998 Z M215.973001,296.975 L223.995001,296.975 C226.930001,296.96 229.302001,294.577 229.303001,291.643 L229.303001,214.328 C229.303001,211.374 226.925001,208.996 223.995001,208.996 L159.960001,208.996 C157.026001,209.012 154.656001,211.394 154.654001,214.328 L154.654001,216.994 L205.298001,216.994 C211.181001,216.981 215.960001,221.739 215.973001,227.621 L215.973001,227.645 L215.973001,296.975 Z M196.853001,310.305 L205.330001,310.305 C208.263001,310.305 210.641001,307.932 210.641001,304.959 L210.641001,227.519 C210.641001,224.64 208.338001,222.326 205.495001,222.326 L141.138001,222.326 C138.296001,222.326 135.992001,224.651 135.992001,227.519 L135.992001,304.959 C135.992001,307.91 138.392001,310.305 141.301001,310.305 L181.771001,310.305 L180.401001,308.932 C179.048001,307.587 178.520001,305.62 179.014001,303.779 L176.497001,301.259 C168.228001,307.415 156.532001,305.701 150.376001,297.432 C144.854001,290.013 145.596001,279.668 152.122001,273.114 C159.397001,265.813 171.213001,265.792 178.514001,273.067 C185.104001,279.633 185.852001,290.049 180.267001,297.49 L182.786001,300.009 C184.628001,299.511 186.595001,300.039 187.940001,301.393 L196.853001,310.305 Z M187.106001,315.637 L119.988001,315.637 C118.522001,315.638 117.332001,314.451 117.330001,312.985 L117.330001,312.971 C117.330001,311.499 118.538001,310.305 119.988001,310.305 L132.078001,310.305 C131.146001,308.688 130.656001,306.853 130.660001,304.987 L130.660001,227.645 C130.663001,221.76 135.437001,216.991 141.321001,216.994 L141.335001,216.994 L149.322001,216.994 L149.322001,214.315 C149.325001,208.43 154.099001,203.661 159.984001,203.664 L159.997001,203.664 L223.961001,203.664 C229.843001,203.651 234.622001,208.409 234.635001,214.291 L234.635001,214.315 L234.635001,291.657 C234.635001,293.594 234.118001,295.409 233.214001,296.975 L247.963001,296.975 C249.437001,296.975 250.632001,298.159 250.632001,299.641 C250.632001,301.113 249.445001,302.307 247.966001,302.307 L215.973001,302.307 L215.973001,304.987 C215.973001,306.924 215.456001,308.74 214.552001,310.305 L215.982001,310.305 C217.447001,310.305 218.639001,311.489 218.639001,312.971 C218.639001,314.443 217.432001,315.637 215.982001,315.637 L201.955001,315.637 C203.174001,317.679 202.909001,320.356 201.137001,322.129 C199.065001,324.21 195.697001,324.219 193.615001,322.147 C193.609001,322.141 193.603001,322.135 193.597001,322.129 L187.106001,315.637 Z M283.957001,271.648 L283.957001,268.955 C283.954001,268.23 283.364001,267.645 282.640001,267.648 C282.635001,267.648 282.629001,267.648 282.624001,267.649 C281.898001,267.648 281.306001,268.229 281.291001,268.955 L281.291001,271.648 L278.598001,271.648 C277.874001,271.65 277.289001,272.24 277.291001,272.964 C277.291001,272.97 277.292001,272.975 277.292001,272.981 C277.292001,273.695 277.878001,274.314 278.598001,274.314 L281.291001,274.314 L281.291001,277.006 C281.291001,277.74 281.888001,278.313 282.624001,278.313 C283.350001,278.313 283.942001,277.732 283.957001,277.006 L283.957001,274.314 L286.650001,274.314 C287.383001,274.314 287.956001,273.717 287.956001,272.981 C287.956001,272.255 287.375001,271.662 286.650001,271.648 L283.957001,271.648 Z M107.999001,282.312 L110.692001,282.312 C111.418001,282.326 111.998001,282.918 111.998001,283.645 C111.998001,284.38 111.425001,284.978 110.692001,284.978 L107.999001,284.978 L107.999001,287.67 C107.984001,288.396 107.392001,288.977 106.666001,288.977 C105.942001,288.989 105.345001,288.41 105.333001,287.687 L105.333001,287.67 L105.333001,284.978 L102.641001,284.978 C101.915001,284.963 101.334001,284.37 101.334001,283.645 C101.334001,282.909 101.907001,282.312 102.641001,282.312 L105.333001,282.312 L105.333001,279.619 C105.348001,278.893 105.941001,278.313 106.666001,278.313 C107.401001,278.313 107.999001,278.886 107.999001,279.619 L107.999001,282.312 Z" id="Fill-1" fill="#e5e5e5"></path>
    </g>
</svg>
