<?xml version="1.0" encoding="UTF-8"?>
<svg width="12px" height="15px" viewBox="0 0 12 15" version="1.1" xmlns="http://www.w3.org/2000/svg" xmlns:xlink="http://www.w3.org/1999/xlink">
    <!-- Generator: Sketch 49.3 (51167) - http://www.bohemiancoding.com/sketch -->
    <title>锁</title>
    <desc>Created with Sketch.</desc>
    <defs></defs>
    <g id="适配M页2" stroke="none" stroke-width="1" fill="none" fill-rule="evenodd">
        <g id="课程详情目录" transform="translate(-339.000000, -591.000000)" fill="#D0D0D0" fill-rule="nonzero">
            <path d="M350.076935,596.909089 L349.153853,596.909089 L349.153853,595.0909 C349.153853,592.818189 347.307688,591 345.000009,591 C342.692312,591 340.846164,592.818189 340.846164,595.090917 L340.846164,596.909106 L339.923082,596.909106 C339.415391,596.909106 339,597.318186 339,597.818183 L339,605.090906 C339,605.590903 339.415391,606 339.923082,606 L350.076918,606 C350.584609,606 351,605.590903 351,605.090906 L351,597.818183 C351,597.318186 350.584609,596.909089 350.076918,596.909089 L350.076935,596.909089 Z M345.923091,602.136378 L345.923091,603.045472 C345.923091,603.40911 345.600016,603.727272 345.230783,603.727272 C344.861551,603.727272 344.538476,603.40911 344.538476,603.045472 L344.538476,602.136378 C344.261543,601.9091 344.076926,601.590921 344.076926,601.227283 C344.076926,600.590926 344.584617,600.090928 345.230783,600.090928 C345.876932,600.090928 346.384623,600.590926 346.384623,601.227283 C346.384623,601.590921 346.200007,601.9091 345.923091,602.136378 Z M347.769255,596.909123 L342.230762,596.909123 L342.230762,595.090917 C342.230762,593.590924 343.476936,592.363667 345.000009,592.363667 C346.523081,592.363667 347.769238,593.590924 347.769238,595.090934 L347.769255,596.909123 Z" id="锁"></path>
        </g>
    </g>
</svg>