<?xml version="1.0" encoding="UTF-8"?>
<svg width="15px" height="15px" viewBox="0 0 15 15" version="1.1" xmlns="http://www.w3.org/2000/svg" xmlns:xlink="http://www.w3.org/1999/xlink">
    <!-- Generator: Sketch 49.3 (51167) - http://www.bohemiancoding.com/sketch -->
    <title>播放</title>
    <desc>Created with Sketch.</desc>
    <defs></defs>
    <g id="适配M页2" stroke="none" stroke-width="1" fill="none" fill-rule="evenodd">
        <g id="课程详情目录" transform="translate(-17.000000, -591.000000)" fill="#5E5E5E">
            <path d="M23.1290991,601.947622 C23.0878855,601.947622 23.0466533,601.937501 23.0085316,601.918056 C22.9179207,601.872557 22.8615435,601.780003 22.8615435,601.679682 L22.8615435,595.556775 C22.8615435,595.457232 22.9167543,595.365817 23.0054211,595.31954 C23.0933103,595.273263 23.2002696,595.28027 23.2819378,595.337048 L27.5676415,598.318385 C27.638812,598.367777 27.6815994,598.448672 27.6827658,598.534997 C27.6839507,598.621722 27.6430888,598.703016 27.5734736,598.754325 L23.2877885,601.895116 C23.2415573,601.929202 23.1860503,601.947565 23.1291177,601.947622 L23.1290991,601.947622 Z M24.5,604.928561 C20.9551426,604.928561 18.0714259,602.044848 18.0714259,598.5 C18.0714259,594.955152 20.9551426,592.07142 24.5,592.07142 C28.0448574,592.07142 30.9285556,594.955152 30.9285556,598.5 C30.9285556,602.044848 28.0448574,604.928561 24.5,604.928561 L24.5,604.928561 Z M24.5,591 C20.3577851,591 17,594.357783 17,598.5 C17,602.642217 20.3577851,606 24.5,606 C28.6425852,606 32,602.642217 32,598.5 C32,594.357783 28.6425852,591 24.5,591 L24.5,591 Z" id="播放"></path>
        </g>
    </g>
</svg>
