<?xml version="1.0" encoding="UTF-8"?>
<svg width="24px" height="24px" viewBox="0 0 24 24" version="1.1" xmlns="http://www.w3.org/2000/svg" xmlns:xlink="http://www.w3.org/1999/xlink">
    <!-- Generator: Sketch 49.3 (51167) - http://www.bohemiancoding.com/sketch -->
    <title>zhifubao</title>
    <desc>Created with Sketch.</desc>
    <defs></defs>
    <g id="适配M页2" stroke="none" stroke-width="1" fill="none" fill-rule="evenodd">
        <g id="提交订单" transform="translate(-22.000000, -414.000000)" fill="#1AACEB" fill-rule="nonzero">
            <g id="zhifubao" transform="translate(22.000000, 414.000000)">
                <path d="M5.4004739,13.512 C5.11699707,13.7408 4.81350069,14.0728 4.72541466,14.496 C4.60529736,15.0744 4.69978963,15.7984 5.25793471,16.3656 C5.93379472,17.0536 6.96039728,17.2424 7.4040305,17.2744 C8.60840664,17.3624 9.89206022,16.7648 10.8602057,16.0832 C11.4903087,15.6256536 12.0466174,15.0744746 12.5098166,14.4488 C11.1188583,13.7304 9.38116129,12.936 7.52494857,13.0136 C6.57602189,13.0536 5.89695873,13.2504 5.4004739,13.5128 L5.4004739,13.512 Z M23.0457056,16.6896 C23.6768795,15.2066353 24.001294,13.6114539 23.999437,12 C23.999437,5.38399999 18.6165802,0 11.9989177,0 C5.3828567,0 0,5.3832 0,12 C0,18.6176 5.3828567,24 12.0005192,24 C15.9940191,24 19.535878,22.0376 21.718009,19.028 C19.6559953,18.0032 16.2566757,16.316 14.1626307,15.2944 C13.1632547,16.4336 11.6866127,17.5752 10.017783,18.072 C8.96955934,18.384 8.02463655,18.5024 7.03647155,18.3008 C6.05871672,18.1 5.33881368,17.6424 4.91840312,17.1824 C4.70379355,16.9488 4.45795345,16.6504 4.28017987,16.2968 C4.29699629,16.3416 4.30900802,16.368 4.30900802,16.368 C4.30900802,16.368 4.20650792,16.192 4.12803127,15.9112 C4.05940305,15.6738609 4.03124938,15.426675 4.04474996,15.18 C4.03388235,14.9910629 4.0473387,14.8015136 4.08478904,14.616 C4.18248446,14.1416 4.3850823,13.5896 4.90879374,13.076 C6.05871672,11.9504 7.5994213,11.8896 8.39619941,11.8944 C9.57815367,11.9016 11.6313588,12.4184 13.3610479,13.0304 C13.8399155,12.0096 14.1474158,10.9184 14.3460098,10.1912 L7.15498728,10.1912 L7.15498728,9.41440001 L10.8473931,9.41440001 L10.8473931,7.85920001 L6.37902951,7.85920001 L6.37902951,7.08160001 L10.8473931,7.08160001 L10.8473931,5.52799999 C10.8473931,5.31439999 10.8898346,5.13919999 11.2365732,5.13919999 L12.9846804,5.13919999 L12.9846804,7.08160001 L17.8438256,7.08160001 L17.8438256,7.85920001 L12.9854811,7.85920001 L12.9854811,9.41440001 L16.8716762,9.41440001 C16.8716762,9.41440001 16.4808946,11.5904 15.2613036,13.7344 C17.9695484,14.7016 21.7796692,16.192 23.0449048,16.6896 L23.0457056,16.6896 Z" id="Shape"></path>
            </g>
        </g>
    </g>
</svg>